# This file uses centimeters as units for non-parametric coordinates.

mtllib BathtubWaterCtrl_01.mtl
g default
v -1.604094 65.003930 -6.733657
v -1.424979 65.003930 -6.733657
v -1.604094 65.183043 -6.733657
v -1.424979 65.183043 -6.733657
v -1.604094 65.183043 -6.912771
v -1.424979 65.183043 -6.912771
v -1.604094 65.003930 -6.912771
v -1.424979 65.003930 -6.912771
v -1.567275 65.040748 -6.721847
v -1.461798 65.040748 -6.721847
v -1.461798 65.146225 -6.721847
v -1.567275 65.146225 -6.721847
v -1.567275 65.040748 -6.557913
v -1.461798 65.040748 -6.557913
v -1.461798 65.146225 -6.557913
v -1.567275 65.146225 -6.557913
vt 0.375000 0.000000
vt 0.625000 0.000000
vt 0.375000 0.250000
vt 0.625000 0.250000
vt 0.375000 0.500000
vt 0.625000 0.500000
vt 0.375000 0.750000
vt 0.625000 0.750000
vt 0.375000 1.000000
vt 0.625000 1.000000
vt 0.875000 0.000000
vt 0.875000 0.250000
vt 0.125000 0.000000
vt 0.125000 0.250000
vt 0.375000 0.000000
vt 0.625000 0.000000
vt 0.625000 0.250000
vt 0.375000 0.250000
vt 0.375000 0.000000
vt 0.625000 0.000000
vt 0.625000 0.250000
vt 0.375000 0.250000
vn 0.000000 0.000000 1.000000
vn 0.000000 0.000000 1.000000
vn 0.000000 0.000000 1.000000
vn 0.000000 0.000000 1.000000
vn 0.000000 0.996656 0.081709
vn 0.000000 0.996656 0.081709
vn 0.000000 1.000000 0.000000
vn 0.000000 1.000000 0.000000
vn 0.000000 0.000000 -1.000000
vn 0.000000 0.000000 -1.000000
vn 0.000000 0.000000 -1.000000
vn 0.000000 0.000000 -1.000000
vn 0.000000 -1.000000 0.000000
vn 0.000000 -1.000000 0.000000
vn 0.000000 -0.996657 0.081706
vn 0.000000 -0.996657 0.081706
vn 0.996656 0.000000 0.081710
vn 1.000000 0.000000 0.000000
vn 1.000000 0.000000 0.000000
vn 0.996656 0.000000 0.081708
vn -1.000000 0.000000 0.000000
vn -0.996656 0.000000 0.081710
vn -0.996656 0.000000 0.081709
vn -1.000000 0.000000 0.000000
vn 0.000000 -0.305446 0.952210
vn 0.000000 -0.305446 0.952210
vn 0.305447 0.000000 0.952209
vn 0.305447 0.000000 0.952209
vn 0.000000 0.305441 0.952211
vn 0.000000 0.305441 0.952211
vn -0.305442 0.000000 0.952211
vn -0.305442 0.000000 0.952211
vn 0.000000 -1.000000 0.000000
vn 0.000000 -1.000000 0.000000
vn 0.000000 -1.000000 0.000000
vn 0.000000 -1.000000 0.000000
vn 1.000000 0.000000 0.000000
vn 1.000000 0.000000 0.000000
vn 1.000000 0.000000 0.000000
vn 1.000000 0.000000 0.000000
vn 0.000000 1.000000 0.000000
vn 0.000000 1.000000 0.000000
vn 0.000000 1.000000 0.000000
vn 0.000000 1.000000 0.000000
vn -1.000000 0.000000 0.000000
vn -1.000000 0.000000 0.000000
vn -1.000000 0.000000 0.000000
vn -1.000000 0.000000 0.000000
s off
g tubWaterHandle tubWaterCtrl
usemtl initialShadingGroup
f 13/19/1 14/20/2 15/21/3 16/22/4
s 1
f 3/3/5 4/4/6 6/6/7 5/5/8
s off
f 5/5/9 6/6/10 8/8/11 7/7/12
s 2
f 7/7/13 8/8/14 2/10/15 1/9/16
s 3
f 2/2/17 8/11/18 6/12/19 4/4/20
s 4
f 7/13/21 1/1/22 3/3/23 5/14/24
s 2
f 1/1/16 2/2/15 10/16/25 9/15/26
s 3
f 2/2/17 4/4/20 11/17/27 10/16/28
s 1
f 4/4/6 3/3/5 12/18/29 11/17/30
s 4
f 3/3/23 1/1/22 9/15/31 12/18/32
s off
f 9/15/33 10/16/34 14/20/35 13/19/36
f 10/16/37 11/17/38 15/21/39 14/20/40
f 11/17/41 12/18/42 16/22/43 15/21/44
f 12/18/45 9/15/46 13/19/47 16/22/48
g default
v -1.328816 64.735086 -6.557288
v -1.182297 64.735086 -6.557288
v -1.328816 64.910422 -6.557288
v -1.182297 64.910422 -6.557288
v -1.328816 64.910422 -6.786994
v -1.182297 64.910422 -6.786994
v -1.328816 64.735086 -6.786994
v -1.182297 64.735086 -6.786994
v -1.328816 64.896297 -6.981174
v -1.182297 64.896297 -6.981174
v -1.182297 64.729521 -6.927059
v -1.328816 64.729521 -6.927059
v -1.328816 64.841184 -7.124778
v -1.182297 64.841184 -7.124778
v -1.182297 64.716717 -7.001283
v -1.328816 64.716717 -7.001283
v -1.328816 64.763369 -7.182261
v -1.182297 64.763369 -7.182261
v -1.182297 64.694568 -7.020987
v -1.328816 64.694568 -7.020987
v -1.328816 64.674729 -7.206398
v -1.182297 64.674729 -7.206398
v -1.182297 64.674714 -7.031062
v -1.328816 64.674714 -7.031062
vt 0.375000 0.000000
vt 0.625000 0.000000
vt 0.375000 0.250000
vt 0.625000 0.250000
vt 0.375000 0.500000
vt 0.625000 0.500000
vt 0.375000 0.750000
vt 0.625000 0.750000
vt 0.375000 1.000000
vt 0.625000 1.000000
vt 0.875000 0.000000
vt 0.875000 0.250000
vt 0.125000 0.000000
vt 0.125000 0.250000
vt 0.375000 0.500000
vt 0.625000 0.500000
vt 0.625000 0.750000
vt 0.375000 0.750000
vt 0.375000 0.500000
vt 0.625000 0.500000
vt 0.625000 0.750000
vt 0.375000 0.750000
vt 0.375000 0.500000
vt 0.625000 0.500000
vt 0.625000 0.750000
vt 0.375000 0.750000
vt 0.375000 0.500000
vt 0.625000 0.500000
vt 0.625000 0.750000
vt 0.375000 0.750000
vn 0.000000 0.000000 1.000000
vn 0.000000 0.000000 1.000000
vn 0.000000 0.000000 1.000000
vn 0.000000 0.000000 1.000000
vn 0.000000 1.000000 0.000000
vn 0.000000 1.000000 0.000000
vn 0.000000 0.999445 -0.033305
vn 0.000000 0.999445 -0.033305
vn 0.000000 -1.000000 -0.000084
vn 0.000000 -1.000000 -0.000084
vn 0.000000 -1.000000 -0.000084
vn 0.000000 -1.000000 -0.000084
vn 0.000000 -0.999887 0.015049
vn 0.000000 -0.999887 0.015049
vn 0.000000 -1.000000 0.000000
vn 0.000000 -1.000000 0.000000
vn 1.000000 0.000000 0.000000
vn 1.000000 0.000000 0.000000
vn 1.000000 0.000000 0.000000
vn 1.000000 0.000000 0.000000
vn -1.000000 0.000000 0.000000
vn -1.000000 0.000000 0.000000
vn -1.000000 0.000000 0.000000
vn -1.000000 0.000000 0.000000
vn 0.000000 0.979631 -0.200804
vn 0.000000 0.979631 -0.200804
vn 1.000000 0.000001 0.000000
vn 1.000000 0.000001 0.000000
vn 0.000000 -0.996346 0.085411
vn 0.000000 -0.996346 0.085411
vn -1.000000 0.000001 0.000000
vn -1.000000 0.000001 0.000000
vn 0.000000 0.834208 -0.551451
vn 0.000000 0.834208 -0.551451
vn 1.000000 0.000001 0.000000
vn 1.000000 0.000001 0.000000
vn 0.000000 -0.937215 0.348752
vn 0.000000 -0.937215 0.348752
vn -1.000000 0.000000 0.000000
vn -1.000000 0.000000 0.000000
vn 0.000000 0.440263 -0.897869
vn 0.000000 0.440263 -0.897869
vn 1.000000 -0.000000 0.000000
vn 1.000000 -0.000000 0.000000
vn 0.000000 -0.578370 0.815775
vn 0.000000 -0.578370 0.815775
vn -1.000000 -0.000000 0.000000
vn -1.000000 -0.000001 0.000000
vn 0.000000 0.262735 -0.964868
vn 0.000000 0.262735 -0.964868
vn 1.000000 -0.000001 0.000000
vn 1.000000 -0.000001 0.000000
vn 0.000000 -0.452507 0.891761
vn 0.000000 -0.452507 0.891761
vn -1.000000 0.000002 0.000000
vn -1.000000 0.000002 0.000000
s off
g tubWaterCtrl tubWaterTap
usemtl initialShadingGroup
f 17/23/49 18/24/50 20/26/51 19/25/52
s 1
f 19/25/53 20/26/54 22/28/55 21/27/56
s off
f 37/49/57 38/50/58 39/51/59 40/52/60
s 2
f 23/29/61 24/30/62 18/32/63 17/31/64
s 3
f 18/24/65 24/33/66 22/34/67 20/26/68
s 4
f 23/35/69 17/23/70 19/25/71 21/36/72
s 1
f 21/27/56 22/28/55 26/38/73 25/37/74
s 3
f 22/28/67 24/30/66 27/39/75 26/38/76
s 2
f 24/30/62 23/29/61 28/40/77 27/39/78
s 4
f 23/29/69 21/27/72 25/37/79 28/40/80
s 1
f 25/37/74 26/38/73 30/42/81 29/41/82
s 3
f 26/38/76 27/39/75 31/43/83 30/42/84
s 2
f 27/39/78 28/40/77 32/44/85 31/43/86
s 4
f 28/40/80 25/37/79 29/41/87 32/44/88
s 1
f 29/41/82 30/42/81 34/46/89 33/45/90
s 3
f 30/42/84 31/43/83 35/47/91 34/46/92
s 2
f 31/43/86 32/44/85 36/48/93 35/47/94
s 4
f 32/44/88 29/41/87 33/45/95 36/48/96
s 1
f 33/45/90 34/46/89 38/50/97 37/49/98
s 3
f 34/46/92 35/47/91 39/51/99 38/50/100
s 2
f 35/47/94 36/48/93 40/52/101 39/51/102
s 4
f 36/48/96 33/45/95 37/49/103 40/52/104
g default
v -1.126328 65.003930 -6.733657
v -0.947214 65.003930 -6.733657
v -1.126328 65.183043 -6.733657
v -0.947214 65.183043 -6.733657
v -1.126328 65.183043 -6.912771
v -0.947214 65.183043 -6.912771
v -1.126328 65.003930 -6.912771
v -0.947214 65.003930 -6.912771
v -1.089510 65.040748 -6.721847
v -0.984032 65.040748 -6.721847
v -0.984032 65.146225 -6.721847
v -1.089510 65.146225 -6.721847
v -1.089510 65.040748 -6.557913
v -0.984032 65.040748 -6.557913
v -0.984032 65.146225 -6.557913
v -1.089510 65.146225 -6.557913
vt 0.375000 0.000000
vt 0.625000 0.000000
vt 0.375000 0.250000
vt 0.625000 0.250000
vt 0.375000 0.500000
vt 0.625000 0.500000
vt 0.375000 0.750000
vt 0.625000 0.750000
vt 0.375000 1.000000
vt 0.625000 1.000000
vt 0.875000 0.000000
vt 0.875000 0.250000
vt 0.125000 0.000000
vt 0.125000 0.250000
vt 0.375000 0.000000
vt 0.625000 0.000000
vt 0.625000 0.250000
vt 0.375000 0.250000
vt 0.375000 0.000000
vt 0.625000 0.000000
vt 0.625000 0.250000
vt 0.375000 0.250000
vn 0.000000 0.000000 1.000000
vn 0.000000 0.000000 1.000000
vn 0.000000 0.000000 1.000000
vn 0.000000 0.000000 1.000000
vn 0.000000 0.996656 0.081709
vn 0.000000 0.996656 0.081709
vn 0.000000 1.000000 0.000000
vn 0.000000 1.000000 0.000000
vn 0.000000 0.000000 -1.000000
vn 0.000000 0.000000 -1.000000
vn 0.000000 0.000000 -1.000000
vn 0.000000 0.000000 -1.000000
vn 0.000000 -1.000000 0.000000
vn 0.000000 -1.000000 0.000000
vn 0.000000 -0.996657 0.081706
vn 0.000000 -0.996657 0.081706
vn 0.996656 0.000000 0.081710
vn 1.000000 0.000000 0.000000
vn 1.000000 0.000000 0.000000
vn 0.996656 0.000000 0.081708
vn -1.000000 0.000000 0.000000
vn -0.996656 0.000000 0.081710
vn -0.996656 0.000000 0.081709
vn -1.000000 0.000000 0.000000
vn 0.000000 -0.305446 0.952209
vn 0.000000 -0.305446 0.952209
vn 0.305447 0.000000 0.952209
vn 0.305447 0.000000 0.952209
vn 0.000000 0.305441 0.952211
vn 0.000000 0.305441 0.952211
vn -0.305442 0.000000 0.952211
vn -0.305442 0.000000 0.952211
vn 0.000000 -1.000000 0.000000
vn 0.000000 -1.000000 0.000000
vn 0.000000 -1.000000 0.000000
vn 0.000000 -1.000000 0.000000
vn 1.000000 0.000000 0.000000
vn 1.000000 0.000000 0.000000
vn 1.000000 0.000000 0.000000
vn 1.000000 0.000000 0.000000
vn 0.000000 1.000000 0.000000
vn 0.000000 1.000000 0.000000
vn 0.000000 1.000000 0.000000
vn 0.000000 1.000000 0.000000
vn -1.000000 0.000000 0.000000
vn -1.000000 0.000000 0.000000
vn -1.000000 0.000000 0.000000
vn -1.000000 0.000000 0.000000
s off
g tubWaterCtrl tubWaterHandle1
usemtl initialShadingGroup
f 53/71/105 54/72/106 55/73/107 56/74/108
s 1
f 43/55/109 44/56/110 46/58/111 45/57/112
s off
f 45/57/113 46/58/114 48/60/115 47/59/116
s 2
f 47/59/117 48/60/118 42/62/119 41/61/120
s 3
f 42/54/121 48/63/122 46/64/123 44/56/124
s 4
f 47/65/125 41/53/126 43/55/127 45/66/128
s 2
f 41/53/120 42/54/119 50/68/129 49/67/130
s 3
f 42/54/121 44/56/124 51/69/131 50/68/132
s 1
f 44/56/110 43/55/109 52/70/133 51/69/134
s 4
f 43/55/127 41/53/126 49/67/135 52/70/136
s off
f 49/67/137 50/68/138 54/72/139 53/71/140
f 50/68/141 51/69/142 55/73/143 54/72/144
f 51/69/145 52/70/146 56/74/147 55/73/148
f 52/70/149 49/67/150 53/71/151 56/74/152
g default
v -1.304380 63.425998 -7.068849
v -1.204128 63.425998 -7.068849
v -1.304380 64.739610 -7.068849
v -1.204128 64.739610 -7.068849
v -1.304380 64.739610 -7.169101
v -1.204128 64.739610 -7.169101
v -1.304380 63.425998 -7.169101
v -1.204128 63.425998 -7.169101
vt 0.176825 0.000493
vt 0.265238 0.000493
vt 0.265238 0.999507
vt 0.088413 0.999507
vt 0.000000 0.000493
vt 0.353650 0.000493
vt 0.353650 0.999507
vt 0.088413 0.000493
vt 0.176825 0.999507
vt 0.000000 0.999507
vn 0.000000 0.000000 1.000000
vn 0.000000 0.000000 1.000000
vn 0.000000 0.000000 1.000000
vn 0.000000 0.000000 1.000000
vn 0.000000 1.000000 0.000000
vn 0.000000 1.000000 0.000000
vn 0.000000 1.000000 0.000000
vn 0.000000 1.000000 0.000000
vn 0.000000 0.000000 -1.000000
vn 0.000000 0.000000 -1.000000
vn 0.000000 0.000000 -1.000000
vn 0.000000 0.000000 -1.000000
vn 0.000000 -1.000000 0.000000
vn 0.000000 -1.000000 0.000000
vn 0.000000 -1.000000 0.000000
vn 0.000000 -1.000000 0.000000
vn 1.000000 0.000000 0.000000
vn 1.000000 0.000000 0.000000
vn 1.000000 0.000000 0.000000
vn 1.000000 0.000000 0.000000
vn -1.000000 0.000000 0.000000
vn -1.000000 0.000000 0.000000
vn -1.000000 0.000000 0.000000
vn -1.000000 0.000000 0.000000
s off
g tubWaterCtrl tubWater
usemtl initialShadingGroup
f 57/75/153 58/76/154 60/77/155 59/83/156
f 59//157 60//158 62//159 61//160
f 61/78/161 62/84/162 64/79/163 63/82/164
f 63//165 64//166 58//167 57//168
f 58/76/169 64/80/170 62/81/171 60/77/172
f 63/82/173 57/75/174 59/83/175 61/78/176
