# This file uses centimeters as units for non-parametric coordinates.

mtllib Chair_01.mtl
g default
v 5.725681 53.932022 2.781173
v 5.915241 53.932022 2.781173
v 6.340168 53.932022 2.781173
v 6.525681 53.932022 2.781173
v 5.725681 54.132022 2.781173
v 5.915241 54.132022 2.781173
v 6.340168 54.132022 2.781173
v 6.525681 54.132022 2.781173
v 5.725681 54.132022 2.589188
v 5.915241 54.132022 2.589188
v 6.340168 54.132022 2.589188
v 6.525681 54.132022 2.589188
v 5.725681 54.132022 1.980635
v 5.915241 54.132022 1.980635
v 6.340168 54.132022 1.980635
v 6.525681 54.132022 1.980635
v 5.725681 54.132022 1.781173
v 5.915241 54.132022 1.781173
v 6.340168 54.132022 1.781173
v 6.525681 54.132022 1.781173
v 5.725681 53.932022 1.781173
v 5.915241 53.932022 1.781173
v 6.340168 53.932022 1.781173
v 6.525681 53.932022 1.781173
v 5.725681 53.932022 1.980635
v 5.915241 53.932022 1.980635
v 6.340168 53.932022 1.980635
v 6.525681 53.932022 1.980635
v 5.725681 53.932022 2.589188
v 5.915241 53.932022 2.589188
v 6.340168 53.932022 2.589188
v 6.525681 53.932022 2.589188
v 5.725681 53.065647 1.781173
v 5.915241 53.065647 1.781173
v 5.915241 53.065647 1.980635
v 5.725681 53.065647 1.980635
v 6.340168 53.065647 1.781173
v 6.525681 53.065647 1.781173
v 6.525681 53.065647 1.980635
v 6.340168 53.065647 1.980635
v 5.725681 53.065647 2.589188
v 5.915241 53.065647 2.589188
v 5.915241 53.065647 2.781173
v 5.725681 53.065647 2.781173
v 6.340168 53.065647 2.589188
v 6.525681 53.065647 2.589188
v 6.525681 53.065647 2.781173
v 6.340168 53.065647 2.781173
v 5.725681 55.126837 1.870136
v 5.915241 55.126837 1.870136
v 5.915241 55.126837 1.670674
v 5.725681 55.126837 1.670674
v 6.340168 55.126837 1.870136
v 6.340168 55.126837 1.670674
v 6.525681 55.126837 1.870136
v 6.525681 55.126837 1.670674
vt 0.375000 0.000000
vt 0.458333 0.000000
vt 0.541667 0.000000
vt 0.625000 0.000000
vt 0.375000 0.250000
vt 0.458333 0.250000
vt 0.541667 0.250000
vt 0.625000 0.250000
vt 0.375000 0.333333
vt 0.458333 0.333333
vt 0.541667 0.333333
vt 0.625000 0.333333
vt 0.375000 0.416667
vt 0.458333 0.416667
vt 0.541667 0.416667
vt 0.625000 0.416667
vt 0.375000 0.500000
vt 0.458333 0.500000
vt 0.541667 0.500000
vt 0.625000 0.500000
vt 0.375000 0.750000
vt 0.458333 0.750000
vt 0.541667 0.750000
vt 0.625000 0.750000
vt 0.375000 0.833333
vt 0.458333 0.833333
vt 0.541667 0.833333
vt 0.625000 0.833333
vt 0.375000 0.916667
vt 0.458333 0.916667
vt 0.541667 0.916667
vt 0.625000 0.916667
vt 0.375000 1.000000
vt 0.458333 1.000000
vt 0.541667 1.000000
vt 0.625000 1.000000
vt 0.875000 0.000000
vt 0.791667 0.000000
vt 0.708333 0.000000
vt 0.875000 0.250000
vt 0.791667 0.250000
vt 0.708333 0.250000
vt 0.125000 0.000000
vt 0.208333 0.000000
vt 0.291667 0.000000
vt 0.125000 0.250000
vt 0.208333 0.250000
vt 0.291667 0.250000
vt 0.375000 0.750000
vt 0.458333 0.750000
vt 0.458333 0.833333
vt 0.375000 0.833333
vt 0.541667 0.750000
vt 0.625000 0.750000
vt 0.625000 0.833333
vt 0.541667 0.833333
vt 0.375000 0.916667
vt 0.458333 0.916667
vt 0.458333 1.000000
vt 0.375000 1.000000
vt 0.541667 0.916667
vt 0.625000 0.916667
vt 0.625000 1.000000
vt 0.541667 1.000000
vt 0.375000 0.416667
vt 0.458333 0.416667
vt 0.458333 0.500000
vt 0.375000 0.500000
vt 0.541667 0.416667
vt 0.541667 0.500000
vt 0.625000 0.416667
vt 0.625000 0.500000
vn 0.000000 0.000000 1.000000
vn 0.000000 0.000000 1.000000
vn 0.000000 0.000000 1.000000
vn 0.000000 0.000000 1.000000
vn 0.000000 0.000000 1.000000
vn 0.000000 0.000000 1.000000
vn 0.000000 0.000000 1.000000
vn 0.000000 0.000000 1.000000
vn 0.000000 1.000000 0.000000
vn 0.000000 1.000000 0.000000
vn 0.000000 1.000000 0.000000
vn 0.000000 1.000000 0.000000
vn 0.000000 1.000000 0.000000
vn 0.000000 1.000000 0.000000
vn 0.000000 1.000000 0.000000
vn 0.000000 1.000000 0.000000
vn 0.000000 1.000000 0.000000
vn 0.000000 1.000000 0.000000
vn 0.000000 1.000000 0.000000
vn 0.000000 1.000000 0.000000
vn 0.000000 1.000000 0.000000
vn 0.000000 1.000000 0.000000
vn 0.000000 1.000000 0.000000
vn 0.000000 1.000000 0.000000
vn 0.000000 1.000000 0.000000
vn 0.000000 1.000000 0.000000
vn 0.000000 1.000000 0.000000
vn 0.000000 1.000000 0.000000
vn 0.000000 0.000000 -1.000000
vn 0.000000 0.000000 -1.000000
vn 0.000000 0.000000 -1.000000
vn 0.000000 0.000000 -1.000000
vn 0.000000 0.000000 -1.000000
vn 0.000000 0.000000 -1.000000
vn 0.000000 0.000000 -1.000000
vn 0.000000 0.000000 -1.000000
vn 0.000000 -1.000000 0.000000
vn 0.000000 -1.000000 0.000000
vn 0.000000 -1.000000 0.000000
vn 0.000000 -1.000000 0.000000
vn 0.000000 -1.000000 0.000000
vn 0.000000 -1.000000 0.000000
vn 0.000000 -1.000000 0.000000
vn 0.000000 -1.000000 0.000000
vn 0.000000 -1.000000 0.000000
vn 0.000000 -1.000000 0.000000
vn 0.000000 -1.000000 0.000000
vn 0.000000 -1.000000 0.000000
vn 0.000000 -1.000000 0.000000
vn 0.000000 -1.000000 0.000000
vn 0.000000 -1.000000 0.000000
vn 0.000000 -1.000000 0.000000
vn 0.000000 -1.000000 0.000000
vn 0.000000 -1.000000 0.000000
vn 0.000000 -1.000000 0.000000
vn 0.000000 -1.000000 0.000000
vn 0.000000 -1.000000 0.000000
vn 0.000000 -1.000000 0.000000
vn 0.000000 -1.000000 0.000000
vn 0.000000 -1.000000 0.000000
vn 0.000000 -1.000000 0.000000
vn 0.000000 -1.000000 0.000000
vn 0.000000 -1.000000 0.000000
vn 0.000000 -1.000000 0.000000
vn 1.000000 0.000000 0.000000
vn 1.000000 0.000000 0.000000
vn 1.000000 0.000000 0.000000
vn 1.000000 0.000000 0.000000
vn 1.000000 0.000000 0.000000
vn 1.000000 0.000000 0.000000
vn 1.000000 0.000000 0.000000
vn 1.000000 0.000000 0.000000
vn -1.000000 0.000000 0.000000
vn -1.000000 0.000000 0.000000
vn -1.000000 0.000000 0.000000
vn -1.000000 0.000000 0.000000
vn -1.000000 0.000000 0.000000
vn -1.000000 0.000000 0.000000
vn -1.000000 0.000000 0.000000
vn -1.000000 0.000000 0.000000
vn 0.000000 0.000000 -1.000000
vn 0.000000 0.000000 -1.000000
vn 0.000000 0.000000 -1.000000
vn 0.000000 0.000000 -1.000000
vn 1.000000 0.000000 0.000000
vn 1.000000 0.000000 0.000000
vn 1.000000 0.000000 0.000000
vn 1.000000 0.000000 0.000000
vn 0.000000 0.000000 1.000000
vn 0.000000 0.000000 1.000000
vn 0.000000 0.000000 1.000000
vn 0.000000 0.000000 1.000000
vn -1.000000 0.000000 0.000000
vn -1.000000 0.000000 0.000000
vn -1.000000 0.000000 0.000000
vn -1.000000 0.000000 0.000000
vn 0.000000 0.000000 -1.000000
vn 0.000000 0.000000 -1.000000
vn 0.000000 0.000000 -1.000000
vn 0.000000 0.000000 -1.000000
vn 1.000000 0.000000 0.000000
vn 1.000000 0.000000 0.000000
vn 1.000000 0.000000 0.000000
vn 1.000000 0.000000 0.000000
vn 0.000000 0.000000 1.000000
vn 0.000000 0.000000 1.000000
vn 0.000000 0.000000 1.000000
vn 0.000000 0.000000 1.000000
vn -1.000000 0.000000 0.000000
vn -1.000000 0.000000 0.000000
vn -1.000000 0.000000 0.000000
vn -1.000000 0.000000 0.000000
vn 0.000000 0.000000 -1.000000
vn 0.000000 0.000000 -1.000000
vn 0.000000 0.000000 -1.000000
vn 0.000000 0.000000 -1.000000
vn 1.000000 0.000000 0.000000
vn 1.000000 0.000000 0.000000
vn 1.000000 0.000000 0.000000
vn 1.000000 0.000000 0.000000
vn 0.000000 0.000000 1.000000
vn 0.000000 0.000000 1.000000
vn 0.000000 0.000000 1.000000
vn 0.000000 0.000000 1.000000
vn -1.000000 0.000000 0.000000
vn -1.000000 0.000000 0.000000
vn -1.000000 0.000000 0.000000
vn -1.000000 0.000000 0.000000
vn 0.000000 0.000000 -1.000000
vn 0.000000 0.000000 -1.000000
vn 0.000000 0.000000 -1.000000
vn 0.000000 0.000000 -1.000000
vn 1.000000 0.000000 0.000000
vn 1.000000 0.000000 0.000000
vn 1.000000 0.000000 0.000000
vn 1.000000 0.000000 0.000000
vn 0.000000 0.000000 1.000000
vn 0.000000 0.000000 1.000000
vn 0.000000 0.000000 1.000000
vn 0.000000 0.000000 1.000000
vn -1.000000 0.000000 0.000000
vn -1.000000 0.000000 0.000000
vn -1.000000 0.000000 0.000000
vn -1.000000 0.000000 0.000000
vn 0.000000 0.110396 0.993888
vn 0.000000 0.110396 0.993888
vn 0.000000 0.110396 0.993888
vn 0.000000 0.110396 0.993888
vn 0.000000 -0.110396 -0.993888
vn 0.000000 -0.110396 -0.993888
vn 0.000000 -0.110396 -0.993888
vn 0.000000 -0.110396 -0.993888
vn -1.000000 0.000000 0.000000
vn -1.000000 0.000000 0.000000
vn -1.000000 0.000000 0.000000
vn -1.000000 0.000000 0.000000
vn 0.000000 0.110396 0.993888
vn 0.000000 0.110396 0.993888
vn 0.000000 0.110396 0.993888
vn 0.000000 0.110396 0.993888
vn 0.000000 -0.110396 -0.993888
vn 0.000000 -0.110396 -0.993888
vn 0.000000 -0.110396 -0.993888
vn 0.000000 -0.110396 -0.993888
vn 0.000000 0.110396 0.993888
vn 0.000000 0.110396 0.993888
vn 0.000000 0.110396 0.993888
vn 0.000000 0.110396 0.993888
vn 1.000000 0.000000 0.000000
vn 1.000000 0.000000 0.000000
vn 1.000000 0.000000 0.000000
vn 1.000000 0.000000 0.000000
vn 0.000000 -0.110396 -0.993888
vn 0.000000 -0.110396 -0.993888
vn 0.000000 -0.110396 -0.993888
vn 0.000000 -0.110396 -0.993888
s 1
g Chair_01
usemtl initialShadingGroup
f 1/1/1 2/2/2 6/6/3 5/5/4
f 2/2/2 3/3/5 7/7/6 6/6/3
f 3/3/5 4/4/7 8/8/8 7/7/6
s 2
f 5/5/9 6/6/10 10/10/11 9/9/12
f 6/6/10 7/7/13 11/11/14 10/10/11
f 7/7/13 8/8/15 12/12/16 11/11/14
f 9/9/12 10/10/11 14/14/17 13/13/18
f 10/10/11 11/11/14 15/15/19 14/14/17
f 11/11/14 12/12/16 16/16/20 15/15/19
s 3
f 49/65/21 50/66/22 51/67/23 52/68/24
f 50/66/22 53/69/25 54/70/26 51/67/23
f 53/69/25 55/71/27 56/72/28 54/70/26
s 4
f 17/17/29 18/18/30 22/22/31 21/21/32
f 18/18/30 19/19/33 23/23/34 22/22/31
f 19/19/33 20/20/35 24/24/36 23/23/34
s off
f 33/49/37 34/50/38 35/51/39 36/52/40
s 5
f 22/22/41 23/23/42 27/27/43 26/26/44
s off
f 37/53/45 38/54/46 39/55/47 40/56/48
s 5
f 25/25/49 26/26/44 30/30/50 29/29/51
f 26/26/44 27/27/43 31/31/52 30/30/50
f 27/27/43 28/28/53 32/32/54 31/31/52
s off
f 41/57/55 42/58/56 43/59/57 44/60/58
s 5
f 30/30/50 31/31/52 3/35/59 2/34/60
s off
f 45/61/61 46/62/62 47/63/63 48/64/64
s 6
f 28/38/65 24/37/66 20/40/67 16/41/68
f 32/39/69 28/38/65 16/41/68 12/42/70
f 4/4/71 32/39/69 12/42/70 8/8/72
s 7
f 21/43/73 25/44/74 13/47/75 17/46/76
f 25/44/74 29/45/77 9/48/78 13/47/75
f 29/45/77 1/1/79 5/5/80 9/48/78
s off
f 21/21/81 22/22/82 34/50/83 33/49/84
f 22/22/85 26/26/86 35/51/87 34/50/88
f 26/26/89 25/25/90 36/52/91 35/51/92
f 25/25/93 21/21/94 33/49/95 36/52/96
f 23/23/97 24/24/98 38/54/99 37/53/100
f 24/24/101 28/28/102 39/55/103 38/54/104
f 28/28/105 27/27/106 40/56/107 39/55/108
f 27/27/109 23/23/110 37/53/111 40/56/112
f 29/29/113 30/30/114 42/58/115 41/57/116
f 30/30/117 2/34/118 43/59/119 42/58/120
f 2/34/121 1/33/122 44/60/123 43/59/124
f 1/33/125 29/29/126 41/57/127 44/60/128
f 31/31/129 32/32/130 46/62/131 45/61/132
f 32/32/133 4/36/134 47/63/135 46/62/136
f 4/36/137 3/35/138 48/64/139 47/63/140
f 3/35/141 31/31/142 45/61/143 48/64/144
f 13/13/145 14/14/146 50/66/147 49/65/148
f 18/18/149 17/17/150 52/68/151 51/67/152
f 17/17/153 13/13/154 49/65/155 52/68/156
f 14/14/157 15/15/158 53/69/159 50/66/160
f 19/19/161 18/18/162 51/67/163 54/70/164
f 15/15/165 16/16/166 55/71/167 53/69/168
f 16/16/169 20/20/170 56/72/171 55/71/172
f 20/20/173 19/19/174 54/70/175 56/72/176
