# This file uses centimeters as units for non-parametric coordinates.

mtllib cup_01.mtl
g default
v -3.389127 0.001080 0.171626
v -3.453623 0.001080 0.144911
v -3.518119 0.001080 0.171626
v -3.544834 0.001080 0.236122
v -3.518119 0.001080 0.300619
v -3.453623 0.001080 0.327334
v -3.389127 0.001080 0.300619
v -3.362411 0.001080 0.236122
v -3.379151 0.001080 0.161651
v -3.453623 0.001080 0.130804
v -3.528095 0.001080 0.161651
v -3.558942 0.001080 0.236122
v -3.528095 0.001080 0.310594
v -3.453623 0.001080 0.341442
v -3.379151 0.001080 0.310594
v -3.348304 0.001080 0.236122
v -3.379151 0.028362 0.161651
v -3.453623 0.028362 0.130804
v -3.528095 0.028362 0.161651
v -3.558942 0.028362 0.236122
v -3.528095 0.028362 0.310594
v -3.453623 0.028362 0.341441
v -3.379151 0.028362 0.310594
v -3.348304 0.028362 0.236122
v -3.389127 0.028362 0.171626
v -3.453623 0.028362 0.144911
v -3.518119 0.028362 0.171626
v -3.544834 0.028362 0.236122
v -3.518119 0.028362 0.300619
v -3.453623 0.028362 0.327334
v -3.389127 0.028362 0.300619
v -3.362411 0.028362 0.236122
v -3.453623 0.001080 0.236122
v -3.453623 0.028362 0.236122
v -3.357403 0.166194 0.139903
v -3.453623 0.166194 0.100048
v -3.453623 0.166194 0.118275
v -3.370292 0.166194 0.152792
v -3.549843 0.166194 0.139903
v -3.536954 0.166194 0.152792
v -3.589698 0.166194 0.236122
v -3.571470 0.166194 0.236122
v -3.549843 0.166194 0.332342
v -3.536954 0.166194 0.319454
v -3.453623 0.166194 0.372197
v -3.453623 0.166194 0.353970
v -3.357403 0.166194 0.332342
v -3.370292 0.166194 0.319454
v -3.317548 0.166194 0.236122
v -3.335775 0.166194 0.236122
v -3.357403 0.249164 0.139903
v -3.453623 0.249164 0.100048
v -3.453623 0.249164 0.118275
v -3.370292 0.249164 0.152792
v -3.549843 0.249164 0.139903
v -3.536954 0.249164 0.152792
v -3.589698 0.249164 0.236122
v -3.571470 0.249164 0.236122
v -3.549843 0.249164 0.332342
v -3.536954 0.249164 0.319453
v -3.453623 0.249164 0.372197
v -3.453623 0.249164 0.353970
v -3.357403 0.249164 0.332342
v -3.370292 0.249164 0.319453
v -3.317548 0.249164 0.236122
v -3.335775 0.249164 0.236122
vt 0.555243 0.101007
vt 0.500000 0.078125
vt 0.444757 0.101007
vt 0.421875 0.156250
vt 0.444757 0.211493
vt 0.500000 0.234375
vt 0.555243 0.211493
vt 0.578125 0.156250
vt 0.610485 0.045765
vt 0.500000 0.000000
vt 0.389515 0.045765
vt 0.343750 0.156250
vt 0.389515 0.266735
vt 0.500000 0.312500
vt 0.610485 0.266735
vt 0.656250 0.156250
vt 0.375000 0.312500
vt 0.406250 0.312500
vt 0.437500 0.312500
vt 0.468750 0.312500
vt 0.500000 0.312500
vt 0.531250 0.312500
vt 0.562500 0.312500
vt 0.593750 0.312500
vt 0.625000 0.312500
vt 0.375000 0.688440
vt 0.406250 0.688440
vt 0.437500 0.688440
vt 0.468750 0.688440
vt 0.500000 0.688440
vt 0.531250 0.688440
vt 0.562500 0.688440
vt 0.593750 0.688440
vt 0.625000 0.688440
vt 0.610485 0.733265
vt 0.500000 0.687500
vt 0.389515 0.733265
vt 0.343750 0.843750
vt 0.389515 0.954235
vt 0.500000 1.000000
vt 0.610485 0.954235
vt 0.656250 0.843750
vt 0.555243 0.788507
vt 0.500000 0.765625
vt 0.444757 0.788507
vt 0.421875 0.843750
vt 0.444757 0.898993
vt 0.500000 0.921875
vt 0.555243 0.898993
vt 0.578125 0.843750
vt 0.500000 0.150000
vt 0.500000 0.837500
vt 0.610485 0.954235
vt 0.500000 1.000000
vt 0.500000 0.921875
vt 0.555243 0.898993
vt 0.389515 0.954235
vt 0.444757 0.898993
vt 0.343750 0.843750
vt 0.421875 0.843750
vt 0.389515 0.733265
vt 0.444757 0.788507
vt 0.500000 0.687500
vt 0.500000 0.765625
vt 0.610485 0.733265
vt 0.555243 0.788507
vt 0.656250 0.843750
vt 0.578125 0.843750
vt 0.610485 0.954235
vt 0.500000 1.000000
vt 0.500000 0.921875
vt 0.555243 0.898993
vt 0.389515 0.954235
vt 0.444757 0.898993
vt 0.343750 0.843750
vt 0.421875 0.843750
vt 0.389515 0.733265
vt 0.444757 0.788507
vt 0.500000 0.687500
vt 0.500000 0.765625
vt 0.610485 0.733265
vt 0.555243 0.788507
vt 0.656250 0.843750
vt 0.578125 0.843750
vn 0.000000 -1.000000 -0.000000
vn 0.000000 -1.000000 -0.000000
vn 0.000000 -1.000000 -0.000000
vn 0.000000 -1.000000 -0.000000
vn 0.000000 -1.000000 -0.000000
vn 0.000000 -1.000000 -0.000000
vn 0.000000 -1.000000 -0.000000
vn 0.000000 -1.000000 -0.000000
vn 0.000000 -1.000000 0.000000
vn 0.000000 -1.000000 0.000000
vn 0.000000 -1.000000 0.000000
vn 0.000000 -1.000000 0.000000
vn 0.000000 -1.000000 0.000000
vn 0.000000 -1.000000 0.000000
vn 0.000000 -1.000000 0.000000
vn 0.000000 -1.000000 0.000000
vn 0.382681 0.000002 -0.923881
vn 0.382680 0.000002 -0.923881
vn 0.376817 -0.174394 -0.909723
vn 0.376817 -0.174394 -0.909723
vn -0.382680 0.000002 -0.923881
vn -0.382681 0.000002 -0.923881
vn -0.376817 -0.174394 -0.909723
vn -0.376817 -0.174394 -0.909723
vn -0.923880 0.000001 -0.382681
vn -0.923880 0.000001 -0.382681
vn -0.909723 -0.174394 -0.376817
vn -0.909723 -0.174394 -0.376817
vn -0.923880 0.000001 0.382681
vn -0.923880 0.000001 0.382681
vn -0.909723 -0.174394 0.376817
vn -0.909723 -0.174394 0.376817
vn -0.382681 0.000004 0.923881
vn -0.382681 0.000004 0.923881
vn -0.376817 -0.174394 0.909723
vn -0.376817 -0.174394 0.909723
vn 0.382681 0.000004 0.923881
vn 0.382681 0.000004 0.923881
vn 0.376816 -0.174394 0.909723
vn 0.376816 -0.174394 0.909723
vn 0.923881 0.000001 0.382681
vn 0.923881 0.000001 0.382681
vn 0.909723 -0.174394 0.376816
vn 0.909723 -0.174394 0.376816
vn 0.923880 0.000001 -0.382681
vn 0.923880 0.000001 -0.382681
vn 0.909723 -0.174394 -0.376817
vn 0.909723 -0.174394 -0.376817
vn 0.000000 1.000000 -0.000000
vn 0.000000 1.000000 -0.000000
vn 0.000000 1.000000 -0.000000
vn 0.000000 1.000000 -0.000000
vn 0.000000 1.000000 0.000000
vn 0.000000 1.000000 0.000000
vn 0.000000 1.000000 0.000000
vn 0.000000 1.000000 0.000000
vn 0.000000 1.000000 0.000000
vn 0.000000 1.000000 0.000000
vn 0.000000 1.000000 0.000000
vn 0.000000 1.000000 0.000000
vn 0.000000 1.000000 0.000000
vn 0.000000 1.000000 0.000000
vn 0.000000 1.000000 -0.000000
vn 0.000000 1.000000 -0.000000
vn 0.000000 -1.000000 0.000000
vn 0.000000 1.000000 0.000000
vn 0.000000 1.000000 0.000000
vn 0.000000 1.000000 0.000000
vn 0.000000 1.000000 0.000000
vn 0.000000 1.000000 0.000000
vn 0.000000 1.000000 0.000000
vn 0.000000 1.000000 0.000000
vn 0.000000 1.000000 0.000000
vn 0.000000 1.000000 0.000000
vn 0.379951 -0.119229 -0.917290
vn 0.379951 -0.119229 -0.917290
vn -0.376726 0.175762 0.909497
vn -0.376726 0.175762 0.909497
vn -0.380618 0.103750 0.918894
vn -0.380618 0.103750 0.918894
vn -0.379951 -0.119229 -0.917290
vn -0.379951 -0.119229 -0.917290
vn 0.376726 0.175762 0.909497
vn 0.376726 0.175762 0.909497
vn 0.380618 0.103750 0.918894
vn 0.380618 0.103750 0.918894
vn -0.917290 -0.119229 -0.379951
vn -0.917290 -0.119229 -0.379951
vn 0.909498 0.175762 0.376723
vn 0.909498 0.175762 0.376723
vn 0.918895 0.103751 0.380615
vn 0.918895 0.103751 0.380615
vn -0.917291 -0.119229 0.379951
vn -0.917291 -0.119229 0.379951
vn 0.909499 0.175762 -0.376723
vn 0.909499 0.175762 -0.376723
vn 0.918895 0.103751 -0.380614
vn 0.918895 0.103751 -0.380615
vn -0.379951 -0.119229 0.917290
vn -0.379951 -0.119229 0.917290
vn 0.376724 0.175762 -0.909498
vn 0.376724 0.175762 -0.909498
vn 0.380616 0.103750 -0.918895
vn 0.380616 0.103750 -0.918895
vn 0.379951 -0.119229 0.917291
vn 0.379951 -0.119229 0.917291
vn -0.376724 0.175762 -0.909498
vn -0.376724 0.175762 -0.909498
vn -0.380616 0.103750 -0.918895
vn -0.380616 0.103750 -0.918895
vn 0.917291 -0.119229 0.379951
vn 0.917291 -0.119229 0.379951
vn -0.909498 0.175762 -0.376725
vn -0.909498 0.175762 -0.376725
vn -0.918894 0.103751 -0.380617
vn -0.918894 0.103751 -0.380617
vn 0.917291 -0.119229 -0.379951
vn 0.917291 -0.119229 -0.379951
vn -0.909497 0.175762 0.376726
vn -0.909497 0.175762 0.376726
vn -0.918894 0.103751 0.380618
vn -0.918894 0.103751 0.380618
vn 0.382681 0.000001 -0.923881
vn 0.382681 0.000001 -0.923881
vn -0.382683 -0.000001 0.923880
vn -0.382683 -0.000001 0.923880
vn -0.382681 0.000001 -0.923881
vn -0.382681 0.000001 -0.923881
vn 0.382683 -0.000001 0.923880
vn 0.382683 -0.000001 0.923880
vn -0.923881 0.000000 -0.382680
vn -0.923881 0.000000 -0.382680
vn 0.923881 -0.000000 0.382680
vn 0.923881 -0.000000 0.382680
vn -0.923881 0.000000 0.382680
vn -0.923881 0.000000 0.382680
vn 0.923881 -0.000000 -0.382679
vn 0.923881 -0.000000 -0.382679
vn -0.382681 0.000001 0.923881
vn -0.382681 0.000001 0.923881
vn 0.382681 -0.000001 -0.923881
vn 0.382681 -0.000001 -0.923881
vn 0.382680 0.000001 0.923881
vn 0.382680 0.000001 0.923881
vn -0.382681 -0.000001 -0.923881
vn -0.382681 -0.000001 -0.923881
vn 0.923881 0.000000 0.382680
vn 0.923881 0.000000 0.382680
vn -0.923880 0.000000 -0.382682
vn -0.923880 0.000000 -0.382682
vn 0.923881 0.000000 -0.382680
vn 0.923881 0.000000 -0.382680
vn -0.923880 -0.000000 0.382683
vn -0.923880 -0.000000 0.382683
s 1
g cup
usemtl initialShadingGroup
f 1/1/1 2/2/2 10/10/3 9/9/4
f 2/2/2 3/3/5 11/11/6 10/10/3
f 3/3/5 4/4/7 12/12/8 11/11/6
f 4/4/7 5/5/9 13/13/10 12/12/8
f 5/5/9 6/6/11 14/14/12 13/13/10
f 6/6/11 7/7/13 15/15/14 14/14/12
f 7/7/13 8/8/15 16/16/16 15/15/14
f 8/8/15 1/1/1 9/9/4 16/16/16
s 2
f 9/17/17 10/18/18 18/27/19 17/26/20
s 3
f 10/18/21 11/19/22 19/28/23 18/27/24
s 4
f 11/19/25 12/20/26 20/29/27 19/28/28
s 5
f 12/20/29 13/21/30 21/30/31 20/29/32
s 6
f 13/21/33 14/22/34 22/31/35 21/30/36
s 7
f 14/22/37 15/23/38 23/32/39 22/31/40
s 8
f 15/23/41 16/24/42 24/33/43 23/32/44
s 9
f 16/24/45 9/25/46 17/34/47 24/33/48
s 10
f 51/69/49 52/70/50 53/71/51 54/72/52
f 52/70/50 55/73/53 56/74/54 53/71/51
f 55/73/53 57/75/55 58/76/56 56/74/54
f 57/75/55 59/77/57 60/78/58 58/76/56
f 59/77/57 61/79/59 62/80/60 60/78/58
f 61/79/59 63/81/61 64/82/62 62/80/60
f 63/81/61 65/83/63 66/84/64 64/82/62
f 65/83/63 51/69/49 54/72/52 66/84/64
s 1
f 2/2/2 1/1/1 33/51/65
f 3/3/5 2/2/2 33/51/65
f 4/4/7 3/3/5 33/51/65
f 5/5/9 4/4/7 33/51/65
f 6/6/11 5/5/9 33/51/65
f 7/7/13 6/6/11 33/51/65
f 8/8/15 7/7/13 33/51/65
f 1/1/1 8/8/15 33/51/65
s 11
f 25/49/66 26/48/67 34/52/68
f 26/48/67 27/47/69 34/52/68
f 27/47/69 28/46/70 34/52/68
f 28/46/70 29/45/71 34/52/68
f 29/45/71 30/44/72 34/52/68
f 30/44/72 31/43/73 34/52/68
f 31/43/73 32/50/74 34/52/68
f 32/50/74 25/49/66 34/52/68
s 2
f 17/41/20 18/40/19 36/54/75 35/53/76
s 12
f 26/48/77 25/49/78 38/56/79 37/55/80
s 3
f 18/40/24 19/39/23 39/57/81 36/54/82
s 13
f 27/47/83 26/48/84 37/55/85 40/58/86
s 4
f 19/39/28 20/38/27 41/59/87 39/57/88
s 14
f 28/46/89 27/47/90 40/58/91 42/60/92
s 5
f 20/38/32 21/37/31 43/61/93 41/59/94
s 15
f 29/45/95 28/46/96 42/60/97 44/62/98
s 6
f 21/37/36 22/36/35 45/63/99 43/61/100
s 16
f 30/44/101 29/45/102 44/62/103 46/64/104
s 7
f 22/36/40 23/35/39 47/65/105 45/63/106
s 17
f 31/43/107 30/44/108 46/64/109 48/66/110
s 8
f 23/35/44 24/42/43 49/67/111 47/65/112
s 18
f 32/50/113 31/43/114 48/66/115 50/68/116
s 9
f 24/42/48 17/41/47 35/53/117 49/67/118
s 19
f 25/49/119 32/50/120 50/68/121 38/56/122
s 2
f 35/53/76 36/54/75 52/70/123 51/69/124
s 12
f 37/55/80 38/56/79 54/72/125 53/71/126
s 3
f 36/54/82 39/57/81 55/73/127 52/70/128
s 13
f 40/58/86 37/55/85 53/71/129 56/74/130
s 4
f 39/57/88 41/59/87 57/75/131 55/73/132
s 14
f 42/60/92 40/58/91 56/74/133 58/76/134
s 5
f 41/59/94 43/61/93 59/77/135 57/75/136
s 15
f 44/62/98 42/60/97 58/76/137 60/78/138
s 6
f 43/61/100 45/63/99 61/79/139 59/77/140
s 16
f 46/64/104 44/62/103 60/78/141 62/80/142
s 7
f 45/63/106 47/65/105 63/81/143 61/79/144
s 17
f 48/66/110 46/64/109 62/80/145 64/82/146
s 8
f 47/65/112 49/67/111 65/83/147 63/81/148
s 18
f 50/68/116 48/66/115 64/82/149 66/84/150
s 9
f 49/67/118 35/53/117 51/69/151 65/83/152
s 19
f 38/56/122 50/68/121 66/84/153 54/72/154
