# This file uses centimeters as units for non-parametric coordinates.

mtllib fork_01.mtl
g default
v -3.889084 -0.048397 -0.023785
v -3.868188 -0.048397 -0.023785
v -3.847292 -0.048397 -0.023785
v -3.826396 -0.048397 -0.023785
v -3.805500 -0.048397 -0.023785
v -3.784605 -0.048397 -0.023785
v -3.889084 -0.037680 -0.023785
v -3.868188 -0.037680 -0.023785
v -3.847292 -0.037680 -0.023785
v -3.826396 -0.037680 -0.023785
v -3.805500 -0.037680 -0.023785
v -3.784605 -0.037680 -0.023785
v -3.889084 -0.029591 -0.067668
v -3.868188 -0.029591 -0.067668
v -3.847292 -0.029591 -0.067668
v -3.826396 -0.029591 -0.067668
v -3.805500 -0.029591 -0.067668
v -3.784605 -0.029591 -0.067668
v -3.889084 -0.040309 -0.067668
v -3.868188 -0.040309 -0.067668
v -3.847292 -0.040309 -0.067668
v -3.826396 -0.040309 -0.067668
v -3.805500 -0.040309 -0.067668
v -3.784605 -0.040309 -0.067668
v -3.868673 -0.011451 0.098892
v -3.862595 -0.011451 0.098892
v -3.862595 -0.007174 0.098892
v -3.868673 -0.007174 0.098892
v -3.840043 -0.011451 0.098892
v -3.833646 -0.011451 0.098892
v -3.833646 -0.007174 0.098892
v -3.840043 -0.007174 0.098892
v -3.811093 -0.011451 0.098892
v -3.805016 -0.011451 0.098892
v -3.805016 -0.007174 0.098892
v -3.811093 -0.007174 0.098892
v -3.877475 -0.009571 -0.097648
v -3.854120 -0.003954 -0.112448
v -3.854120 -0.014671 -0.112448
v -3.877475 -0.020289 -0.097648
v -3.842603 -0.003954 -0.112448
v -3.842603 -0.014671 -0.112448
v -3.831086 -0.003954 -0.112448
v -3.831086 -0.014671 -0.112448
v -3.819568 -0.003954 -0.112448
v -3.819568 -0.014671 -0.112448
v -3.796213 -0.009571 -0.097648
v -3.796213 -0.020289 -0.097648
v -3.854216 -0.006517 -0.214521
v -3.857431 -0.014868 -0.349953
v -3.861223 -0.024898 -0.512525
v -3.842635 -0.006517 -0.214521
v -3.843706 -0.014868 -0.349953
v -3.844970 -0.024898 -0.512525
v -3.842635 -0.017234 -0.214521
v -3.843706 -0.025585 -0.349953
v -3.844970 -0.035615 -0.512525
v -3.854216 -0.017234 -0.214521
v -3.857431 -0.025585 -0.349953
v -3.861223 -0.035615 -0.512525
v -3.831054 -0.006517 -0.214521
v -3.829982 -0.014868 -0.349953
v -3.828718 -0.024898 -0.512525
v -3.831054 -0.017234 -0.214521
v -3.829982 -0.025585 -0.349953
v -3.828718 -0.035615 -0.512525
v -3.819472 -0.006517 -0.214521
v -3.816258 -0.014868 -0.349953
v -3.812465 -0.024898 -0.512525
v -3.819472 -0.017234 -0.214521
v -3.816258 -0.025585 -0.349953
v -3.812465 -0.035615 -0.512525
vt 0.375000 0.000000
vt 0.425000 0.000000
vt 0.475000 0.000000
vt 0.525000 0.000000
vt 0.575000 0.000000
vt 0.625000 0.000000
vt 0.375000 0.250000
vt 0.425000 0.250000
vt 0.475000 0.250000
vt 0.525000 0.250000
vt 0.575000 0.250000
vt 0.625000 0.250000
vt 0.375000 0.500000
vt 0.425000 0.500000
vt 0.475000 0.500000
vt 0.525000 0.500000
vt 0.575000 0.500000
vt 0.625000 0.500000
vt 0.375000 0.750000
vt 0.425000 0.750000
vt 0.475000 0.750000
vt 0.525000 0.750000
vt 0.575000 0.750000
vt 0.625000 0.750000
vt 0.375000 1.000000
vt 0.425000 1.000000
vt 0.475000 1.000000
vt 0.525000 1.000000
vt 0.575000 1.000000
vt 0.625000 1.000000
vt 0.875000 0.000000
vt 0.875000 0.250000
vt 0.125000 0.000000
vt 0.125000 0.250000
vt 0.375000 0.000000
vt 0.425000 0.000000
vt 0.425000 0.250000
vt 0.375000 0.250000
vt 0.475000 0.000000
vt 0.525000 0.000000
vt 0.525000 0.250000
vt 0.475000 0.250000
vt 0.575000 0.000000
vt 0.625000 0.000000
vt 0.625000 0.250000
vt 0.575000 0.250000
vt 0.375000 0.500000
vt 0.425000 0.500000
vt 0.425000 0.750000
vt 0.375000 0.750000
vt 0.475000 0.500000
vt 0.475000 0.750000
vt 0.525000 0.500000
vt 0.525000 0.750000
vt 0.575000 0.500000
vt 0.575000 0.750000
vt 0.625000 0.500000
vt 0.625000 0.750000
vt 0.425000 0.500000
vt 0.425000 0.500000
vt 0.425000 0.500000
vt 0.475000 0.500000
vt 0.475000 0.500000
vt 0.475000 0.500000
vt 0.475000 0.750000
vt 0.475000 0.750000
vt 0.475000 0.750000
vt 0.425000 0.750000
vt 0.425000 0.750000
vt 0.425000 0.750000
vt 0.525000 0.500000
vt 0.525000 0.500000
vt 0.525000 0.500000
vt 0.525000 0.750000
vt 0.525000 0.750000
vt 0.525000 0.750000
vt 0.575000 0.500000
vt 0.575000 0.500000
vt 0.575000 0.500000
vt 0.575000 0.750000
vt 0.575000 0.750000
vt 0.575000 0.750000
vn 0.000000 0.000000 1.000000
vn 0.000000 0.000000 1.000000
vn 0.000000 0.000000 1.000000
vn 0.000000 0.000000 1.000000
vn 0.000000 0.000000 1.000000
vn 0.000000 0.000000 1.000000
vn 0.000000 0.000000 1.000000
vn 0.000000 0.000000 1.000000
vn 0.000000 0.000000 1.000000
vn 0.000000 0.000000 1.000000
vn 0.000000 0.000000 1.000000
vn 0.000000 0.000000 1.000000
vn 0.000000 0.000000 1.000000
vn 0.000000 0.000000 1.000000
vn 0.000000 0.000000 1.000000
vn 0.000000 0.000000 1.000000
vn 0.000000 0.000000 1.000000
vn 0.000000 0.000000 1.000000
vn 0.000000 0.000000 1.000000
vn 0.000000 0.000000 1.000000
vn 0.000000 0.995965 -0.089739
vn 0.000000 0.999753 -0.022235
vn 0.018844 0.937098 0.348557
vn 0.035424 0.933378 0.357143
vn 0.000000 0.999785 -0.020728
vn 0.000000 0.942136 0.335232
vn 0.000000 0.999785 -0.020728
vn 0.000000 0.942136 0.335232
vn 0.000000 0.999753 -0.022235
vn -0.018844 0.937098 0.348556
vn 0.000000 0.995965 -0.089739
vn -0.035424 0.933378 0.357143
vn -0.535269 0.000000 -0.844682
vn -0.535269 0.000000 -0.844682
vn -0.535269 0.000000 -0.844682
vn -0.535269 0.000000 -0.844682
vn 0.000000 0.000000 -1.000000
vn 0.000000 0.000000 -1.000000
vn 0.000000 0.000000 -1.000000
vn 0.000000 0.000000 -1.000000
vn 0.000000 0.000000 -1.000000
vn 0.000000 0.000000 -1.000000
vn 0.000000 0.000000 -1.000000
vn 0.000000 0.000000 -1.000000
vn 0.535270 0.000000 -0.844681
vn 0.535270 0.000000 -0.844681
vn 0.535270 0.000000 -0.844681
vn 0.535270 0.000000 -0.844681
vn -0.035424 -0.933378 -0.357143
vn -0.018844 -0.937098 -0.348557
vn 0.000000 -0.998894 0.047021
vn 0.000000 -0.992384 0.123180
vn 0.000000 -0.942136 -0.335232
vn 0.000000 -0.998949 0.045826
vn 0.000000 -0.942136 -0.335232
vn 0.000000 -0.998949 0.045826
vn 0.018844 -0.937099 -0.348556
vn 0.000000 -0.998894 0.047021
vn 0.035424 -0.933378 -0.357142
vn 0.000000 -0.992384 0.123180
vn 0.995685 0.000000 0.092801
vn 0.999896 0.000000 -0.014430
vn 0.953878 0.000000 -0.300195
vn 0.993840 0.000000 0.110822
vn -0.999896 0.000000 -0.014430
vn -0.995685 0.000000 0.092801
vn -0.993840 0.000000 0.110822
vn -0.953878 0.000000 -0.300194
vn 0.000000 -0.957519 0.288371
vn 0.000000 -0.957519 0.288371
vn 0.998962 0.000000 -0.045544
vn 0.998962 0.000000 -0.045544
vn 0.998962 0.000000 -0.045544
vn 0.998962 0.000000 -0.045544
vn 0.000000 0.970446 -0.241318
vn 0.000000 0.970446 -0.241318
vn -0.986440 0.000000 0.164123
vn -0.986440 0.000000 0.164123
vn 0.000000 -0.957519 0.288370
vn 0.000000 -0.957519 0.288370
vn 0.998259 0.000000 0.058990
vn 0.998259 0.000000 0.058990
vn 0.998259 0.000000 0.058990
vn 0.998259 0.000000 0.058990
vn 0.000000 0.970446 -0.241317
vn 0.000000 0.970446 -0.241317
vn -0.998259 0.000000 0.058987
vn -0.998259 0.000000 0.058987
vn -0.998259 0.000000 0.058987
vn -0.998259 0.000000 0.058987
vn 0.000000 -0.957519 0.288371
vn 0.000000 -0.957519 0.288370
vn 0.986440 0.000000 0.164123
vn 0.986440 0.000000 0.164123
vn 0.000000 0.970446 -0.241318
vn 0.000000 0.970446 -0.241318
vn -0.998962 0.000000 -0.045544
vn -0.998962 0.000000 -0.045544
vn -0.998962 0.000000 -0.045544
vn -0.998962 0.000000 -0.045544
vn 0.006541 0.972188 0.234112
vn 0.073343 0.839732 0.538026
vn -0.073343 -0.839732 -0.538025
vn -0.006541 -0.972188 -0.234112
vn -0.932531 0.000000 -0.361089
vn -0.932531 0.000000 -0.361089
vn 0.000000 0.980085 0.198577
vn 0.000000 -0.980085 -0.198577
vn 0.000000 0.980085 0.198577
vn 0.000000 -0.980085 -0.198577
vn -0.006541 0.972188 0.234112
vn 0.006541 -0.972188 -0.234112
vn -0.073343 0.839732 0.538025
vn 0.932531 0.000000 -0.361089
vn 0.932531 0.000000 -0.361089
vn 0.073343 -0.839733 -0.538024
vn 0.000000 0.998908 -0.046712
vn 0.000000 0.998903 -0.046839
vn 0.000000 0.998103 -0.061566
vn 0.000000 0.998103 -0.061566
vn 0.000000 0.998102 -0.061581
vn 0.000000 0.998102 -0.061580
vn 0.000000 -0.998903 0.046839
vn 0.000000 -0.998908 0.046713
vn 0.000000 -0.998103 0.061566
vn 0.000000 -0.998103 0.061566
vn 0.000000 -0.998102 0.061580
vn 0.000000 -0.998102 0.061581
vn -0.999999 0.000000 0.000944
vn -0.999999 0.000000 0.000944
vn -0.999945 0.000000 0.010455
vn -0.999863 0.000000 0.016568
vn -0.999722 0.000000 0.023583
vn -0.999725 0.000000 0.023433
vn -0.999728 0.000000 0.023320
vn -0.999728 0.000000 0.023320
vn 0.000000 0.998908 -0.046712
vn 0.000000 0.998103 -0.061566
vn 0.000000 0.998102 -0.061580
vn 0.000000 -0.998908 0.046712
vn 0.000000 -0.998103 0.061566
vn 0.000000 -0.998102 0.061580
vn 0.000000 0.998902 -0.046838
vn 0.000000 0.998103 -0.061566
vn 0.000000 0.998102 -0.061580
vn 0.999999 0.000000 0.000944
vn 0.999999 0.000000 0.000944
vn 0.999863 0.000000 0.016568
vn 0.999945 0.000000 0.010455
vn 0.999725 0.000000 0.023433
vn 0.999722 0.000000 0.023583
vn 0.999728 0.000000 0.023320
vn 0.999728 0.000000 0.023320
vn 0.000000 -0.998902 0.046838
vn 0.000000 -0.998103 0.061566
vn 0.000000 -0.998102 0.061580
s off
g fork
usemtl initialShadingGroup
f 25/35/1 26/36/2 27/37/3 28/38/4
f 2/2/5 3/3/6 9/9/7 8/8/8
f 29/39/9 30/40/10 31/41/11 32/42/12
f 4/4/13 5/5/14 11/11/15 10/10/16
f 33/43/17 34/44/18 35/45/19 36/46/20
s 1
f 7/7/21 8/8/22 14/14/23 13/13/24
f 8/8/22 9/9/25 15/15/26 14/14/23
f 9/9/25 10/10/27 16/16/28 15/15/26
f 10/10/27 11/11/29 17/17/30 16/16/28
f 11/11/29 12/12/31 18/18/32 17/17/30
s off
f 37/47/33 38/48/34 39/49/35 40/50/36
s 2
f 51/61/37 54/64/38 57/67/39 60/70/40
f 54/64/38 63/73/41 66/76/42 57/67/39
f 63/73/41 69/79/43 72/82/44 66/76/42
s off
f 45/55/45 47/57/46 48/58/47 46/56/48
s 3
f 19/19/49 20/20/50 2/26/51 1/25/52
f 20/20/50 21/21/53 3/27/54 2/26/51
f 21/21/53 22/22/55 4/28/56 3/27/54
f 22/22/55 23/23/57 5/29/58 4/28/56
f 23/23/57 24/24/59 6/30/60 5/29/58
s 4
f 6/6/61 24/31/62 18/32/63 12/12/64
s 5
f 19/33/65 1/1/66 7/7/67 13/34/68
s 3
f 1/1/52 2/2/51 26/36/69 25/35/70
s off
f 2/2/71 8/8/72 27/37/73 26/36/74
s 1
f 8/8/22 7/7/21 28/38/75 27/37/76
s 5
f 7/7/67 1/1/66 25/35/77 28/38/78
s 3
f 3/3/54 4/4/56 30/40/79 29/39/80
s off
f 4/4/81 10/10/82 31/41/83 30/40/84
s 1
f 10/10/27 9/9/25 32/42/85 31/41/86
s off
f 9/9/87 3/3/88 29/39/89 32/42/90
s 3
f 5/5/58 6/6/60 34/44/91 33/43/92
s 4
f 6/6/61 12/12/64 35/45/93 34/44/94
s 1
f 12/12/31 11/11/29 36/46/95 35/45/96
s off
f 11/11/97 5/5/98 33/43/99 36/46/100
s 1
f 13/13/24 14/14/23 38/48/101 37/47/102
s 3
f 20/20/50 19/19/49 40/50/103 39/49/104
s 5
f 19/19/65 13/13/68 37/47/105 40/50/106
s 1
f 14/14/23 15/15/26 41/51/107 38/48/101
s 3
f 21/21/53 20/20/50 39/49/104 42/52/108
s 1
f 15/15/26 16/16/28 43/53/109 41/51/107
s 3
f 22/22/55 21/21/53 42/52/108 44/54/110
s 1
f 16/16/28 17/17/30 45/55/111 43/53/109
s 3
f 23/23/57 22/22/55 44/54/110 46/56/112
s 1
f 17/17/30 18/18/32 47/57/113 45/55/111
s 4
f 18/18/63 24/24/62 48/58/114 47/57/115
s 3
f 24/24/59 23/23/57 46/56/112 48/58/116
s 1
f 38/48/101 41/51/107 52/62/117 49/59/118
f 49/59/118 52/62/117 53/63/119 50/60/120
f 50/60/120 53/63/119 54/64/121 51/61/122
s 3
f 42/52/108 39/49/104 58/68/123 55/65/124
f 55/65/124 58/68/123 59/69/125 56/66/126
f 56/66/126 59/69/125 60/70/127 57/67/128
s 6
f 39/49/129 38/48/130 49/59/131 58/68/132
f 58/68/132 49/59/131 50/60/133 59/69/134
f 59/69/134 50/60/133 51/61/135 60/70/136
s 1
f 41/51/107 43/53/109 61/71/137 52/62/117
f 52/62/117 61/71/137 62/72/138 53/63/119
f 53/63/119 62/72/138 63/73/139 54/64/121
s 3
f 44/54/110 42/52/108 55/65/124 64/74/140
f 64/74/140 55/65/124 56/66/126 65/75/141
f 65/75/141 56/66/126 57/67/128 66/76/142
s 1
f 43/53/109 45/55/111 67/77/143 61/71/137
f 61/71/137 67/77/143 68/78/144 62/72/138
f 62/72/138 68/78/144 69/79/145 63/73/139
s 7
f 45/55/146 46/56/147 70/80/148 67/77/149
f 67/77/149 70/80/148 71/81/150 68/78/151
f 68/78/151 71/81/150 72/82/152 69/79/153
s 3
f 46/56/112 44/54/110 64/74/140 70/80/154
f 70/80/154 64/74/140 65/75/141 71/81/155
f 71/81/155 65/75/141 66/76/142 72/82/156
