# This file uses centimeters as units for non-parametric coordinates.

mtllib key_2.mtl
g default
v 2.120900 0.612199 1.211701
v 2.573392 0.612199 1.211701
v 2.120900 0.587067 1.211701
v 2.573392 0.587067 1.211701
v 2.519214 0.612199 1.185322
v 2.519214 0.587067 1.185322
v 2.362585 0.612199 1.168721
v 2.362585 0.587067 1.168721
v 2.362585 0.587067 1.808196
v 2.362585 0.612199 1.808196
v 2.196909 0.612199 1.185322
v 2.196909 0.587067 1.185322
v 2.272138 0.612199 1.175638
v 2.272138 0.587067 1.175638
v 2.272138 0.587067 1.808196
v 2.272138 0.612199 1.808196
v 2.444864 0.612199 1.175638
v 2.444864 0.587067 1.175638
v 2.581463 0.612199 1.309503
v 2.519214 0.612199 1.266011
v 2.444864 0.612199 1.246549
v 2.362585 0.612199 1.237187
v 2.272138 0.612199 1.246549
v 2.196909 0.612199 1.266011
v 2.112829 0.612199 1.309503
v 2.112829 0.587067 1.309503
v 2.196909 0.587067 1.266011
v 2.272138 0.587067 1.246549
v 2.362585 0.587067 1.237187
v 2.444864 0.587067 1.246549
v 2.519214 0.587067 1.266011
v 2.581463 0.587067 1.309503
v 2.581463 0.612199 1.372962
v 2.519214 0.612199 1.407926
v 2.444864 0.612199 1.412536
v 2.362585 0.612199 1.418662
v 2.272138 0.612199 1.412536
v 2.196909 0.612199 1.407926
v 2.112829 0.612199 1.372962
v 2.112829 0.587067 1.372962
v 2.196909 0.587067 1.407926
v 2.272138 0.587067 1.412536
v 2.362585 0.587067 1.418662
v 2.444864 0.587067 1.412536
v 2.519214 0.587067 1.407926
v 2.581463 0.587067 1.372962
v 2.461294 0.612199 1.604597
v 2.362585 0.612199 1.604597
v 2.362585 0.587067 1.604597
v 2.461294 0.587067 1.604597
v 2.427068 0.612199 1.777268
v 2.362585 0.612199 1.777268
v 2.362585 0.587067 1.777268
v 2.427068 0.587067 1.777268
v 2.120900 0.612199 1.449904
v 2.120900 0.587067 1.449904
v 2.196909 0.587067 1.484867
v 2.272138 0.587067 1.504145
v 2.362585 0.587067 1.505382
v 2.444864 0.587067 1.504145
v 2.519214 0.587067 1.484867
v 2.573392 0.587067 1.449904
v 2.573392 0.612199 1.449904
v 2.519214 0.612199 1.484867
v 2.444864 0.612199 1.504145
v 2.362585 0.612199 1.505382
v 2.272138 0.612199 1.504145
v 2.196909 0.612199 1.484867
v 2.382929 0.605353 1.604597
v 2.382929 0.605353 1.777268
v 2.382929 0.593913 1.777268
v 2.382929 0.593913 1.604597
v 2.461294 0.612199 1.624484
v 2.382929 0.605353 1.624484
v 2.382929 0.593913 1.624484
v 2.461294 0.587067 1.624484
v 2.438811 0.612199 1.658570
v 2.382929 0.605353 1.658570
v 2.382929 0.593913 1.658570
v 2.438811 0.587067 1.658570
v 2.480851 0.612199 1.696065
v 2.382929 0.605353 1.696065
v 2.382929 0.593913 1.696065
v 2.480851 0.587067 1.696065
v 2.478476 0.612199 1.732423
v 2.382929 0.605353 1.732423
v 2.382929 0.593913 1.732423
v 2.478476 0.587067 1.732423
v 2.427068 0.612199 1.759693
v 2.382929 0.605353 1.759693
v 2.382929 0.593913 1.759693
v 2.427068 0.587067 1.759693
vt 0.375000 0.500000
vt 0.625000 0.500000
vt 0.375000 0.750000
vt 0.625000 0.750000
vt 0.875000 0.000000
vt 0.875000 0.250000
vt 0.125000 0.000000
vt 0.125000 0.250000
vt 0.591792 0.500000
vt 0.591792 0.750000
vt 0.530875 0.500000
vt 0.530875 0.750000
vt 0.530875 0.500000
vt 0.530875 0.250000
vt 0.419854 0.500000
vt 0.419854 0.750000
vt 0.476965 0.500000
vt 0.476965 0.750000
vt 0.476965 0.500000
vt 0.476965 0.250000
vt 0.560618 0.500000
vt 0.560618 0.750000
vt 0.625000 0.475263
vt 0.850263 0.250000
vt 0.591792 0.475263
vt 0.560618 0.475263
vt 0.530875 0.475263
vt 0.476965 0.475263
vt 0.419854 0.475263
vt 0.149737 0.250000
vt 0.375000 0.475263
vt 0.149737 0.000000
vt 0.375000 0.774737
vt 0.419854 0.774737
vt 0.476965 0.774737
vt 0.530875 0.774737
vt 0.560618 0.774737
vt 0.591792 0.774737
vt 0.625000 0.774737
vt 0.850263 0.000000
vt 0.625000 0.413634
vt 0.788634 0.250000
vt 0.591792 0.413634
vt 0.560618 0.413634
vt 0.530875 0.413634
vt 0.476965 0.413634
vt 0.419854 0.413634
vt 0.211366 0.250000
vt 0.375000 0.413634
vt 0.211366 0.000000
vt 0.375000 0.836366
vt 0.419854 0.836366
vt 0.476965 0.836366
vt 0.530875 0.836366
vt 0.560618 0.836366
vt 0.591792 0.836366
vt 0.625000 0.836366
vt 0.788634 0.000000
vt 0.560618 0.330403
vt 0.530875 0.330403
vt 0.530875 0.919597
vt 0.560618 0.919597
vt 0.560618 0.271472
vt 0.530875 0.271472
vt 0.530875 0.978528
vt 0.560618 0.978528
vt 0.304977 0.320023
vt 0.304977 0.429977
vt 0.419854 0.859953
vt 0.476965 0.859953
vt 0.530875 0.859953
vt 0.560618 0.859953
vt 0.591792 0.859953
vt 0.695023 0.429977
vt 0.695023 0.320023
vt 0.591792 0.390047
vt 0.560618 0.390047
vt 0.530875 0.390047
vt 0.476965 0.390047
vt 0.419854 0.390047
vt 0.539982 0.330403
vt 0.539982 0.271472
vt 0.539982 0.978528
vt 0.539982 0.919597
vt 0.560618 0.318311
vt 0.539982 0.318311
vt 0.539982 0.931689
vt 0.560618 0.931689
vt 0.560618 0.307861
vt 0.539982 0.307861
vt 0.539982 0.942139
vt 0.560618 0.942139
vt 0.560618 0.296366
vt 0.539982 0.296366
vt 0.539982 0.953633
vt 0.560618 0.953633
vt 0.560618 0.285220
vt 0.539982 0.285220
vt 0.539982 0.964780
vt 0.560618 0.964780
vt 0.560618 0.276860
vt 0.539982 0.276860
vt 0.539982 0.973140
vt 0.560618 0.973140
vn -0.327873 0.000000 -0.944722
vn -0.231948 0.000000 -0.972728
vn -0.231948 0.000000 -0.972728
vn -0.327873 0.000000 -0.944722
vn 0.270151 0.000000 -0.962818
vn 0.437773 0.000000 -0.899086
vn 0.437773 0.000000 -0.899086
vn 0.270151 0.000000 -0.962818
vn 0.000000 0.000000 -1.000000
vn 0.105397 0.000000 -0.994430
vn 0.105397 0.000000 -0.994430
vn 0.000000 0.000000 -1.000000
vn -0.099701 0.000000 -0.995017
vn -0.099701 0.000000 -0.995017
vn 0.020239 -0.999795 0.000000
vn 0.020239 -0.999795 0.000000
vn 0.000000 -1.000000 0.000000
vn 0.000000 -1.000000 0.000000
vn 0.000000 -1.000000 0.000000
vn 0.000000 -1.000000 0.000000
vn 0.000000 0.000000 1.000000
vn 0.000000 0.000000 1.000000
vn 0.000000 0.000000 1.000000
vn 0.000000 0.000000 1.000000
vn 0.000000 1.000000 0.000000
vn 0.000000 1.000000 0.000000
vn 0.020239 0.999795 0.000000
vn 0.020239 0.999795 0.000000
vn 0.000000 1.000000 0.000000
vn 0.000000 1.000000 0.000000
vn 0.000000 1.000000 0.000000
vn 0.000000 1.000000 0.000000
vn 0.000000 1.000000 0.000000
vn 0.000000 1.000000 0.000000
vn 0.000000 1.000000 0.000000
vn 0.000000 1.000000 0.000000
vn 0.000000 1.000000 0.000000
vn 0.000000 1.000000 0.000000
vn 0.000000 1.000000 0.000000
vn 0.000000 1.000000 0.000000
vn 0.000000 1.000000 0.000000
vn 0.000000 1.000000 0.000000
vn 0.000000 1.000000 0.000000
vn 0.000000 1.000000 0.000000
vn -0.996612 0.000000 -0.082245
vn -0.998750 0.000000 -0.049987
vn -0.998750 0.000000 -0.049987
vn -0.996612 0.000000 -0.082245
vn 0.000000 -1.000000 0.000000
vn 0.000000 -1.000000 0.000000
vn 0.000000 -1.000000 0.000000
vn 0.000000 -1.000000 0.000000
vn 0.000000 -1.000000 0.000000
vn 0.000000 -1.000000 0.000000
vn 0.000000 -1.000000 0.000000
vn 0.000000 -1.000000 0.000000
vn 0.000000 -1.000000 0.000000
vn 0.000000 -1.000000 0.000000
vn 0.000000 -1.000000 0.000000
vn 0.000000 -1.000000 0.000000
vn 0.000000 -1.000000 0.000000
vn 0.000000 -1.000000 0.000000
vn 0.998750 0.000000 -0.049987
vn 0.998750 0.000000 -0.049987
vn 0.996612 0.000000 -0.082245
vn 0.996612 0.000000 -0.082245
vn 0.000000 1.000000 0.000000
vn 0.000000 1.000000 0.000000
vn 0.000000 1.000000 0.000000
vn 0.000000 1.000000 0.000000
vn -0.998352 0.000000 0.057391
vn -0.998352 0.000000 0.057391
vn 0.000000 -1.000000 0.000000
vn 0.000000 -1.000000 0.000000
vn 0.000000 -1.000000 0.000000
vn 0.000000 -1.000000 0.000000
vn 0.998352 0.000000 0.057391
vn 0.998352 0.000000 0.057391
vn 0.207332 0.978110 -0.017735
vn 0.240347 0.970687 -0.000000
vn -0.153285 0.988182 -0.000000
vn -0.111510 0.991405 -0.068428
vn -0.153285 -0.988182 0.000000
vn 0.240347 -0.970687 0.000000
vn 0.207332 -0.978110 -0.017735
vn -0.111510 -0.991405 -0.068428
vn 1.000000 0.000000 0.000000
vn 1.000000 0.000000 0.000000
vn 1.000000 0.000000 0.000000
vn 1.000000 0.000000 0.000000
vn 0.061159 0.000000 -0.998128
vn 0.061159 0.000000 -0.998128
vn 0.061159 0.000000 -0.998128
vn 0.061159 0.000000 -0.998128
vn 0.067578 0.000000 -0.997714
vn 0.067578 0.000000 -0.997714
vn 0.067578 0.000000 -0.997714
vn 0.067578 0.000000 -0.997714
vn -0.074251 0.000000 -0.997240
vn -0.074251 0.000000 -0.997240
vn -0.074251 0.000000 -0.997240
vn -0.074251 0.000000 -0.997240
vn -0.061879 0.000000 -0.998084
vn -0.061879 0.000000 -0.998084
vn -0.061879 0.000000 -0.998084
vn -0.061879 0.000000 -0.998084
vn -1.000000 0.000000 0.000000
vn -1.000000 0.000000 0.000000
vn -1.000000 0.000000 0.000000
vn -1.000000 0.000000 0.000000
vn -0.253234 0.000000 0.967405
vn -0.253234 0.000000 0.967405
vn -0.253234 0.000000 0.967405
vn -0.253234 0.000000 0.967405
vn -0.113049 0.000000 0.993589
vn -0.113049 0.000000 0.993589
vn -0.113049 0.000000 0.993589
vn -0.113049 0.000000 0.993589
vn 0.102955 0.000000 0.994686
vn 0.102955 0.000000 0.994686
vn 0.102955 0.000000 0.994686
vn 0.102955 0.000000 0.994686
vn 0.250463 0.000000 0.968126
vn 0.250463 0.000000 0.968126
vn 0.250463 0.000000 0.968126
vn 0.250463 0.000000 0.968126
vn -0.994543 0.000000 0.104326
vn -0.994543 0.000000 0.104326
vn 0.000000 -1.000000 0.000000
vn 0.000000 -1.000000 0.000000
vn 0.000000 -1.000000 0.000000
vn 0.000000 -1.000000 0.000000
vn 0.000000 -1.000000 0.000000
vn 0.000000 -1.000000 0.000000
vn 0.000000 -1.000000 0.000000
vn 0.000000 -1.000000 0.000000
vn 0.994543 0.000000 0.104326
vn 0.994543 0.000000 0.104326
vn 0.000000 1.000000 0.000000
vn 0.000000 1.000000 0.000000
vn 0.000000 1.000000 0.000000
vn 0.000000 1.000000 0.000000
vn 0.000000 1.000000 0.000000
vn 0.000000 1.000000 0.000000
vn 0.000000 1.000000 0.000000
vn 0.000000 1.000000 0.000000
vn 1.000000 0.000000 0.000000
vn 1.000000 0.000000 0.000000
vn 1.000000 0.000000 0.000000
vn 1.000000 0.000000 0.000000
vn 0.000000 0.000000 1.000000
vn 0.000000 0.000000 1.000000
vn 0.000000 0.000000 1.000000
vn 0.000000 0.000000 1.000000
vn 1.000000 0.000000 0.000000
vn 0.657369 0.000000 0.753569
vn 0.657369 0.000000 0.753569
vn 1.000000 0.000000 0.000000
vn 1.000000 0.000000 0.000000
vn 1.000000 0.000000 0.000000
vn 1.000000 0.000000 0.000000
vn 1.000000 0.000000 0.000000
vn 0.015036 0.000000 0.999887
vn 0.015036 0.000000 0.999887
vn 0.015036 0.000000 0.999887
vn 0.015036 0.000000 0.999887
vn 0.250980 0.000000 0.967992
vn 0.250980 0.000000 0.967992
vn 0.250980 0.000000 0.967992
vn 0.250980 0.000000 0.967992
vn 0.542242 0.000000 0.840222
vn 0.542242 0.000000 0.840222
vn 0.542242 0.000000 0.840222
vn 0.542242 0.000000 0.840222
vn 0.000000 0.000000 -1.000000
vn 0.000000 0.000000 -1.000000
vn 0.000000 0.000000 -1.000000
vn 0.000000 0.000000 -1.000000
vn -0.417902 0.000000 0.908492
vn -0.417902 0.000000 0.908492
vn -0.417902 0.000000 0.908492
vn -0.417902 0.000000 0.908492
vn -0.248230 0.000000 0.968701
vn -0.248230 0.000000 0.968701
vn -0.248230 0.000000 0.968701
vn -0.248230 0.000000 0.968701
vn -1.000000 0.000000 0.000000
vn -1.000000 0.000000 0.000000
vn -1.000000 0.000000 0.000000
vn -1.000000 0.000000 0.000000
vn 0.153103 0.988102 -0.014617
vn 0.137130 0.990502 0.010017
vn 0.151887 0.988383 0.005425
vn 0.180473 0.983555 -0.006963
vn 0.202022 0.979381 0.000000
vn 0.000000 0.000000 1.000000
vn 0.000000 0.000000 1.000000
vn 0.180473 -0.983555 -0.006963
vn 0.151887 -0.988383 0.005425
vn 0.137130 -0.990502 0.010017
vn 0.153103 -0.988102 -0.014617
vn 0.202022 -0.979381 0.000000
vn 0.000000 0.000000 -1.000000
vn 0.000000 0.000000 -1.000000
vn -0.094559 0.995366 -0.017457
vn -0.087039 0.996205 0.000000
vn -0.094559 -0.995366 -0.017457
vn -0.087039 -0.996205 0.000000
vn 0.923114 0.000000 0.384526
vn 0.923114 0.000000 0.384526
vn 1.000000 0.000000 0.000000
vn 1.000000 0.000000 0.000000
vn -0.094244 0.995458 0.013508
vn -0.094244 -0.995458 0.013508
vn 0.964643 0.000000 -0.263558
vn 0.964643 0.000000 -0.263558
vn -0.076979 0.996903 0.016060
vn -0.076979 -0.996903 0.016060
vn 0.880982 0.000000 -0.473149
vn 0.880982 0.000000 -0.473149
vn -0.077093 0.996736 -0.023940
vn -0.077093 -0.996736 -0.023940
vn 0.763719 0.000000 0.645549
vn 0.763719 0.000000 0.645549
s 1
g key_2
usemtl initialShadingGroup
f 1/1/1 11/15/2 12/16/3 3/3/4
f 5/9/5 2/2/6 4/4/7 6/10/8
f 7/11/9 17/21/10 18/22/11 8/12/12
f 11/15/2 13/17/13 14/18/14 12/16/3
f 13/17/13 7/11/9 8/12/12 14/18/14
s 3
f 49/61/15 53/65/16 9/13/17 15/19/18 58/70/19 59/71/20
s off
f 16/20/21 15/19/22 9/13/23 10/14/24
s 4
f 16/20/25 10/14/26 52/64/27 48/60/28 66/78/29 67/79/30
s 1
f 17/21/10 5/9/5 6/10/8 18/22/11
s 4
f 5/9/31 20/25/32 19/23/33 2/2/34
f 17/21/35 21/26/36 20/25/32 5/9/31
f 7/11/37 22/27/38 21/26/36 17/21/35
f 13/17/39 23/28/40 22/27/38 7/11/37
f 11/15/41 24/29/42 23/28/40 13/17/39
f 25/31/43 24/29/42 11/15/41 1/1/44
s 6
f 3/7/45 26/32/46 25/30/47 1/8/48
s 3
f 3/3/49 12/16/50 27/34/51 26/33/52
f 28/35/53 27/34/51 12/16/50 14/18/54
f 29/36/55 28/35/53 14/18/54 8/12/56
f 30/37/57 29/36/55 8/12/56 18/22/58
f 31/38/59 30/37/57 18/22/58 6/10/60
f 32/39/61 31/38/59 6/10/60 4/4/62
s 8
f 19/24/63 32/40/64 4/5/65 2/6/66
s 4
f 20/25/32 34/43/67 33/41/68 19/23/33
f 39/49/69 38/47/70 24/29/42 25/31/43
s 6
f 26/32/46 40/50/71 39/48/72 25/30/47
s 3
f 26/33/52 27/34/51 41/52/73 40/51/74
f 46/57/75 45/56/76 31/38/59 32/39/61
s 8
f 33/42/77 46/58/78 32/40/64 19/24/63
s 4
f 90/102/79 70/82/80 51/63/81 89/101/82
s 3
f 54/66/83 71/83/84 91/103/85 92/104/86
s off
f 41/52/87 27/34/88 24/29/89 38/47/90
f 38/47/91 37/46/92 42/53/93 41/52/94
f 37/46/95 36/45/96 43/54/97 42/53/98
f 36/45/99 35/44/100 44/55/101 43/54/102
f 35/44/103 34/43/104 45/56/105 44/55/106
f 31/38/107 45/56/108 34/43/109 20/25/110
f 20/25/111 21/26/112 30/37/113 31/38/114
f 21/26/115 22/27/116 29/36/117 30/37/118
f 22/27/119 23/28/120 28/35/121 29/36/122
f 23/28/123 24/29/124 27/34/125 28/35/126
s 6
f 40/50/71 56/68/127 55/67/128 39/48/72
s 3
f 40/51/74 41/52/73 57/69/129 56/68/130
f 58/70/19 57/69/129 41/52/73 42/53/131
f 59/71/20 58/70/19 42/53/131 43/54/132
f 60/72/133 59/71/20 43/54/132 44/55/134
f 61/73/135 60/72/133 44/55/134 45/56/76
f 62/74/136 61/73/135 45/56/76 46/57/75
s 8
f 63/75/137 62/74/138 46/58/78 33/42/77
s 4
f 34/43/67 64/76/139 63/75/140 33/41/68
f 35/44/141 65/77/142 64/76/139 34/43/67
f 36/45/143 66/78/29 65/77/142 35/44/141
f 37/46/144 67/79/30 66/78/29 36/45/143
f 38/47/70 68/80/145 67/79/30 37/46/144
f 55/67/146 68/80/145 38/47/70 39/49/69
s off
f 52/64/147 10/14/148 9/13/149 53/65/150
s 9
f 51/63/151 70/82/152 71/83/153 54/66/154
s 10
f 54/66/155 92/104/156 89/101/157 51/63/158
s off
f 66/78/159 48/60/160 49/61/161 59/71/162
f 59/71/163 60/72/164 65/77/165 66/78/166
f 60/72/167 61/73/168 64/76/169 65/77/170
f 61/73/171 62/74/172 63/75/173 64/76/174
s 11
f 72/84/175 69/81/176 47/59/177 50/62/178
s off
f 56/68/179 57/69/180 68/80/181 55/67/182
f 57/69/183 58/70/184 67/79/185 68/80/186
f 16/20/187 67/79/188 58/70/189 15/19/190
s 4
f 48/60/28 52/64/27 70/82/80 90/102/79 86/98/191 82/94/192 78/90/193 74/86/194 69/81/195
s 9
f 71/83/153 70/82/152 52/64/196 53/65/197
s 3
f 75/87/198 79/91/199 83/95/200 87/99/201 91/103/85 71/83/84 53/65/16 49/61/15 72/84/202
s 11
f 48/60/203 69/81/176 72/84/175 49/61/204
s 4
f 69/81/195 74/86/194 73/85/205 47/59/206
s 3
f 76/88/207 75/87/198 72/84/202 50/62/208
s 10
f 73/85/209 76/88/210 50/62/211 47/59/212
s 4
f 74/86/194 78/90/193 77/89/213 73/85/205
s 3
f 80/92/214 79/91/199 75/87/198 76/88/207
s 10
f 77/89/215 80/92/216 76/88/210 73/85/209
s 4
f 78/90/193 82/94/192 81/93/217 77/89/213
s 3
f 84/96/218 83/95/200 79/91/199 80/92/214
s 10
f 81/93/219 84/96/220 80/92/216 77/89/215
s 4
f 82/94/192 86/98/191 85/97/221 81/93/217
s 3
f 88/100/222 87/99/201 83/95/200 84/96/218
s 10
f 85/97/223 88/100/224 84/96/220 81/93/219
s 4
f 86/98/191 90/102/79 89/101/82 85/97/221
s 3
f 92/104/86 91/103/85 87/99/201 88/100/222
s 10
f 89/101/157 92/104/156 88/100/224 85/97/223
