# This file uses centimeters as units for non-parametric coordinates.

mtllib knife_01.mtl
g default
v -3.686566 -0.001418 0.096395
v -3.669182 -0.000719 0.089943
v -3.650009 -0.000888 0.081877
v -3.634451 -0.000916 0.053123
v -3.686566 0.001418 0.096395
v -3.669182 0.000719 0.089943
v -3.650009 0.000888 0.081877
v -3.634451 0.000916 0.053123
v -3.686566 0.004844 0.030121
v -3.669182 0.003683 0.030121
v -3.650009 0.002088 0.030121
v -3.625497 0.000916 0.030121
v -3.686566 0.005287 -0.021635
v -3.669182 0.004156 -0.021635
v -3.650009 0.002516 -0.021635
v -3.620124 0.000916 -0.021635
v -3.686566 0.005287 -0.073392
v -3.669182 0.004156 -0.073392
v -3.650009 0.002516 -0.073392
v -3.620124 0.000916 -0.073392
v -3.686566 0.005008 -0.125148
v -3.669182 0.003706 -0.125148
v -3.650009 0.002088 -0.125148
v -3.625497 0.000916 -0.125148
v -3.686566 0.005618 -0.176904
v -3.669182 0.005537 -0.176904
v -3.658876 0.005160 -0.176904
v -3.634451 0.002130 -0.148150
v -3.686566 -0.005618 -0.176904
v -3.669182 -0.005537 -0.176904
v -3.658876 -0.005160 -0.176904
v -3.634451 -0.002130 -0.148150
v -3.686566 -0.005008 -0.125148
v -3.669182 -0.003706 -0.125148
v -3.650009 -0.002088 -0.125148
v -3.625497 -0.000916 -0.125148
v -3.686566 -0.005287 -0.073392
v -3.669182 -0.004156 -0.073392
v -3.650009 -0.002516 -0.073392
v -3.620124 -0.000916 -0.073392
v -3.686566 -0.005287 -0.021635
v -3.669182 -0.004156 -0.021635
v -3.650009 -0.002516 -0.021635
v -3.620124 -0.000916 -0.021635
v -3.686566 -0.004844 0.030121
v -3.669182 -0.003683 0.030121
v -3.650009 -0.002088 0.030121
v -3.625497 -0.000916 0.030121
v -3.686566 0.005618 -0.257243
v -3.686566 0.005618 -0.349262
v -3.686566 0.005618 -0.511363
v -3.669182 0.005537 -0.257243
v -3.669182 0.005537 -0.349262
v -3.669182 0.005537 -0.511363
v -3.669182 -0.005537 -0.257243
v -3.669182 -0.005537 -0.349262
v -3.669182 -0.005537 -0.511363
v -3.686566 -0.005618 -0.257243
v -3.686566 -0.005618 -0.349262
v -3.686566 -0.005618 -0.511363
v -3.655822 0.005160 -0.257243
v -3.653331 0.005160 -0.349262
v -3.650008 0.005160 -0.511363
v -3.655822 -0.005160 -0.257243
v -3.653331 -0.005160 -0.349262
v -3.650008 -0.005160 -0.511363
vt 0.375000 0.000000
vt 0.458333 0.000000
vt 0.541667 0.000000
vt 0.625000 0.000000
vt 0.375000 0.250000
vt 0.458333 0.250000
vt 0.541667 0.250000
vt 0.625000 0.250000
vt 0.375000 0.300000
vt 0.458333 0.300000
vt 0.541667 0.300000
vt 0.625000 0.300000
vt 0.375000 0.350000
vt 0.458333 0.350000
vt 0.541667 0.350000
vt 0.625000 0.350000
vt 0.375000 0.400000
vt 0.458333 0.400000
vt 0.541667 0.400000
vt 0.625000 0.400000
vt 0.375000 0.450000
vt 0.458333 0.450000
vt 0.541667 0.450000
vt 0.625000 0.450000
vt 0.375000 0.500000
vt 0.458333 0.500000
vt 0.541667 0.500000
vt 0.625000 0.500000
vt 0.375000 0.750000
vt 0.458333 0.750000
vt 0.541667 0.750000
vt 0.625000 0.750000
vt 0.375000 0.800000
vt 0.458333 0.800000
vt 0.541667 0.800000
vt 0.625000 0.800000
vt 0.375000 0.850000
vt 0.458333 0.850000
vt 0.541667 0.850000
vt 0.625000 0.850000
vt 0.375000 0.900000
vt 0.458333 0.900000
vt 0.541667 0.900000
vt 0.625000 0.900000
vt 0.375000 0.950000
vt 0.458333 0.950000
vt 0.541667 0.950000
vt 0.625000 0.950000
vt 0.375000 1.000000
vt 0.458333 1.000000
vt 0.541667 1.000000
vt 0.625000 1.000000
vt 0.875000 0.000000
vt 0.825000 0.000000
vt 0.775000 0.000000
vt 0.725000 0.000000
vt 0.675000 0.000000
vt 0.875000 0.250000
vt 0.825000 0.250000
vt 0.775000 0.250000
vt 0.725000 0.250000
vt 0.675000 0.250000
vt 0.125000 0.000000
vt 0.175000 0.000000
vt 0.225000 0.000000
vt 0.275000 0.000000
vt 0.325000 0.000000
vt 0.125000 0.250000
vt 0.175000 0.250000
vt 0.225000 0.250000
vt 0.275000 0.250000
vt 0.325000 0.250000
vt 0.375000 0.500000
vt 0.375000 0.500000
vt 0.375000 0.500000
vt 0.458333 0.500000
vt 0.458333 0.500000
vt 0.458333 0.500000
vt 0.458333 0.750000
vt 0.458333 0.750000
vt 0.458333 0.750000
vt 0.375000 0.750000
vt 0.375000 0.750000
vt 0.375000 0.750000
vt 0.541667 0.500000
vt 0.541667 0.500000
vt 0.541667 0.500000
vt 0.541667 0.750000
vt 0.541667 0.750000
vt 0.541667 0.750000
vn 0.348001 0.000000 0.937494
vn 0.366264 0.000000 0.930511
vn 0.366264 0.000000 0.930511
vn 0.348001 0.000000 0.937494
vn 0.740345 0.000000 0.672227
vn 0.740345 0.000000 0.672227
vn 0.879513 0.000000 0.475874
vn 0.879513 0.000000 0.475874
vn 0.062711 0.996753 0.050508
vn 0.054669 0.997512 0.044513
vn 0.063949 0.997573 0.027546
vn 0.064110 0.997438 0.031734
vn 0.044623 0.998465 0.032811
vn 0.056138 0.998270 0.017462
vn 0.043811 0.998813 0.021281
vn 0.049816 0.998718 0.008982
vn 0.075478 0.997138 0.004371
vn 0.065358 0.997852 0.004413
vn 0.065281 0.997860 0.003670
vn 0.052376 0.998623 0.002857
vn 0.076590 0.997055 -0.003884
vn 0.067371 0.997722 -0.003511
vn 0.065401 0.997853 -0.003625
vn 0.052376 0.998623 -0.002857
vn 0.065868 0.997771 0.010718
vn 0.054799 0.998463 0.008258
vn 0.064107 0.997869 0.012128
vn 0.052562 0.998616 0.001739
vn 0.030952 0.999432 0.013334
vn 0.018428 0.999788 0.009237
vn 0.051141 0.998400 0.024149
vn 0.060533 0.997251 0.042738
vn 0.000000 0.000000 -1.000000
vn 0.000001 0.000000 -1.000000
vn 0.000001 0.000000 -1.000000
vn 0.000000 0.000000 -1.000000
vn 0.000002 0.000000 -1.000000
vn 0.000002 0.000000 -1.000000
vn 0.990309 0.000000 -0.138883
vn 0.762152 0.000000 -0.647398
vn 0.762152 0.000000 -0.647398
vn 0.990309 0.000000 -0.138883
vn 0.018428 -0.999788 0.009237
vn 0.030952 -0.999432 0.013334
vn 0.065868 -0.997771 0.010718
vn 0.054799 -0.998463 0.008258
vn 0.051141 -0.998400 0.024149
vn 0.064107 -0.997869 0.012128
vn 0.060533 -0.997251 0.042738
vn 0.052562 -0.998616 0.001739
vn 0.076590 -0.997055 -0.003884
vn 0.067371 -0.997722 -0.003511
vn 0.065401 -0.997852 -0.003625
vn 0.052376 -0.998623 -0.002857
vn 0.075478 -0.997138 0.004371
vn 0.065358 -0.997852 0.004413
vn 0.065281 -0.997860 0.003670
vn 0.052376 -0.998623 0.002857
vn 0.063949 -0.997573 0.027546
vn 0.064110 -0.997438 0.031734
vn 0.056138 -0.998270 0.017462
vn 0.049816 -0.998718 0.008982
vn 0.054669 -0.997512 0.044513
vn 0.062711 -0.996753 0.050508
vn 0.044623 -0.998465 0.032811
vn 0.043811 -0.998813 0.021281
vn 0.975507 0.000000 -0.219966
vn 0.931881 0.000000 -0.362764
vn 0.931881 0.000000 -0.362764
vn 0.975507 0.000000 -0.219966
vn 0.998656 -0.000000 -0.051836
vn 0.998656 -0.000000 -0.051836
vn 0.998656 -0.000001 0.051836
vn 0.998655 -0.000001 0.051836
vn 0.982126 -0.000001 0.188223
vn 0.982126 -0.000001 0.188223
vn 0.931881 0.000000 0.362764
vn 0.931881 0.000000 0.362764
vn -1.000000 0.000000 0.000000
vn -1.000000 0.000000 0.000000
vn -1.000000 0.000000 0.000000
vn -1.000000 0.000000 0.000000
vn -1.000000 0.000000 0.000000
vn -1.000000 0.000000 0.000000
vn -1.000000 0.000000 0.000000
vn -1.000000 0.000000 0.000000
vn -1.000000 0.000000 0.000000
vn -1.000000 0.000000 0.000000
vn -1.000000 0.000000 0.000000
vn -1.000000 0.000000 0.000000
vn 0.014914 0.999889 0.000197
vn 0.004675 0.999989 0.000000
vn 0.013527 0.999909 0.000127
vn 0.004675 0.999989 0.000000
vn 0.013119 0.999914 0.000111
vn 0.004675 0.999989 0.000000
vn 0.004675 -0.999989 0.000000
vn 0.014914 -0.999889 0.000197
vn 0.004675 -0.999989 0.000000
vn 0.013527 -0.999909 0.000127
vn 0.004675 -0.999989 0.000000
vn 0.013119 -0.999914 0.000111
vn -1.000000 0.000000 0.000000
vn -1.000000 0.000000 0.000000
vn -1.000000 0.000000 0.000000
vn -1.000000 0.000000 0.000000
vn -1.000000 0.000000 0.000000
vn -1.000000 0.000000 0.000000
vn 0.028089 0.999605 0.000447
vn 0.022787 0.999740 0.000259
vn 0.021498 0.999769 0.000220
vn 0.999483 0.000000 0.032154
vn 0.999483 0.000000 0.032154
vn 0.999738 0.000000 0.022872
vn 0.999738 0.000000 0.022872
vn 0.999790 0.000000 0.020492
vn 0.999790 0.000000 0.020492
vn 0.028089 -0.999605 0.000447
vn 0.022787 -0.999740 0.000259
vn 0.021498 -0.999769 0.000220
s 1
g knife
usemtl initialShadingGroup
f 1/1/1 2/2/2 6/6/3 5/5/4
f 2/2/2 3/3/5 7/7/6 6/6/3
f 3/3/5 4/4/7 8/8/8 7/7/6
s 2
f 5/5/9 6/6/10 10/10/11 9/9/12
f 6/6/10 7/7/13 11/11/14 10/10/11
f 7/7/13 8/8/15 12/12/16 11/11/14
f 9/9/12 10/10/11 14/14/17 13/13/18
f 10/10/11 11/11/14 15/15/19 14/14/17
f 11/11/14 12/12/16 16/16/20 15/15/19
f 13/13/18 14/14/17 18/18/21 17/17/22
f 14/14/17 15/15/19 19/19/23 18/18/21
f 15/15/19 16/16/20 20/20/24 19/19/23
f 17/17/22 18/18/21 22/22/25 21/21/26
f 18/18/21 19/19/23 23/23/27 22/22/25
f 19/19/23 20/20/24 24/24/28 23/23/27
f 21/21/26 22/22/25 26/26/29 25/25/30
f 22/22/25 23/23/27 27/27/31 26/26/29
f 23/23/27 24/24/28 28/28/32 27/27/31
s 3
f 51/75/33 54/78/34 57/81/35 60/84/36
f 54/78/34 63/87/37 66/90/38 57/81/35
s 4
f 27/27/39 28/28/40 32/32/41 31/31/42
s 5
f 29/29/43 30/30/44 34/34/45 33/33/46
f 30/30/44 31/31/47 35/35/48 34/34/45
f 31/31/47 32/32/49 36/36/50 35/35/48
f 33/33/46 34/34/45 38/38/51 37/37/52
f 34/34/45 35/35/48 39/39/53 38/38/51
f 35/35/48 36/36/50 40/40/54 39/39/53
f 37/37/52 38/38/51 42/42/55 41/41/56
f 38/38/51 39/39/53 43/43/57 42/42/55
f 39/39/53 40/40/54 44/44/58 43/43/57
f 41/41/56 42/42/55 46/46/59 45/45/60
f 42/42/55 43/43/57 47/47/61 46/46/59
f 43/43/57 44/44/58 48/48/62 47/47/61
f 45/45/60 46/46/59 2/50/63 1/49/64
f 46/46/59 47/47/61 3/51/65 2/50/63
f 47/47/61 48/48/62 4/52/66 3/51/65
s 6
f 36/54/67 32/53/68 28/58/69 24/59/70
f 40/55/71 36/54/67 24/59/70 20/60/72
f 44/56/73 40/55/71 20/60/72 16/61/74
f 48/57/75 44/56/73 16/61/74 12/62/76
f 4/4/77 48/57/75 12/62/76 8/8/78
s 7
f 29/63/79 33/64/80 21/69/81 25/68/82
f 33/64/80 37/65/83 17/70/84 21/69/81
f 37/65/83 41/66/85 13/71/86 17/70/84
f 41/66/85 45/67/87 9/72/88 13/71/86
f 45/67/87 1/1/89 5/5/90 9/72/88
s 2
f 25/25/30 26/26/29 52/76/91 49/73/92
f 49/73/92 52/76/91 53/77/93 50/74/94
f 50/74/94 53/77/93 54/78/95 51/75/96
s 5
f 30/30/44 29/29/43 58/82/97 55/79/98
f 55/79/98 58/82/97 59/83/99 56/80/100
f 56/80/100 59/83/99 60/84/101 57/81/102
s 7
f 29/29/79 25/25/82 49/73/103 58/82/104
f 58/82/104 49/73/103 50/74/105 59/83/106
f 59/83/106 50/74/105 51/75/107 60/84/108
s 2
f 26/26/29 27/27/31 61/85/109 52/76/91
f 52/76/91 61/85/109 62/86/110 53/77/93
f 53/77/93 62/86/110 63/87/111 54/78/95
s 4
f 27/27/39 31/31/42 64/88/112 61/85/113
f 61/85/113 64/88/112 65/89/114 62/86/115
f 62/86/115 65/89/114 66/90/116 63/87/117
s 5
f 31/31/47 30/30/44 55/79/98 64/88/118
f 64/88/118 55/79/98 56/80/100 65/89/119
f 65/89/119 56/80/100 57/81/102 66/90/120
