# This file uses centimeters as units for non-parametric coordinates.

mtllib pan_01.mtl
g default
v -2.721074 -0.218571 -0.461508
v -2.814780 -0.218571 -0.516437
v -2.923396 -0.218571 -0.517154
v -3.017819 -0.218571 -0.463466
v -3.072747 -0.218571 -0.369760
v -3.073464 -0.218571 -0.261144
v -3.019777 -0.218571 -0.166721
v -2.926071 -0.218571 -0.111792
v -2.817455 -0.218571 -0.111075
v -2.723032 -0.218571 -0.164763
v -2.668103 -0.218571 -0.258469
v -2.667387 -0.218571 -0.367085
v -2.684346 -0.218571 -0.497754
v -2.801095 -0.218571 -0.566191
v -2.936422 -0.218571 -0.567085
v -3.054066 -0.218571 -0.500194
v -3.122503 -0.218571 -0.383444
v -3.123395 -0.218571 -0.248117
v -3.056506 -0.218571 -0.130474
v -2.939755 -0.218571 -0.062037
v -2.804428 -0.218571 -0.061144
v -2.686785 -0.218571 -0.128034
v -2.618349 -0.218571 -0.244784
v -2.617455 -0.218571 -0.380111
v -2.640931 -0.186708 -0.540600
v -2.784920 -0.186708 -0.625003
v -2.951820 -0.186708 -0.626104
v -3.096911 -0.186708 -0.543608
v -3.181314 -0.186708 -0.399620
v -3.182416 -0.186708 -0.232720
v -3.099920 -0.186708 -0.087629
v -2.955931 -0.186708 -0.003225
v -2.789031 -0.186708 -0.002124
v -2.643940 -0.186708 -0.084620
v -2.559536 -0.186708 -0.228609
v -2.558435 -0.186708 -0.395509
v -2.614270 -0.096799 -0.566911
v -2.774987 -0.096799 -0.661121
v -2.961277 -0.096799 -0.662350
v -3.123223 -0.096799 -0.570271
v -3.217432 -0.096799 -0.409553
v -3.218662 -0.096799 -0.223264
v -3.126581 -0.096799 -0.061317
v -2.965864 -0.096799 0.032892
v -2.779574 -0.096799 0.034122
v -2.617629 -0.096799 -0.057958
v -2.523419 -0.096799 -0.218675
v -2.522190 -0.096799 -0.404965
v -2.650189 -0.139795 -0.531465
v -2.788369 -0.139795 -0.612463
v -2.948537 -0.139795 -0.613520
v -3.087775 -0.139795 -0.534352
v -3.168774 -0.139795 -0.396170
v -3.169831 -0.139795 -0.236003
v -3.090662 -0.139795 -0.096765
v -2.952481 -0.139795 -0.015766
v -2.792314 -0.139795 -0.014709
v -2.653076 -0.139795 -0.093877
v -2.572077 -0.139795 -0.232058
v -2.571020 -0.139795 -0.392225
v -2.684412 -0.186373 -0.497688
v -2.801121 -0.186373 -0.566101
v -2.936398 -0.186373 -0.566993
v -3.053999 -0.186373 -0.500127
v -3.122412 -0.186373 -0.383419
v -3.123304 -0.186373 -0.248141
v -3.056438 -0.186373 -0.130540
v -2.939731 -0.186373 -0.062128
v -2.804452 -0.186373 -0.061236
v -2.686851 -0.186373 -0.128101
v -2.618439 -0.186373 -0.244809
v -2.617547 -0.186373 -0.380088
v -2.870425 -0.218571 -0.314114
v -2.870425 -0.186373 -0.314114
v -2.614270 -0.074004 -0.566911
v -2.614270 -0.057865 -0.566911
v -2.774987 -0.074004 -0.661121
v -2.774987 -0.057865 -0.661121
v -2.784077 -0.098652 -0.628069
v -2.784077 -0.057865 -0.628069
v -2.638669 -0.098652 -0.542833
v -2.638669 -0.057865 -0.542833
v -2.961277 -0.074004 -0.662350
v -2.961277 -0.057865 -0.662350
v -2.952623 -0.098652 -0.629181
v -2.952623 -0.057865 -0.629181
v -3.123223 -0.074004 -0.570271
v -3.123223 -0.057865 -0.570271
v -3.099143 -0.098652 -0.545871
v -3.099143 -0.057865 -0.545871
v -3.217432 -0.074004 -0.409553
v -3.217432 -0.057865 -0.409553
v -3.184380 -0.098652 -0.400462
v -3.184380 -0.057865 -0.400462
v -3.218662 -0.074004 -0.223264
v -3.218662 -0.057865 -0.223264
v -3.185493 -0.098652 -0.231917
v -3.185493 -0.057865 -0.231917
v -3.126581 -0.074004 -0.061317
v -3.126581 -0.057865 -0.061317
v -3.102182 -0.098652 -0.085396
v -3.102182 -0.057865 -0.085396
v -2.965864 -0.074004 0.032892
v -2.965864 -0.057865 0.032892
v -2.956774 -0.098652 -0.000160
v -2.956774 -0.057865 -0.000160
v -2.779574 -0.074004 0.034122
v -2.779574 -0.057865 0.034122
v -2.788228 -0.098652 0.000953
v -2.788228 -0.057865 0.000953
v -2.617629 -0.074004 -0.057958
v -2.617629 -0.057865 -0.057958
v -2.641707 -0.098652 -0.082357
v -2.641707 -0.057865 -0.082357
v -2.523419 -0.074004 -0.218675
v -2.523419 -0.057865 -0.218675
v -2.556471 -0.098652 -0.227766
v -2.556471 -0.057865 -0.227766
v -2.522190 -0.074004 -0.404965
v -2.522190 -0.057865 -0.404965
v -2.555359 -0.098652 -0.396312
v -2.555359 -0.057865 -0.396312
v -2.834945 -0.074004 -0.661546
v -2.834945 -0.096799 -0.661582
v -2.906833 -0.096799 -0.662136
v -2.906832 -0.074004 -0.662000
v -2.809880 -0.075311 -1.305162
v -2.809880 -0.090638 -1.305198
v -2.922866 -0.090638 -1.305753
v -2.922865 -0.075311 -1.305617
vt 0.545105 0.130208
vt 0.526042 0.111145
vt 0.500000 0.104167
vt 0.473958 0.111145
vt 0.454895 0.130208
vt 0.447917 0.156250
vt 0.454895 0.182292
vt 0.473958 0.201355
vt 0.500000 0.208333
vt 0.526042 0.201355
vt 0.545105 0.182292
vt 0.552083 0.156250
vt 0.590211 0.104167
vt 0.552083 0.066039
vt 0.500000 0.052083
vt 0.447917 0.066039
vt 0.409789 0.104167
vt 0.395833 0.156250
vt 0.409789 0.208333
vt 0.447917 0.246461
vt 0.500000 0.260417
vt 0.552083 0.246461
vt 0.590211 0.208333
vt 0.604167 0.156250
vt 0.635316 0.078125
vt 0.578125 0.020934
vt 0.500000 0.000000
vt 0.421875 0.020934
vt 0.364684 0.078125
vt 0.343750 0.156250
vt 0.364684 0.234375
vt 0.421875 0.291566
vt 0.500000 0.312500
vt 0.578125 0.291566
vt 0.635316 0.234375
vt 0.656250 0.156250
vt 0.375000 0.312500
vt 0.395833 0.312500
vt 0.416667 0.312500
vt 0.437500 0.312500
vt 0.458333 0.312500
vt 0.479167 0.312500
vt 0.500000 0.312500
vt 0.520833 0.312500
vt 0.541667 0.312500
vt 0.562500 0.312500
vt 0.583333 0.312500
vt 0.604167 0.312500
vt 0.625000 0.312500
vt 0.375000 0.688440
vt 0.486979 0.833753
vt 0.458333 0.844220
vt 0.437500 0.688440
vt 0.458333 0.688440
vt 0.479167 0.688440
vt 0.500000 0.688440
vt 0.520833 0.688440
vt 0.541667 0.688440
vt 0.562500 0.688440
vt 0.583333 0.688440
vt 0.604167 0.688440
vt 0.625000 0.688440
vt 0.635316 0.765625
vt 0.578125 0.708434
vt 0.500000 0.687500
vt 0.421875 0.708434
vt 0.364684 0.765625
vt 0.343750 0.843750
vt 0.364684 0.921875
vt 0.421875 0.979066
vt 0.635316 0.921875
vt 0.656250 0.843750
vt 0.590211 0.791667
vt 0.552083 0.753539
vt 0.500000 0.739583
vt 0.447917 0.753539
vt 0.409789 0.791667
vt 0.395833 0.843750
vt 0.409789 0.895833
vt 0.447917 0.933961
vt 0.500000 0.947917
vt 0.552083 0.933961
vt 0.590211 0.895833
vt 0.604167 0.843750
vt 0.545105 0.817708
vt 0.526042 0.798645
vt 0.500000 0.791667
vt 0.473958 0.798645
vt 0.454895 0.817708
vt 0.447917 0.843750
vt 0.454895 0.869792
vt 0.473958 0.888855
vt 0.500000 0.895833
vt 0.526042 0.888855
vt 0.545105 0.869792
vt 0.552083 0.843750
vt 0.500000 0.150000
vt 0.500000 0.837500
vt 0.635316 0.921875
vt 0.635316 0.921875
vt 0.578125 0.979066
vt 0.578125 0.979066
vt 0.552083 0.933961
vt 0.552083 0.933961
vt 0.590211 0.895833
vt 0.590211 0.895833
vt 0.500000 1.000000
vt 0.500000 1.000000
vt 0.500000 0.947917
vt 0.500000 0.947917
vt 0.421875 0.979066
vt 0.421875 0.979066
vt 0.447917 0.933961
vt 0.447917 0.933961
vt 0.364684 0.921875
vt 0.364684 0.921875
vt 0.409789 0.895833
vt 0.409789 0.895833
vt 0.343750 0.843750
vt 0.343750 0.843750
vt 0.395833 0.843750
vt 0.395833 0.843750
vt 0.364684 0.765625
vt 0.364684 0.765625
vt 0.409789 0.791667
vt 0.409789 0.791667
vt 0.421875 0.708434
vt 0.421875 0.708434
vt 0.447917 0.753539
vt 0.447917 0.753539
vt 0.500000 0.687500
vt 0.500000 0.687500
vt 0.500000 0.739583
vt 0.500000 0.739583
vt 0.578125 0.708434
vt 0.578125 0.708434
vt 0.552083 0.753539
vt 0.552083 0.753539
vt 0.635316 0.765625
vt 0.635316 0.765625
vt 0.590211 0.791667
vt 0.590211 0.791667
vt 0.656250 0.843750
vt 0.656250 0.843750
vt 0.604167 0.843750
vt 0.604167 0.843750
vt 0.551110 0.986305
vt 0.476237 0.837678
vt 0.463324 0.842396
vt 0.522246 0.994039
vt 0.551110 0.986305
vt 0.476237 0.837678
vt 0.463324 0.842396
vt 0.522246 0.994039
vn 0.000000 -1.000000 -0.000000
vn 0.000000 -1.000000 -0.000000
vn 0.087426 -0.944095 -0.317869
vn 0.234646 -0.944096 -0.231570
vn 0.000000 -1.000000 -0.000000
vn -0.083222 -0.944095 -0.318997
vn 0.000000 -1.000000 -0.000000
vn -0.231569 -0.944096 -0.234646
vn 0.000000 -1.000000 -0.000000
vn -0.317868 -0.944096 -0.087425
vn 0.000000 -1.000000 -0.000000
vn -0.318994 -0.944096 0.083222
vn 0.000000 -1.000000 0.000000
vn -0.234646 -0.944096 0.231570
vn 0.000000 -1.000000 0.000000
vn -0.087425 -0.944096 0.317869
vn 0.000000 -1.000000 0.000000
vn 0.083222 -0.944095 0.318995
vn 0.000000 -1.000000 0.000000
vn 0.231570 -0.944096 0.234646
vn 0.000000 -1.000000 0.000000
vn 0.317868 -0.944096 0.087425
vn 0.000000 -1.000000 0.000000
vn 0.318995 -0.944096 -0.083222
vn 0.122786 -0.886352 -0.446435
vn 0.329551 -0.886352 -0.325231
vn -0.116883 -0.886351 -0.448018
vn -0.325231 -0.886352 -0.329552
vn -0.446434 -0.886352 -0.122785
vn -0.448016 -0.886352 0.116882
vn -0.329552 -0.886353 0.325231
vn -0.122785 -0.886352 0.446435
vn 0.116883 -0.886352 0.448017
vn 0.325231 -0.886352 0.329552
vn 0.446433 -0.886353 0.122785
vn 0.448015 -0.886353 -0.116882
vn 0.469139 -0.373339 -0.800329
vn 0.469139 -0.373339 -0.800329
vn 0.482610 -0.298744 -0.823310
vn 0.482610 -0.298744 -0.823310
vn 0.006119 -0.374019 -0.927401
vn 0.006119 -0.374020 -0.927401
vn 0.006119 -0.374020 -0.927401
vn 0.006119 -0.374020 -0.927401
vn 0.006119 -0.374020 -0.927401
vn 0.006119 -0.374020 -0.927401
vn -0.458533 -0.373343 -0.806451
vn -0.458533 -0.373343 -0.806451
vn -0.471700 -0.298747 -0.829608
vn -0.471700 -0.298747 -0.829608
vn -0.800331 -0.373337 -0.469138
vn -0.800331 -0.373337 -0.469138
vn -0.823312 -0.298742 -0.482608
vn -0.823312 -0.298742 -0.482608
vn -0.927674 -0.373341 -0.006123
vn -0.927674 -0.373341 -0.006123
vn -0.954312 -0.298745 -0.006299
vn -0.954312 -0.298746 -0.006299
vn -0.806452 -0.373336 0.458537
vn -0.806452 -0.373336 0.458537
vn -0.829608 -0.298742 0.471703
vn -0.829608 -0.298742 0.471703
vn -0.469140 -0.373335 0.800331
vn -0.469140 -0.373335 0.800330
vn -0.482611 -0.298741 0.823311
vn -0.482611 -0.298741 0.823311
vn -0.006121 -0.373340 0.927675
vn -0.006121 -0.373340 0.927674
vn -0.006297 -0.298745 0.954312
vn -0.006297 -0.298745 0.954312
vn 0.458536 -0.373341 0.806450
vn 0.458536 -0.373341 0.806450
vn 0.471703 -0.298745 0.829607
vn 0.471703 -0.298745 0.829607
vn 0.800330 -0.373334 0.469142
vn 0.800330 -0.373334 0.469142
vn 0.823310 -0.298740 0.482612
vn 0.823310 -0.298740 0.482612
vn 0.927677 -0.373333 0.006121
vn 0.927677 -0.373333 0.006121
vn 0.954314 -0.298739 0.006297
vn 0.954314 -0.298739 0.006297
vn 0.806452 -0.373336 -0.458536
vn 0.806452 -0.373336 -0.458536
vn 0.829609 -0.298742 -0.471702
vn 0.829609 -0.298742 -0.471702
vn 0.000000 1.000000 0.000000
vn 0.000000 1.000000 0.000000
vn 0.000000 1.000000 0.000000
vn 0.000000 1.000000 0.000000
vn 0.000000 1.000000 0.000000
vn 0.000000 1.000000 0.000000
vn 0.000000 1.000000 -0.000000
vn 0.000000 1.000000 -0.000000
vn 0.000000 1.000000 0.000000
vn 0.000000 1.000000 0.000000
vn 0.000000 1.000000 -0.000000
vn 0.000000 1.000000 -0.000000
vn 0.000000 1.000000 -0.000000
vn 0.000000 1.000000 -0.000000
vn 0.000000 1.000000 -0.000000
vn 0.000000 1.000000 -0.000000
vn 0.000000 1.000000 -0.000000
vn 0.000000 1.000000 -0.000000
vn 0.000000 1.000000 -0.000000
vn 0.000000 1.000000 -0.000000
vn 0.000000 1.000000 -0.000000
vn 0.000000 1.000000 -0.000000
vn 0.000000 1.000000 0.000000
vn 0.000000 1.000000 0.000000
vn -0.495217 0.718266 0.488726
vn -0.184510 0.718265 0.670858
vn -0.085252 0.946917 0.309969
vn -0.228816 0.946917 0.225814
vn 0.175640 0.718263 0.673237
vn 0.081154 0.946916 0.311068
vn 0.488727 0.718264 0.495220
vn 0.225815 0.946917 0.228815
vn 0.670859 0.718265 0.184508
vn 0.309969 0.946917 0.085253
vn 0.673234 0.718267 -0.175639
vn 0.311067 0.946917 -0.081154
vn 0.495219 0.718265 -0.488726
vn 0.228815 0.946917 -0.225815
vn 0.184508 0.718264 -0.670860
vn 0.085253 0.946916 -0.309970
vn -0.175640 0.718265 -0.673235
vn -0.081153 0.946917 -0.311066
vn -0.488726 0.718266 -0.495219
vn -0.225815 0.946917 -0.228815
vn -0.670859 0.718264 -0.184510
vn -0.309969 0.946917 -0.085251
vn -0.673237 0.718264 0.175639
vn -0.311068 0.946916 0.081154
vn 0.000000 -1.000000 0.000000
vn 0.000000 1.000000 -0.000000
vn 0.505705 0.000000 -0.862706
vn 0.505705 0.000000 -0.862706
vn 0.505705 0.000000 -0.862706
vn 0.505705 0.000000 -0.862706
vn -0.472726 0.355200 0.806451
vn -0.472726 0.355200 0.806451
vn -0.497486 0.179540 0.848689
vn -0.497486 0.179540 0.848689
vn -0.505704 0.000000 0.862707
vn -0.505704 0.000000 0.862707
vn 0.006597 0.000835 -0.999978
vn 0.006597 0.000835 -0.999978
vn 0.006597 0.000835 -0.999978
vn 0.006597 0.000835 -0.999978
vn 0.006597 0.000835 -0.999978
vn 0.006597 0.000835 -0.999978
vn -0.006169 0.355212 0.934765
vn -0.006169 0.355212 0.934765
vn -0.006493 0.179549 0.983728
vn -0.006493 0.179548 0.983728
vn -0.006600 0.000000 0.999978
vn -0.006600 0.000000 0.999978
vn -0.494273 0.000000 -0.869307
vn -0.494273 0.000000 -0.869307
vn -0.494273 0.000000 -0.869307
vn -0.494273 0.000000 -0.869307
vn 0.462040 0.355211 0.812615
vn 0.462040 0.355211 0.812615
vn 0.486242 0.179548 0.855179
vn 0.486242 0.179548 0.855179
vn 0.494275 0.000000 0.869305
vn 0.494275 0.000000 0.869305
vn -0.862709 0.000000 -0.505701
vn -0.862709 0.000000 -0.505701
vn -0.862709 0.000000 -0.505701
vn -0.862709 0.000000 -0.505701
vn 0.806448 0.355209 0.472725
vn 0.806448 0.355209 0.472725
vn 0.848687 0.179546 0.497486
vn 0.848687 0.179547 0.497486
vn 0.862707 0.000000 0.505705
vn 0.862707 0.000000 0.505705
vn -0.999978 0.000000 -0.006601
vn -0.999978 0.000000 -0.006601
vn -0.999978 0.000000 -0.006601
vn -0.999978 0.000000 -0.006601
vn 0.934768 0.355206 0.006169
vn 0.934768 0.355206 0.006169
vn 0.983729 0.179544 0.006493
vn 0.983729 0.179544 0.006493
vn 0.999978 0.000000 0.006600
vn 0.999978 0.000000 0.006600
vn -0.869305 0.000000 0.494276
vn -0.869305 0.000000 0.494276
vn -0.869305 0.000000 0.494276
vn -0.869305 0.000000 0.494276
vn 0.812616 0.355208 -0.462042
vn 0.812616 0.355208 -0.462042
vn 0.855179 0.179546 -0.486244
vn 0.855179 0.179546 -0.486244
vn 0.869305 0.000000 -0.494277
vn 0.869305 0.000000 -0.494277
vn -0.505705 0.000000 0.862707
vn -0.505705 0.000000 0.862707
vn -0.505705 0.000000 0.862707
vn -0.505705 0.000000 0.862707
vn 0.472724 0.355209 -0.806448
vn 0.472724 0.355209 -0.806448
vn 0.497486 0.179546 -0.848688
vn 0.497486 0.179547 -0.848688
vn 0.505704 0.000000 -0.862707
vn 0.505704 0.000000 -0.862707
vn -0.006600 0.000000 0.999978
vn -0.006600 0.000000 0.999978
vn -0.006600 0.000000 0.999978
vn -0.006600 0.000000 0.999978
vn 0.006170 0.355212 -0.934765
vn 0.006170 0.355212 -0.934765
vn 0.006494 0.179548 -0.983728
vn 0.006494 0.179549 -0.983728
vn 0.006602 0.000000 -0.999978
vn 0.006602 0.000000 -0.999978
vn 0.494276 0.000000 0.869305
vn 0.494276 0.000000 0.869305
vn 0.494276 0.000000 0.869305
vn 0.494276 0.000000 0.869305
vn -0.462044 0.355206 -0.812616
vn -0.462044 0.355206 -0.812616
vn -0.486245 0.179544 -0.855178
vn -0.486245 0.179545 -0.855178
vn -0.494278 0.000000 -0.869304
vn -0.494278 0.000000 -0.869304
vn 0.862707 0.000000 0.505705
vn 0.862707 0.000000 0.505705
vn 0.862707 0.000000 0.505705
vn 0.862707 0.000000 0.505705
vn -0.806448 0.355206 -0.472726
vn -0.806448 0.355206 -0.472726
vn -0.848688 0.179545 -0.497487
vn -0.848688 0.179544 -0.497487
vn -0.862707 0.000000 -0.505705
vn -0.862707 0.000000 -0.505705
vn 0.999978 0.000000 0.006599
vn 0.999978 0.000000 0.006599
vn 0.999978 0.000000 0.006599
vn 0.999978 0.000000 0.006599
vn -0.934767 0.355208 -0.006169
vn -0.934767 0.355208 -0.006169
vn -0.983728 0.179546 -0.006493
vn -0.983728 0.179545 -0.006493
vn -0.999978 0.000000 -0.006600
vn -0.999978 0.000000 -0.006600
vn 0.869306 0.000000 -0.494274
vn 0.869306 0.000000 -0.494274
vn 0.869306 0.000000 -0.494274
vn 0.869306 0.000000 -0.494274
vn -0.812617 0.355210 0.462039
vn -0.812617 0.355210 0.462039
vn -0.855180 0.179548 0.486241
vn -0.855180 0.179548 0.486241
vn -0.869306 0.000000 0.494274
vn -0.869306 0.000000 0.494274
vn 0.004462 0.005608 -0.999974
vn 0.004462 0.005608 -0.999974
vn 0.004462 0.005608 -0.999974
vn 0.004462 0.005608 -0.999974
vn 0.007386 0.000790 -0.999972
vn 0.007386 0.000790 -0.999972
vn 0.007386 0.000790 -0.999972
vn 0.007386 0.000790 -0.999972
vn 0.005181 0.002981 -0.999982
vn 0.005181 0.002981 -0.999982
vn 0.005181 0.002981 -0.999982
vn 0.005181 0.002981 -0.999982
vn 0.999243 -0.000078 0.038914
vn 0.999243 -0.000078 0.038914
vn 0.999243 -0.000078 0.038914
vn 0.999243 -0.000078 0.038914
vn 0.000057 -0.999954 -0.009571
vn 0.000057 -0.999954 -0.009571
vn 0.000057 -0.999954 -0.009571
vn 0.000057 -0.999954 -0.009571
vn -0.999690 -0.000146 0.024903
vn -0.999690 -0.000146 0.024903
vn -0.999690 -0.000146 0.024903
vn -0.999690 -0.000146 0.024903
vn 0.000010 0.999998 -0.002031
vn 0.000010 0.999998 -0.002031
vn 0.000010 0.999998 -0.002031
vn 0.000010 0.999998 -0.002031
s 1
g pan
usemtl initialShadingGroup
f 1/1/1 2/2/2 14/14/3 13/13/4
f 2/2/2 3/3/5 15/15/6 14/14/3
f 3/3/5 4/4/7 16/16/8 15/15/6
f 4/4/7 5/5/9 17/17/10 16/16/8
f 5/5/9 6/6/11 18/18/12 17/17/10
f 6/6/11 7/7/13 19/19/14 18/18/12
f 7/7/13 8/8/15 20/20/16 19/19/14
f 8/8/15 9/9/17 21/21/18 20/20/16
f 9/9/17 10/10/19 22/22/20 21/21/18
f 10/10/19 11/11/21 23/23/22 22/22/20
f 11/11/21 12/12/23 24/24/24 23/23/22
f 12/12/23 1/1/1 13/13/4 24/24/24
f 13/13/4 14/14/3 26/26/25 25/25/26
f 14/14/3 15/15/6 27/27/27 26/26/25
f 15/15/6 16/16/8 28/28/28 27/27/27
f 16/16/8 17/17/10 29/29/29 28/28/28
f 17/17/10 18/18/12 30/30/30 29/29/29
f 18/18/12 19/19/14 31/31/31 30/30/30
f 19/19/14 20/20/16 32/32/32 31/31/31
f 20/20/16 21/21/18 33/33/33 32/32/32
f 21/21/18 22/22/20 34/34/34 33/33/33
f 22/22/20 23/23/22 35/35/35 34/34/34
f 23/23/22 24/24/24 36/36/36 35/35/35
f 24/24/24 13/13/4 25/25/26 36/36/36
s 2
f 25/37/37 26/38/38 38/51/39 37/50/40
s off
f 26/38/41 27/39/42 39/52/43 125/149/44 124/148/45 38/51/46
s 3
f 27/39/47 28/40/48 40/53/49 39/52/50
s 4
f 28/40/51 29/41/52 41/54/53 40/53/54
s 5
f 29/41/55 30/42/56 42/55/57 41/54/58
s 6
f 30/42/59 31/43/60 43/56/61 42/55/62
s 7
f 31/43/63 32/44/64 44/57/65 43/56/66
s 8
f 32/44/67 33/45/68 45/58/69 44/57/70
s 9
f 33/45/71 34/46/72 46/59/73 45/58/74
s 10
f 34/46/75 35/47/76 47/60/77 46/59/78
s 11
f 35/47/79 36/48/80 48/61/81 47/60/82
s 12
f 36/48/83 25/49/84 37/62/85 48/61/86
s 13
f 76/100/87 78/102/88 80/104/89 82/106/90
f 78/102/88 84/108/91 86/110/92 80/104/89
f 84/108/91 88/112/93 90/114/94 86/110/92
f 88/112/93 92/116/95 94/118/96 90/114/94
f 92/116/95 96/120/97 98/122/98 94/118/96
f 96/120/97 100/124/99 102/126/100 98/122/98
f 100/124/99 104/128/101 106/130/102 102/126/100
f 104/128/101 108/132/103 110/134/104 106/130/102
f 108/132/103 112/136/105 114/138/106 110/134/104
f 112/136/105 116/140/107 118/142/108 114/138/106
f 116/140/107 120/144/109 122/146/110 118/142/108
f 120/144/109 76/100/87 82/106/90 122/146/110
s 14
f 49/83/111 50/82/112 62/94/113 61/95/114
f 50/82/112 51/81/115 63/93/116 62/94/113
f 51/81/115 52/80/117 64/92/118 63/93/116
f 52/80/117 53/79/119 65/91/120 64/92/118
f 53/79/119 54/78/121 66/90/122 65/91/120
f 54/78/121 55/77/123 67/89/124 66/90/122
f 55/77/123 56/76/125 68/88/126 67/89/124
f 56/76/125 57/75/127 69/87/128 68/88/126
f 57/75/127 58/74/129 70/86/130 69/87/128
f 58/74/129 59/73/131 71/85/132 70/86/130
f 59/73/131 60/84/133 72/96/134 71/85/132
f 60/84/133 49/83/111 61/95/114 72/96/134
s 1
f 2/2/2 1/1/1 73/97/135
f 3/3/5 2/2/2 73/97/135
f 4/4/7 3/3/5 73/97/135
f 5/5/9 4/4/7 73/97/135
f 6/6/11 5/5/9 73/97/135
f 7/7/13 6/6/11 73/97/135
f 8/8/15 7/7/13 73/97/135
f 9/9/17 8/8/15 73/97/135
f 10/10/19 9/9/17 73/97/135
f 11/11/21 10/10/19 73/97/135
f 12/12/23 11/11/21 73/97/135
f 1/1/1 12/12/23 73/97/135
s 14
f 61/95/114 62/94/113 74/98/136
f 62/94/113 63/93/116 74/98/136
f 63/93/116 64/92/118 74/98/136
f 64/92/118 65/91/120 74/98/136
f 65/91/120 66/90/122 74/98/136
f 66/90/122 67/89/124 74/98/136
f 67/89/124 68/88/126 74/98/136
f 68/88/126 69/87/128 74/98/136
f 69/87/128 70/86/130 74/98/136
f 70/86/130 71/85/132 74/98/136
f 71/85/132 72/96/134 74/98/136
f 72/96/134 61/95/114 74/98/136
s 2
f 37/71/40 38/51/39 77/101/137 75/99/138
f 75/99/138 77/101/137 78/102/139 76/100/140
s 15
f 50/82/141 49/83/142 81/105/143 79/103/144
f 79/103/144 81/105/143 82/106/145 80/104/146
s off
f 77/101/147 123/147/148 126/150/149 83/107/150 84/108/151 78/102/152
s 16
f 51/81/153 50/82/154 79/103/155 85/109/156
f 85/109/156 79/103/155 80/104/157 86/110/158
s 3
f 39/52/50 40/70/49 87/111/159 83/107/160
f 83/107/160 87/111/159 88/112/161 84/108/162
s 17
f 52/80/163 51/81/164 85/109/165 89/113/166
f 89/113/166 85/109/165 86/110/167 90/114/168
s 4
f 40/70/54 41/69/53 91/115/169 87/111/170
f 87/111/170 91/115/169 92/116/171 88/112/172
s 18
f 53/79/173 52/80/174 89/113/175 93/117/176
f 93/117/176 89/113/175 90/114/177 94/118/178
s 5
f 41/69/58 42/68/57 95/119/179 91/115/180
f 91/115/180 95/119/179 96/120/181 92/116/182
s 19
f 54/78/183 53/79/184 93/117/185 97/121/186
f 97/121/186 93/117/185 94/118/187 98/122/188
s 6
f 42/68/62 43/67/61 99/123/189 95/119/190
f 95/119/190 99/123/189 100/124/191 96/120/192
s 20
f 55/77/193 54/78/194 97/121/195 101/125/196
f 101/125/196 97/121/195 98/122/197 102/126/198
s 7
f 43/67/66 44/66/65 103/127/199 99/123/200
f 99/123/200 103/127/199 104/128/201 100/124/202
s 21
f 56/76/203 55/77/204 101/125/205 105/129/206
f 105/129/206 101/125/205 102/126/207 106/130/208
s 8
f 44/66/70 45/65/69 107/131/209 103/127/210
f 103/127/210 107/131/209 108/132/211 104/128/212
s 22
f 57/75/213 56/76/214 105/129/215 109/133/216
f 109/133/216 105/129/215 106/130/217 110/134/218
s 9
f 45/65/74 46/64/73 111/135/219 107/131/220
f 107/131/220 111/135/219 112/136/221 108/132/222
s 23
f 58/74/223 57/75/224 109/133/225 113/137/226
f 113/137/226 109/133/225 110/134/227 114/138/228
s 10
f 46/64/78 47/63/77 115/139/229 111/135/230
f 111/135/230 115/139/229 116/140/231 112/136/232
s 24
f 59/73/233 58/74/234 113/137/235 117/141/236
f 117/141/236 113/137/235 114/138/237 118/142/238
s 11
f 47/63/82 48/72/81 119/143/239 115/139/240
f 115/139/240 119/143/239 120/144/241 116/140/242
s 25
f 60/84/243 59/73/244 117/141/245 121/145/246
f 121/145/246 117/141/245 118/142/247 122/146/248
s 12
f 48/72/86 37/71/85 75/99/249 119/143/250
f 119/143/250 75/99/249 76/100/251 120/144/252
s 26
f 49/83/253 60/84/254 121/145/255 81/105/256
f 81/105/256 121/145/255 122/146/257 82/106/258
s off
f 127/151/259 128/152/260 129/153/261 130/154/262
f 77/101/263 38/51/264 124/148/265 123/147/266
f 126/150/267 125/149/268 39/52/269 83/107/270
f 123/147/271 124/148/272 128/152/273 127/151/274
f 124/148/275 125/149/276 129/153/277 128/152/278
f 125/149/279 126/150/280 130/154/281 129/153/282
f 126/150/283 123/147/284 127/151/285 130/154/286
