# This file uses centimeters as units for non-parametric coordinates.

mtllib spoon_01.mtl
g default
v -4.072504 0.039828 0.087827
v -4.043228 0.039828 0.103469
v -3.984675 0.039828 0.103469
v -3.955400 0.039828 0.087827
v -4.072504 0.052816 0.087827
v -4.043228 0.052816 0.103469
v -3.984675 0.052816 0.103469
v -3.955400 0.052816 0.087827
v -4.101779 0.052816 0.029276
v -4.055588 0.014945 0.059207
v -3.972315 0.014945 0.059207
v -3.926124 0.052816 0.029276
v -4.101779 0.052816 -0.029276
v -4.055588 0.014945 -0.050061
v -3.972315 0.014945 -0.050061
v -3.926124 0.052816 -0.029276
v -4.078359 0.052816 -0.087827
v -4.033469 0.052816 -0.113897
v -3.994434 0.052816 -0.113897
v -3.949545 0.052816 -0.087827
v -4.078359 0.039828 -0.087827
v -4.033469 0.039828 -0.113897
v -3.994434 0.039828 -0.113897
v -3.949545 0.039828 -0.087827
v -4.101779 0.039828 -0.029276
v -4.052190 0.001957 -0.045602
v -3.975713 0.001957 -0.045602
v -3.926124 0.039828 -0.029276
v -4.101779 0.039828 0.029276
v -4.052190 0.001957 0.054748
v -3.975713 0.001957 0.054748
v -3.926124 0.039828 0.029276
v -4.038023 0.052816 -0.213796
v -3.989880 0.052816 -0.213796
v -3.989880 0.039828 -0.213796
v -4.038023 0.039828 -0.213796
v -4.040625 0.048673 -0.349670
v -3.987278 0.048673 -0.349670
v -3.987278 0.035685 -0.349670
v -4.040625 0.035685 -0.349670
v -4.043228 0.042461 -0.512076
v -3.984675 0.042461 -0.512076
v -3.984675 0.029473 -0.512076
v -4.043228 0.029473 -0.512076
vt 0.375000 0.000000
vt 0.458333 0.000000
vt 0.541667 0.000000
vt 0.625000 0.000000
vt 0.375000 0.250000
vt 0.458333 0.250000
vt 0.541667 0.250000
vt 0.625000 0.250000
vt 0.375000 0.333333
vt 0.458333 0.333333
vt 0.541667 0.333333
vt 0.625000 0.333333
vt 0.375000 0.416667
vt 0.458333 0.416667
vt 0.541667 0.416667
vt 0.625000 0.416667
vt 0.375000 0.500000
vt 0.458333 0.500000
vt 0.541667 0.500000
vt 0.625000 0.500000
vt 0.375000 0.750000
vt 0.458333 0.750000
vt 0.541667 0.750000
vt 0.625000 0.750000
vt 0.375000 0.833333
vt 0.458333 0.833333
vt 0.541667 0.833333
vt 0.625000 0.833333
vt 0.375000 0.916667
vt 0.458333 0.916667
vt 0.541667 0.916667
vt 0.625000 0.916667
vt 0.375000 1.000000
vt 0.458333 1.000000
vt 0.541667 1.000000
vt 0.625000 1.000000
vt 0.875000 0.000000
vt 0.791667 0.000000
vt 0.708333 0.000000
vt 0.875000 0.250000
vt 0.791667 0.250000
vt 0.708333 0.250000
vt 0.125000 0.000000
vt 0.208333 0.000000
vt 0.291667 0.000000
vt 0.125000 0.250000
vt 0.208333 0.250000
vt 0.291667 0.250000
vt 0.458333 0.500000
vt 0.541667 0.500000
vt 0.541667 0.750000
vt 0.458333 0.750000
vt 0.458333 0.500000
vt 0.541667 0.500000
vt 0.541667 0.750000
vt 0.458333 0.750000
vt 0.458333 0.500000
vt 0.541667 0.500000
vt 0.541667 0.750000
vt 0.458333 0.750000
vn -0.471246 0.000000 0.882002
vn -0.175338 0.000000 0.984508
vn -0.175338 0.000000 0.984508
vn -0.471246 0.000000 0.882002
vn 0.175339 0.000000 0.984508
vn 0.175339 0.000000 0.984508
vn 0.471254 0.000000 0.881997
vn 0.471254 0.000000 0.881997
vn 0.607372 0.633523 -0.479320
vn 0.209609 0.753543 -0.623087
vn 0.197550 0.964760 -0.173814
vn 0.642844 0.754589 -0.131707
vn -0.209610 0.753541 -0.623089
vn -0.197550 0.964760 -0.173814
vn -0.607377 0.633517 -0.479322
vn -0.642848 0.754586 -0.131707
vn 0.197784 0.969304 0.146052
vn 0.610344 0.778389 0.146937
vn -0.197784 0.969304 0.146052
vn -0.610348 0.778386 0.146937
vn 0.121810 0.940334 0.317701
vn 0.524920 0.738177 0.423738
vn -0.121811 0.940334 0.317701
vn -0.524925 0.738172 0.423740
vn -0.502206 0.000000 -0.864748
vn -0.502206 0.000000 -0.864748
vn -0.502206 0.000000 -0.864748
vn -0.502206 0.000000 -0.864748
vn 0.000000 0.000000 -1.000000
vn 0.000000 0.000000 -1.000000
vn 0.000000 0.000000 -1.000000
vn 0.000000 0.000000 -1.000000
vn 0.502211 0.000000 -0.864745
vn 0.502211 0.000000 -0.864745
vn 0.502211 0.000000 -0.864745
vn 0.502211 0.000000 -0.864745
vn -0.488933 -0.777925 -0.394687
vn -0.120042 -0.946822 -0.298526
vn -0.204207 -0.967346 -0.150139
vn -0.575542 -0.804612 -0.146121
vn 0.120043 -0.946822 -0.298527
vn 0.204208 -0.967346 -0.150139
vn 0.488937 -0.777921 -0.394689
vn 0.575546 -0.804609 -0.146121
vn -0.203666 -0.962468 0.179374
vn -0.608370 -0.782648 0.131711
vn 0.203666 -0.962468 0.179374
vn 0.608374 -0.782645 0.131711
vn -0.204058 -0.788819 0.579763
vn -0.565667 -0.693355 0.446408
vn 0.204059 -0.788818 0.579764
vn 0.565672 -0.693349 0.446410
vn 0.980581 -0.000000 -0.196116
vn 0.928477 0.000000 -0.371390
vn 0.928477 0.000000 -0.371390
vn 0.980581 0.000000 -0.196116
vn 0.970143 -0.000000 0.242535
vn 0.970143 -0.000000 0.242535
vn 0.894428 -0.000001 0.447212
vn 0.894428 -0.000001 0.447212
vn -0.928479 0.000001 -0.371386
vn -0.980581 0.000000 -0.196113
vn -0.980581 0.000000 -0.196113
vn -0.928479 0.000001 -0.371386
vn -0.970143 0.000000 0.242532
vn -0.970143 0.000000 0.242532
vn -0.894430 0.000000 0.447208
vn -0.894430 0.000000 0.447208
vn 0.000000 0.999820 -0.018983
vn 0.000000 0.999820 -0.018983
vn 0.998962 0.000000 0.045539
vn 0.998962 0.000000 0.045539
vn 0.999559 0.000000 0.029682
vn 0.999517 0.000000 0.031084
vn 0.000000 -0.999820 0.018983
vn 0.000000 -0.999820 0.018983
vn -0.998962 0.000000 0.045539
vn -0.998962 0.000000 0.045539
vn -0.999517 0.000000 0.031084
vn -0.999559 0.000000 0.029682
vn 0.000000 0.999390 -0.034923
vn 0.000000 0.999390 -0.034923
vn 0.999851 0.000000 0.017262
vn 0.999844 0.000000 0.017640
vn 0.000000 -0.999390 0.034923
vn 0.000000 -0.999390 0.034923
vn -0.999844 0.000000 0.017640
vn -0.999851 0.000000 0.017262
vn 0.000000 0.999269 -0.038222
vn 0.000000 0.999269 -0.038222
vn 0.999872 0.000000 0.016021
vn 0.999872 0.000000 0.016021
vn 0.000000 -0.999269 0.038222
vn 0.000000 -0.999269 0.038222
vn -0.999872 0.000000 0.016021
vn -0.999872 0.000000 0.016021
s 1
g spoon
usemtl initialShadingGroup
f 1/1/1 2/2/2 6/6/3 5/5/4
f 2/2/2 3/3/5 7/7/6 6/6/3
f 3/3/5 4/4/7 8/8/8 7/7/6
s 2
f 5/5/9 6/6/10 10/10/11 9/9/12
f 6/6/10 7/7/13 11/11/14 10/10/11
f 7/7/13 8/8/15 12/12/16 11/11/14
f 9/9/12 10/10/11 14/14/17 13/13/18
f 10/10/11 11/11/14 15/15/19 14/14/17
f 11/11/14 12/12/16 16/16/20 15/15/19
f 13/13/18 14/14/17 18/18/21 17/17/22
f 14/14/17 15/15/19 19/19/23 18/18/21
f 15/15/19 16/16/20 20/20/24 19/19/23
s off
f 17/17/25 18/18/26 22/22/27 21/21/28
f 41/57/29 42/58/30 43/59/31 44/60/32
f 19/19/33 20/20/34 24/24/35 23/23/36
s 3
f 21/21/37 22/22/38 26/26/39 25/25/40
f 22/22/38 23/23/41 27/27/42 26/26/39
f 23/23/41 24/24/43 28/28/44 27/27/42
f 25/25/40 26/26/39 30/30/45 29/29/46
f 26/26/39 27/27/42 31/31/47 30/30/45
f 27/27/42 28/28/44 32/32/48 31/31/47
f 29/29/46 30/30/45 2/34/49 1/33/50
f 30/30/45 31/31/47 3/35/51 2/34/49
f 31/31/47 32/32/48 4/36/52 3/35/51
s 4
f 28/38/53 24/37/54 20/40/55 16/41/56
f 32/39/57 28/38/53 16/41/56 12/42/58
f 4/4/59 32/39/57 12/42/58 8/8/60
s 5
f 21/43/61 25/44/62 13/47/63 17/46/64
f 25/44/62 29/45/65 9/48/66 13/47/63
f 29/45/65 1/1/67 5/5/68 9/48/66
s 2
f 18/18/21 19/19/23 34/50/69 33/49/70
s 6
f 19/19/71 23/23/72 35/51/73 34/50/74
s 3
f 23/23/41 22/22/38 36/52/75 35/51/76
s 7
f 22/22/77 18/18/78 33/49/79 36/52/80
s 2
f 33/49/70 34/50/69 38/54/81 37/53/82
s 6
f 34/50/74 35/51/73 39/55/83 38/54/84
s 3
f 35/51/76 36/52/75 40/56/85 39/55/86
s 7
f 36/52/80 33/49/79 37/53/87 40/56/88
s 2
f 37/53/82 38/54/81 42/58/89 41/57/90
s 6
f 38/54/84 39/55/83 43/59/91 42/58/92
s 3
f 39/55/86 40/56/85 44/60/93 43/59/94
s 7
f 40/56/88 37/53/87 41/57/95 44/60/96
