# This file uses centimeters as units for non-parametric coordinates.

mtllib wall_04.mtl
g default
v -3.008311 53.080754 -5.635081
v -3.008311 53.080754 0.004195
v -3.008311 62.075540 -5.635081
v -3.008311 62.075540 0.004195
v -2.866980 62.075540 -5.635081
v -2.866980 62.075540 0.004195
v -2.866980 53.080754 -5.635081
v -2.866980 53.080754 0.004195
v -2.866980 62.075540 -3.902602
v -2.866980 53.080754 -3.236986
v -3.008311 53.080754 -3.236986
v -3.008311 62.075540 -3.902602
v -2.866980 62.075540 -4.594301
v -3.008311 62.075540 -4.594301
v -2.866980 53.080754 -5.272480
v -3.008311 53.080754 -5.272480
v -2.866980 56.873344 -5.635081
v -3.008311 56.873344 -5.635081
v -3.008311 56.873344 -4.594301
v -3.008311 56.873344 -3.902602
v -3.008311 56.873344 0.004195
v -2.866980 56.873344 0.004195
v -2.866980 56.873344 -3.902602
v -2.866980 56.873344 -4.594301
v -2.866980 56.727100 -5.635081
v -3.008311 56.727106 -5.635081
v -3.008311 56.727106 -4.876689
v -3.008311 56.727106 -3.632777
v -3.008311 56.727106 0.004195
v -2.866980 56.727100 0.004195
v -2.866980 56.727100 -3.632777
v -2.866980 56.727100 -4.876689
v -2.866980 56.261166 -5.635081
v -3.008311 56.261166 -5.635081
v -3.008311 56.261166 -5.182015
v -3.008311 56.261166 -3.327453
v -3.008311 56.261166 0.004195
v -2.866980 56.261166 0.004195
v -2.866980 56.261166 -3.327453
v -2.866980 56.261166 -5.182015
v -2.866980 55.614911 -5.635081
v -3.008311 55.614911 -5.635081
v -3.008311 55.614911 -5.272480
v -3.008311 55.614911 -3.236986
v -3.008311 55.614911 0.004195
v -2.866980 55.614911 0.004195
v -2.866980 55.614911 -3.236986
v -2.866980 55.614911 -5.272480
vt 0.832934 0.272155
vt 0.856178 0.272155
vt 0.856178 0.335911
vt 0.832934 0.335911
vt 0.871626 0.335911
vt 0.871626 0.272155
vt 0.958878 0.272155
vt 0.958878 0.335911
vt 0.832934 0.269757
vt 0.849871 0.269757
vt 0.877652 0.269757
vt 0.958878 0.269757
vt 0.832934 0.262117
vt 0.843052 0.262117
vt 0.884471 0.262117
vt 0.958878 0.262117
vt 0.832934 0.251520
vt 0.841032 0.251520
vt 0.886491 0.251520
vt 0.958878 0.251520
vt 0.832934 0.209966
vt 0.841032 0.209966
vt 0.886491 0.209966
vt 0.958878 0.209966
vt 0.958223 0.199597
vt 0.934978 0.199597
vt 0.934978 0.135841
vt 0.958223 0.135841
vt 0.919531 0.199597
vt 0.832278 0.199597
vt 0.832278 0.135841
vt 0.919531 0.135841
vt 0.832278 0.133443
vt 0.913504 0.133443
vt 0.941285 0.133443
vt 0.958223 0.133443
vt 0.832278 0.125803
vt 0.906685 0.125803
vt 0.948104 0.125803
vt 0.958223 0.125803
vt 0.832278 0.115206
vt 0.904665 0.115206
vt 0.950125 0.115206
vt 0.958223 0.115206
vt 0.832278 0.073652
vt 0.904665 0.073652
vt 0.950125 0.073652
vt 0.958223 0.073652
vt 0.966093 0.375846
vt 0.940809 0.375794
vt 0.940817 0.361889
vt 0.966102 0.361941
vt 0.924013 0.361855
vt 0.924004 0.375760
vt 0.829093 0.375566
vt 0.829101 0.361660
vt 0.926887 0.350336
vt 0.923276 0.350336
vt 0.922718 0.347764
vt 0.926294 0.347764
vt 0.917677 0.347764
vt 0.917916 0.350336
vt 0.910215 0.347764
vt 0.910292 0.350336
vt 0.905465 0.347764
vt 0.905476 0.350336
vt 0.881205 0.347764
vt 0.889837 0.347764
vt 0.889837 0.350336
vt 0.881205 0.350336
vt 0.894760 0.347764
vt 0.894760 0.350336
vt 0.871072 0.347764
vt 0.871072 0.350336
vt 0.831750 0.350336
vt 0.831750 0.347764
vn -1.000000 0.000000 0.000000
vn -1.000000 0.000000 0.000000
vn -1.000000 0.000000 0.000000
vn -1.000000 0.000000 0.000000
vn 0.000000 1.000000 0.000000
vn 0.000000 1.000000 0.000000
vn 0.000000 1.000000 0.000000
vn 0.000000 1.000000 0.000000
vn 1.000000 0.000000 -0.000000
vn 1.000000 0.000000 -0.000000
vn 1.000000 0.000000 -0.000000
vn 1.000000 0.000000 -0.000000
vn 0.000000 -1.000000 0.000000
vn 0.000000 -1.000000 0.000000
vn 0.000000 -1.000000 0.000000
vn 0.000000 -1.000000 0.000000
vn 0.000000 0.000000 1.000000
vn 0.000000 0.000000 1.000000
vn 0.000000 0.000000 1.000000
vn 0.000000 0.000000 1.000000
vn -0.000000 0.000000 -1.000000
vn -0.000000 0.000000 -1.000000
vn -0.000000 0.000000 -1.000000
vn -0.000000 0.000000 -1.000000
vn 1.000000 0.000000 -0.000000
vn 1.000000 0.000000 -0.000000
vn 1.000000 0.000000 -0.000000
vn 1.000000 0.000000 -0.000000
vn 0.000000 -1.000000 0.000000
vn 0.000000 -1.000000 0.000000
vn 0.000000 -1.000000 0.000000
vn 0.000000 -1.000000 0.000000
vn -1.000000 0.000000 0.000000
vn -1.000000 0.000000 0.000000
vn -1.000000 0.000000 0.000000
vn -1.000000 0.000000 0.000000
vn 0.000000 1.000000 0.000000
vn 0.000000 1.000000 0.000000
vn 0.000000 1.000000 0.000000
vn 0.000000 1.000000 0.000000
vn -0.000000 0.000000 -1.000000
vn -0.000000 0.000000 -1.000000
vn -1.000000 0.000000 0.000000
vn -1.000000 0.000000 0.000000
vn -1.000000 0.000000 0.000000
vn -1.000000 0.000000 0.000000
vn 0.000000 0.000000 1.000000
vn 0.000000 0.000000 1.000000
vn 1.000000 0.000000 -0.000000
vn 1.000000 0.000000 -0.000000
vn 1.000000 0.000000 -0.000000
vn 1.000000 0.000000 -0.000000
vn -0.000000 0.000000 -1.000000
vn -0.000000 0.000000 -1.000000
vn -1.000000 0.000000 0.000000
vn -1.000000 0.000000 0.000000
vn -1.000000 0.000000 0.000000
vn -1.000000 0.000000 0.000000
vn 0.000000 0.000000 1.000000
vn 0.000000 0.000000 1.000000
vn 1.000000 0.000000 -0.000000
vn 1.000000 0.000000 -0.000000
vn 1.000000 0.000000 -0.000000
vn 1.000000 0.000000 -0.000000
vn -0.000000 0.000000 -1.000000
vn -0.000000 0.000000 -1.000000
vn -1.000000 0.000000 0.000000
vn -1.000000 0.000000 0.000000
vn -1.000000 0.000000 0.000000
vn -1.000000 0.000000 0.000000
vn 0.000000 0.000000 1.000000
vn 0.000000 0.000000 1.000000
vn 1.000000 0.000000 -0.000000
vn 1.000000 0.000000 -0.000000
vn 1.000000 0.000000 -0.000000
vn 1.000000 0.000000 -0.000000
vn -0.000000 0.000000 -1.000000
vn -0.000000 0.000000 -1.000000
vn -1.000000 0.000000 0.000000
vn -1.000000 0.000000 0.000000
vn -1.000000 0.000000 0.000000
vn -1.000000 0.000000 0.000000
vn 0.000000 0.000000 1.000000
vn 0.000000 0.000000 1.000000
vn 1.000000 0.000000 -0.000000
vn 1.000000 0.000000 -0.000000
vn 1.000000 0.000000 -0.000000
vn 1.000000 0.000000 -0.000000
vn -0.000000 0.000000 -1.000000
vn -0.000000 0.000000 -1.000000
vn -0.000000 0.000000 -1.000000
vn -0.000000 0.000000 -1.000000
vn -0.000000 -0.138634 -0.990344
vn -0.000000 -0.138634 -0.990344
vn -0.000000 -0.138634 -0.990344
vn -0.000000 -0.138634 -0.990344
vn -0.000014 -0.548095 -0.836416
vn -0.000014 -0.548095 -0.836416
vn -0.000014 -0.548095 -0.836416
vn -0.000014 -0.548095 -0.836416
vn -0.000019 -0.879174 -0.476500
vn -0.000019 -0.879174 -0.476500
vn -0.000019 -0.879174 -0.476501
vn -0.000019 -0.879174 -0.476500
vn 0.000000 -1.000000 0.000000
vn 0.000000 -1.000000 0.000000
vn 0.000000 -1.000000 0.000000
vn 0.000000 -1.000000 0.000000
vn -0.000018 -0.887989 0.459866
vn -0.000018 -0.887989 0.459866
vn -0.000018 -0.887989 0.459866
vn -0.000018 -0.887988 0.459866
vn -0.000011 -0.548097 0.836415
vn -0.000011 -0.548097 0.836415
vn -0.000011 -0.548097 0.836415
vn -0.000011 -0.548097 0.836415
vn 0.000000 -0.138632 0.990344
vn 0.000000 -0.138632 0.990344
vn 0.000000 -0.138632 0.990344
vn 0.000000 -0.138632 0.990344
vn 0.000000 0.000000 1.000000
vn 0.000000 0.000000 1.000000
vn 0.000000 0.000000 1.000000
vn 0.000000 0.000000 1.000000
s 1
g wall wall_04
usemtl initialShadingGroup
f 18/1/1 19/2/2 14/3/3 3/4/4
s 2
f 3/49/5 14/50/6 13/51/7 5/52/8
s 3
f 5/25/9 13/26/10 24/27/11 17/28/12
s off
f 7//13 15//14 16//15 1//16
s 4
f 21//17 22//18 6//19 4//20
s 5
f 17//21 18//22 3//23 5//24
s 3
f 9/29/25 6/30/26 22/31/27 23/32/28
s off
f 11//29 10//30 8//31 2//32
s 1
f 12/5/33 20/6/34 21/7/35 4/8/36
s 2
f 9/53/37 12/54/38 4/55/39 6/56/40
s 3
f 13/26/10 9/29/25 23/32/28 24/27/11
s 1
f 14/3/3 19/2/2 20/6/34 12/5/33
s 2
f 13/51/7 14/50/6 12/54/38 9/53/37
s 5
f 25//41 26//42 18//22 17//21
s 1
f 26/9/43 27/10/44 19/2/2 18/1/1
f 21/7/35 20/6/34 28/11/45 29/12/46
s 4
f 29//47 30//48 22//18 21//17
s 3
f 23/32/28 22/31/27 30/33/49 31/34/50
f 17/28/12 24/27/11 32/35/51 25/36/52
s 5
f 33//53 34//54 26//42 25//41
s 1
f 34/13/55 35/14/56 27/10/44 26/9/43
f 29/12/46 28/11/45 36/15/57 37/16/58
s 4
f 37//59 38//60 30//48 29//47
s 3
f 31/34/50 30/33/49 38/37/61 39/38/62
f 25/36/52 32/35/51 40/39/63 33/40/64
s 5
f 41//65 42//66 34//54 33//53
s 1
f 42/17/67 43/18/68 35/14/56 34/13/55
f 37/16/58 36/15/57 44/19/69 45/20/70
s 4
f 45//71 46//72 38//60 37//59
s 3
f 39/38/62 38/37/61 46/41/73 47/42/74
f 33/40/64 40/39/63 48/43/75 41/44/76
s 5
f 7//77 1//78 42//66 41//65
s 1
f 1/21/79 16/22/80 43/18/68 42/17/67
f 45/20/70 44/19/69 11/23/81 2/24/82
s 4
f 2//83 8//84 46//72 45//71
s 3
f 47/42/74 46/41/73 8/45/85 10/46/86
f 41/44/76 48/43/75 15/47/87 7/48/88
s off
f 11/57/89 44/58/90 47/59/91 10/60/92
f 39/61/93 47/59/94 44/58/95 36/62/96
f 31/63/97 39/61/98 36/62/99 28/64/100
f 23/65/101 31/63/102 28/64/103 20/66/104
f 20/66/105 19/72/106 24/71/107 23/65/108
f 32/68/109 24/71/110 19/72/111 27/69/112
f 40/67/113 32/68/114 27/69/115 35/70/116
f 48/73/117 40/67/118 35/70/119 43/74/120
f 43/74/121 16/75/122 15/76/123 48/73/124
g default
v -3.017782 53.080754 -5.566484
v -0.089145 53.080754 -5.566484
v -3.017782 62.080928 -5.566484
v -0.089145 62.080928 -5.566484
v -3.017782 62.080928 -5.707815
v -0.089145 62.080928 -5.707815
v -3.017782 53.080754 -5.707815
v -0.089145 53.080754 -5.707815
vt 0.529922 0.062011
vt 0.565297 0.062011
vt 0.529922 0.097386
vt 0.565297 0.097386
vt 0.529922 0.132761
vt 0.565297 0.132761
vt 0.529922 0.168136
vt 0.565297 0.168136
vt 0.529922 0.203511
vt 0.565297 0.203511
vt 0.600672 0.062011
vt 0.600672 0.097386
vt 0.494547 0.062011
vt 0.494547 0.097386
vn 0.000000 0.000000 1.000000
vn 0.000000 0.000000 1.000000
vn 0.000000 0.000000 1.000000
vn 0.000000 0.000000 1.000000
vn 0.000000 1.000000 0.000000
vn 0.000000 1.000000 0.000000
vn 0.000000 1.000000 0.000000
vn 0.000000 1.000000 0.000000
vn 0.000000 0.000000 -1.000000
vn 0.000000 0.000000 -1.000000
vn 0.000000 0.000000 -1.000000
vn 0.000000 0.000000 -1.000000
vn 0.000000 -1.000000 0.000000
vn 0.000000 -1.000000 0.000000
vn 0.000000 -1.000000 0.000000
vn 0.000000 -1.000000 0.000000
vn 1.000000 0.000000 0.000000
vn 1.000000 0.000000 0.000000
vn 1.000000 0.000000 0.000000
vn 1.000000 0.000000 0.000000
vn -1.000000 0.000000 0.000000
vn -1.000000 0.000000 0.000000
vn -1.000000 0.000000 0.000000
vn -1.000000 0.000000 0.000000
s off
g wall_04 wall5
usemtl initialShadingGroup
f 49/77/125 50/78/126 52/80/127 51/79/128
f 51/79/129 52/80/130 54/82/131 53/81/132
f 53/81/133 54/82/134 56/84/135 55/83/136
f 55/83/137 56/84/138 50/86/139 49/85/140
f 50/78/141 56/87/142 54/88/143 52/80/144
f 55/89/145 49/77/146 51/79/147 53/90/148
