# This file uses centimeters as units for non-parametric coordinates.

mtllib wall_01.mtl
g default
v -2.839263 63.016331 -12.333712
v -2.839263 63.016331 -5.612746
v -2.839263 70.363222 -12.333712
v -2.839263 70.363222 -5.612746
v -2.697932 70.363222 -12.333712
v -2.697932 70.363222 -5.612746
v -2.697932 63.016331 -12.333712
v -2.697932 63.016331 -5.612746
vt 0.341087 0.413186
vt 0.425845 0.413186
vt 0.341087 0.497944
vt 0.425845 0.497944
vt 0.341087 0.582702
vt 0.425845 0.582702
vt 0.341087 0.667459
vt 0.425845 0.667459
vt 0.341087 0.752217
vt 0.425845 0.752217
vt 0.510603 0.413186
vt 0.510603 0.497944
vt 0.256329 0.413186
vt 0.256329 0.497944
vn -1.000000 0.000000 0.000000
vn -1.000000 0.000000 0.000000
vn -1.000000 0.000000 0.000000
vn -1.000000 0.000000 0.000000
vn 0.000000 1.000000 0.000000
vn 0.000000 1.000000 0.000000
vn 0.000000 1.000000 0.000000
vn 0.000000 1.000000 0.000000
vn 1.000000 0.000000 -0.000000
vn 1.000000 0.000000 -0.000000
vn 1.000000 0.000000 -0.000000
vn 1.000000 0.000000 -0.000000
vn 0.000000 -1.000000 0.000000
vn 0.000000 -1.000000 0.000000
vn 0.000000 -1.000000 0.000000
vn 0.000000 -1.000000 0.000000
vn 0.000000 0.000000 1.000000
vn 0.000000 0.000000 1.000000
vn 0.000000 0.000000 1.000000
vn 0.000000 0.000000 1.000000
vn -0.000000 0.000000 -1.000000
vn -0.000000 0.000000 -1.000000
vn -0.000000 0.000000 -1.000000
vn -0.000000 0.000000 -1.000000
s off
g wall wall_01
usemtl initialShadingGroup
f 1/1/1 2/2/2 4/4/3 3/3/4
f 3/3/5 4/4/6 6/6/7 5/5/8
f 5/5/9 6/6/10 8/8/11 7/7/12
f 7/7/13 8/8/14 2/10/15 1/9/16
f 2/2/17 8/11/18 6/12/19 4/4/20
f 7/13/21 1/1/22 3/3/23 5/14/24
g default
v -11.245621 63.016325 -5.497335
v 11.258221 63.016325 -5.497335
v -11.245621 70.372136 -5.497335
v 11.258221 70.372136 -5.497335
v -11.245621 70.372136 -5.638666
v 11.258221 70.372136 -5.638666
v -11.245621 63.016325 -5.638666
v 11.258221 63.016325 -5.638666
v -8.388547 70.372136 -5.497335
v -8.388547 70.372136 -5.638666
v -9.059474 63.016325 -5.638666
v -9.059474 63.016325 -5.497335
v -7.698099 70.372136 -5.497335
v -7.698099 70.372136 -5.638666
v -7.030211 63.016325 -5.638666
v -7.030211 63.016325 -5.497335
v 6.472541 70.372136 -5.497335
v 6.472541 70.372136 -5.638666
v 5.807897 63.016325 -5.638666
v 5.807897 63.016325 -5.497335
v 7.162003 70.372136 -5.497335
v 7.162003 70.372136 -5.638666
v 7.828386 63.016325 -5.638666
v 7.828386 63.016325 -5.497335
v 11.258221 66.852098 -5.497335
v 7.164659 66.852098 -5.497335
v 6.469884 66.852098 -5.497335
v -7.693561 66.852098 -5.497335
v -8.393085 66.852098 -5.497335
v -11.245621 66.852098 -5.497335
v -11.245621 66.852098 -5.638666
v -8.393085 66.852098 -5.638666
v -7.693561 66.852098 -5.638666
v 6.469884 66.852098 -5.638666
v 7.164659 66.852098 -5.638666
v 11.258221 66.852098 -5.638666
v 11.258221 66.241136 -5.497335
v 7.738588 66.241136 -5.497335
v 5.897696 66.241136 -5.497335
v -7.120401 66.241136 -5.497335
v -8.969284 66.241136 -5.497335
v -11.245621 66.241136 -5.497335
v -11.245621 66.241136 -5.638666
v -8.969284 66.241136 -5.638666
v -7.120401 66.241136 -5.638666
v 5.897696 66.241136 -5.638666
v 7.738588 66.241136 -5.638666
v 11.258221 66.241136 -5.638666
v -11.245621 66.705384 -5.497335
v -11.245621 66.705384 -5.638666
v -8.653622 66.705384 -5.638666
v -7.436064 66.705384 -5.638666
v 6.211994 66.705384 -5.638666
v 7.424289 66.705384 -5.638666
v 11.258221 66.705384 -5.638666
v 11.258221 66.705384 -5.497335
v 7.424289 66.705384 -5.497335
v 6.211994 66.705384 -5.497335
v -7.436063 66.705384 -5.497335
v -8.653620 66.705384 -5.497335
v 11.258221 65.590789 -5.497335
v 7.828386 65.590789 -5.497335
v 5.807897 65.590789 -5.497335
v -7.030211 65.590789 -5.497335
v -9.059474 65.590789 -5.497335
v -11.245621 65.590789 -5.497335
v -11.245621 65.590789 -5.638666
v -9.059474 65.590789 -5.638666
v -7.030211 65.590789 -5.638666
v 5.807897 65.590789 -5.638666
v 7.828386 65.590789 -5.638666
v 11.258221 65.590789 -5.638666
vt 0.363171 0.834766
vt 0.395369 0.834766
vt 0.395369 0.898362
vt 0.363171 0.898362
vt 0.425255 0.834766
vt 0.614333 0.834766
vt 0.614333 0.898362
vt 0.425255 0.898362
vt 0.644091 0.834766
vt 0.694605 0.834766
vt 0.694605 0.898362
vt 0.644091 0.898362
vt 0.634277 0.984903
vt 0.634316 0.929519
vt 0.694605 0.929519
vt 0.694605 0.984903
vt 0.624122 0.984903
vt 0.624083 0.929519
vt 0.415419 0.984903
vt 0.415486 0.929519
vt 0.405250 0.984903
vt 0.405183 0.929519
vt 0.363171 0.929519
vt 0.363171 0.984903
vt 0.638140 0.925895
vt 0.642768 0.914427
vt 0.694605 0.914427
vt 0.694605 0.925895
vt 0.419278 0.925895
vt 0.423927 0.914427
vt 0.615656 0.914427
vt 0.620285 0.925895
vt 0.363171 0.914427
vt 0.396697 0.914427
vt 0.401346 0.925895
vt 0.363171 0.925895
vt 0.321265 0.898439
vt 0.321265 0.835270
vt 0.353462 0.835270
vt 0.353462 0.898439
vt 0.102300 0.898439
vt 0.102300 0.835270
vt 0.291378 0.835270
vt 0.291378 0.898439
vt 0.022028 0.898439
vt 0.022028 0.835270
vt 0.072542 0.835270
vt 0.072542 0.898439
vt 0.353462 0.984398
vt 0.311383 0.984398
vt 0.311450 0.929387
vt 0.353462 0.929387
vt 0.301148 0.929387
vt 0.301215 0.984398
vt 0.092550 0.929387
vt 0.092511 0.984398
vt 0.082318 0.929387
vt 0.082357 0.984398
vt 0.022028 0.929387
vt 0.022028 0.984398
vt 0.353462 0.925787
vt 0.315287 0.925787
vt 0.319936 0.914396
vt 0.353462 0.914396
vt 0.100977 0.914396
vt 0.292706 0.914396
vt 0.297355 0.925787
vt 0.096348 0.925787
vt 0.022028 0.914396
vt 0.073865 0.914396
vt 0.078494 0.925787
vt 0.022028 0.925787
vt 0.801150 0.977635
vt 0.734575 0.977635
vt 0.734575 0.956479
vt 0.801150 0.956479
vt 0.817968 0.956479
vt 0.817968 0.977635
vt 0.829973 0.977635
vt 0.829973 0.956479
vt 0.833767 0.956479
vt 0.833767 0.977635
vt 0.838779 0.956479
vt 0.842573 0.956479
vt 0.842573 0.977635
vt 0.838779 0.977635
vt 0.854579 0.977635
vt 0.854579 0.956479
vt 0.871396 0.956479
vt 0.871396 0.977635
vt 0.937972 0.977635
vt 0.937972 0.956479
vt 0.805675 0.929413
vt 0.740701 0.929413
vt 0.740701 0.918814
vt 0.805675 0.918814
vt 0.822088 0.918814
vt 0.822088 0.929413
vt 0.833805 0.929413
vt 0.833805 0.918814
vt 0.837508 0.918814
vt 0.837508 0.929413
vt 0.842366 0.918814
vt 0.846069 0.918814
vt 0.846069 0.929413
vt 0.842366 0.929413
vt 0.857786 0.929413
vt 0.857786 0.918814
vt 0.874199 0.918814
vt 0.874199 0.929413
vt 0.939173 0.929413
vt 0.939173 0.918814
vn 0.000000 0.000000 1.000000
vn 0.000000 0.000000 1.000000
vn 0.000000 0.000000 1.000000
vn 0.000000 0.000000 1.000000
vn 0.000000 1.000000 0.000000
vn 0.000000 1.000000 0.000000
vn 0.000000 1.000000 0.000000
vn 0.000000 1.000000 0.000000
vn 0.000000 0.000000 -1.000000
vn 0.000000 0.000000 -1.000000
vn 0.000000 0.000000 -1.000000
vn 0.000000 0.000000 -1.000000
vn 0.000000 -1.000000 0.000000
vn 0.000000 -1.000000 0.000000
vn 0.000000 -1.000000 0.000000
vn 0.000000 -1.000000 0.000000
vn 1.000000 0.000000 0.000000
vn 1.000000 0.000000 0.000000
vn 1.000000 0.000000 0.000000
vn 1.000000 0.000000 0.000000
vn -1.000000 0.000000 0.000000
vn -1.000000 0.000000 0.000000
vn -1.000000 0.000000 0.000000
vn -1.000000 0.000000 0.000000
vn 0.000000 1.000000 0.000000
vn 0.000000 1.000000 0.000000
vn 0.000000 1.000000 0.000000
vn 0.000000 1.000000 0.000000
vn 0.000000 0.000000 -1.000000
vn 0.000000 0.000000 -1.000000
vn 0.000000 0.000000 -1.000000
vn 0.000000 0.000000 -1.000000
vn 0.000000 -1.000000 0.000000
vn 0.000000 -1.000000 0.000000
vn 0.000000 -1.000000 0.000000
vn 0.000000 -1.000000 0.000000
vn 0.000000 0.000000 1.000000
vn 0.000000 0.000000 1.000000
vn 0.000000 0.000000 1.000000
vn 0.000000 0.000000 1.000000
vn 0.000000 1.000000 0.000000
vn 0.000000 1.000000 0.000000
vn 0.000000 1.000000 0.000000
vn 0.000000 1.000000 0.000000
vn 0.000000 0.000000 -1.000000
vn 0.000000 0.000000 -1.000000
vn 0.000000 0.000000 -1.000000
vn 0.000000 0.000000 -1.000000
vn 0.000000 -1.000000 0.000000
vn 0.000000 -1.000000 0.000000
vn 0.000000 -1.000000 0.000000
vn 0.000000 -1.000000 0.000000
vn 0.000000 0.000000 1.000000
vn 0.000000 0.000000 1.000000
vn 0.000000 0.000000 1.000000
vn 0.000000 0.000000 1.000000
vn 0.000000 0.000000 1.000000
vn 0.000000 0.000000 1.000000
vn 0.000000 0.000000 1.000000
vn 0.000000 0.000000 1.000000
vn 0.000000 0.000000 1.000000
vn 0.000000 0.000000 1.000000
vn 0.000000 0.000000 1.000000
vn 0.000000 0.000000 1.000000
vn 0.000000 0.000000 1.000000
vn 0.000000 0.000000 1.000000
vn 0.000000 0.000000 1.000000
vn 0.000000 0.000000 1.000000
vn -1.000000 0.000000 0.000000
vn -1.000000 0.000000 0.000000
vn -1.000000 0.000000 0.000000
vn -1.000000 0.000000 0.000000
vn 0.000000 0.000000 -1.000000
vn 0.000000 0.000000 -1.000000
vn 0.000000 0.000000 -1.000000
vn 0.000000 0.000000 -1.000000
vn 0.000000 0.000000 -1.000000
vn 0.000000 0.000000 -1.000000
vn 0.000000 0.000000 -1.000000
vn 0.000000 0.000000 -1.000000
vn 0.000000 0.000000 -1.000000
vn 0.000000 0.000000 -1.000000
vn 0.000000 0.000000 -1.000000
vn 0.000000 0.000000 -1.000000
vn 1.000000 0.000000 0.000000
vn 1.000000 0.000000 0.000000
vn 1.000000 0.000000 0.000000
vn 1.000000 0.000000 0.000000
vn 0.000000 0.000000 1.000000
vn 0.000000 0.000000 1.000000
vn 0.000000 0.000000 1.000000
vn 0.000000 0.000000 1.000000
vn 0.000000 0.000000 1.000000
vn 0.000000 0.000000 1.000000
vn 0.000000 0.000000 1.000000
vn 0.000000 0.000000 1.000000
vn 0.000000 0.000000 1.000000
vn 0.000000 0.000000 1.000000
vn 0.000000 0.000000 1.000000
vn 0.000000 0.000000 1.000000
vn -1.000000 0.000000 0.000000
vn -1.000000 0.000000 0.000000
vn -1.000000 0.000000 0.000000
vn -1.000000 0.000000 0.000000
vn 0.000000 0.000000 -1.000000
vn 0.000000 0.000000 -1.000000
vn 0.000000 0.000000 -1.000000
vn 0.000000 0.000000 -1.000000
vn 0.000000 0.000000 -1.000000
vn 0.000000 0.000000 -1.000000
vn 0.000000 0.000000 -1.000000
vn 0.000000 0.000000 -1.000000
vn 0.000000 0.000000 -1.000000
vn 0.000000 0.000000 -1.000000
vn 0.000000 0.000000 -1.000000
vn 0.000000 0.000000 -1.000000
vn 1.000000 0.000000 0.000000
vn 1.000000 0.000000 0.000000
vn 1.000000 0.000000 0.000000
vn 1.000000 0.000000 0.000000
vn 1.000000 0.000000 0.000000
vn 1.000000 0.000000 0.000000
vn 1.000000 0.000000 0.000000
vn 1.000000 0.000000 0.000000
vn 0.990601 -0.136782 0.000000
vn 0.990601 -0.136782 0.000000
vn 0.990601 -0.136782 0.000000
vn 0.990601 -0.136782 0.000000
vn 0.828078 -0.560612 0.000000
vn 0.828078 -0.560612 0.000000
vn 0.828078 -0.560612 0.000000
vn 0.828078 -0.560612 0.000000
vn 0.494481 -0.869188 0.000000
vn 0.494481 -0.869188 0.000000
vn 0.494481 -0.869188 0.000000
vn 0.494481 -0.869188 0.000000
vn 0.000000 -1.000000 0.000000
vn 0.000000 -1.000000 0.000000
vn 0.000000 -1.000000 0.000000
vn 0.000000 -1.000000 0.000000
vn -0.491972 -0.870611 0.000000
vn -0.491972 -0.870611 0.000000
vn -0.491972 -0.870611 0.000000
vn -0.491972 -0.870611 0.000000
vn -0.828077 -0.560614 0.000000
vn -0.828077 -0.560614 0.000000
vn -0.828077 -0.560614 0.000000
vn -0.828077 -0.560614 0.000000
vn -0.990601 -0.136780 0.000000
vn -0.990601 -0.136780 0.000000
vn -0.990601 -0.136780 0.000000
vn -0.990601 -0.136780 0.000000
vn -1.000000 0.000000 0.000000
vn -1.000000 0.000000 0.000000
vn -1.000000 0.000000 0.000000
vn -1.000000 0.000000 0.000000
vn 1.000000 0.000000 0.000000
vn 1.000000 0.000000 0.000000
vn 1.000000 0.000000 0.000000
vn 1.000000 0.000000 0.000000
vn 0.990521 -0.137365 0.000000
vn 0.990521 -0.137365 0.000000
vn 0.990521 -0.137365 0.000000
vn 0.990521 -0.137365 0.000000
vn 0.826947 -0.562280 -0.000006
vn 0.826947 -0.562280 -0.000006
vn 0.826947 -0.562280 -0.000006
vn 0.826947 -0.562280 -0.000006
vn 0.490674 -0.871343 -0.000004
vn 0.490674 -0.871343 -0.000004
vn 0.490674 -0.871343 -0.000004
vn 0.490674 -0.871343 -0.000004
vn 0.000000 -1.000000 0.000000
vn 0.000000 -1.000000 0.000000
vn 0.000000 -1.000000 0.000000
vn 0.000000 -1.000000 0.000000
vn -0.495052 -0.868863 0.000001
vn -0.495052 -0.868863 0.000001
vn -0.495052 -0.868863 0.000001
vn -0.495052 -0.868863 0.000001
vn -0.826947 -0.562280 0.000002
vn -0.826947 -0.562280 0.000002
vn -0.826947 -0.562280 0.000002
vn -0.826947 -0.562280 0.000002
vn -0.990521 -0.137364 0.000000
vn -0.990521 -0.137364 0.000000
vn -0.990521 -0.137364 0.000000
vn -0.990521 -0.137364 0.000000
vn -1.000000 0.000000 0.000000
vn -1.000000 0.000000 0.000000
vn -1.000000 0.000000 0.000000
vn -1.000000 0.000000 0.000000
s 1
g wall_01 wall4
usemtl initialShadingGroup
f 9/15/25 20/16/26 73/17/27 74/18/28
s 2
f 11//29 17//30 18//31 13//32
s 3
f 76/51/33 19/52/34 15/53/35 75/54/36
s off
f 15//37 19//38 20//39 9//40
s 4
f 10//41 16//42 80//43 69//44
s 5
f 75//45 15//46 9//47 74//48
s 2
f 17//30 21//49 22//50 18//31
f 21//49 25//51 26//52 22//50
s 3
f 78/55/53 27/56/54 23/57/55 77/58/56
s off
f 24//57 23//58 27//59 28//60
s 1
f 24/19/61 28/20/62 71/21/63 72/22/64
s 2
f 25//51 29//65 30//66 26//52
f 29//65 12//67 14//68 30//66
s 3
f 80/59/69 16/60/70 31/61/71 79/62/72
s off
f 32//73 31//74 16//75 10//76
s 1
f 32/23/77 10/24/78 69/25/79 70/26/80
f 29/27/81 34/28/82 33/29/83 12/30/84
f 25/31/85 35/32/86 34/28/82 29/27/81
f 21/33/87 36/34/88 35/32/86 25/31/85
f 17/35/89 37/36/90 36/34/88 21/33/87
f 38/37/91 37/36/90 17/35/89 11/38/92
s 5
f 39//93 38//94 11//95 13//96
s 3
f 13/63/97 18/64/98 40/65/99 39/66/100
f 41/67/101 40/65/99 18/64/98 22/68/102
f 42/69/103 41/67/101 22/68/102 26/70/104
f 43/71/105 42/69/103 26/70/104 30/72/106
f 44/73/107 43/71/105 30/72/106 14/74/108
s 4
f 33//109 44//110 14//111 12//112
s 1
f 65/39/113 46/40/114 45/41/115 64/42/116
f 67/43/117 48/44/118 47/45/119 66/46/120
f 50/47/121 49/48/122 68/49/123 57/50/124
s 5
f 51//125 50//126 57//127 58//128
s 3
f 58/75/129 59/76/130 52/77/131 51/78/132
f 54/79/133 53/80/134 60/81/135 61/82/136
f 56/83/137 55/84/138 62/85/139 63/86/140
s 4
f 45//141 56//142 63//143 64//144
s 5
f 58//128 57//127 38//94 39//93
s 3
f 39/66/100 40/65/99 59/76/130 58/75/129
f 61/82/136 60/81/135 41/67/101 42/69/103
f 63/86/140 62/85/139 43/71/105 44/73/107
s 4
f 64//144 63//143 44//110 33//109
s 1
f 34/28/82 65/39/113 64/42/116 33/29/83
f 36/34/88 67/43/117 66/46/120 35/32/86
f 57/50/124 68/49/123 37/36/90 38/37/91
f 70/26/80 69/25/79 45/41/115 46/40/114
f 72/22/64 71/21/63 47/45/119 48/44/118
f 74/18/28 73/17/27 49/48/122 50/47/121
s 5
f 51//125 75//45 74//48 50//126
s 3
f 52/77/131 76/51/33 75/54/36 51/78/132
f 54/79/133 78/55/53 77/58/56 53/80/134
f 56/83/137 80/59/69 79/62/72 55/84/138
s 4
f 69//44 80//43 56//142 45//141
s off
f 71/107/145 28/108/146 27/109/147 78/110/148
f 78/110/149 54/111/150 47/112/151 71/107/152
f 66/113/153 47/112/154 54/111/155 61/114/156
f 61/114/157 42/115/158 35/116/159 66/113/160
f 34/120/161 35/116/162 42/115/163 43/117/164
f 43/117/165 62/118/166 65/119/167 34/120/168
f 46/121/169 65/119/170 62/118/171 55/122/172
f 55/122/173 79/123/174 70/124/175 46/121/176
f 32/125/177 70/124/178 79/123/179 31/126/180
f 73/87/181 20/88/182 19/89/183 76/90/184
f 76/90/185 52/91/186 49/92/187 73/87/188
f 68/93/189 49/92/190 52/91/191 59/94/192
f 59/94/193 40/95/194 37/96/195 68/93/196
f 36/100/197 37/96/198 40/95/199 41/97/200
f 41/97/201 60/98/202 67/99/203 36/100/204
f 48/101/205 67/99/206 60/98/207 53/102/208
f 53/102/209 77/103/210 72/104/211 48/101/212
f 24/105/213 72/104/214 77/103/215 23/106/216
