# This file uses centimeters as units for non-parametric coordinates.

mtllib wall_02.mtl
g default
v -0.078631 53.080754 -12.751526
v -0.078631 53.080754 0.004984
v -0.078631 62.083962 -12.751526
v -0.078631 62.083962 0.004984
v 0.062700 62.083962 -12.751526
v 0.062700 62.083962 0.004984
v 0.062700 53.080754 -12.751526
v 0.062700 53.080754 0.004984
v 0.062700 62.083962 -9.273339
v 0.062700 53.080754 -8.607723
v -0.078631 53.080754 -8.607723
v -0.078631 62.083962 -9.273339
v 0.062700 62.083962 -9.965038
v -0.078631 62.083962 -9.965038
v 0.062700 53.080754 -10.643217
v -0.078631 53.080754 -10.643217
v 0.062700 56.873344 -12.751526
v -0.078631 56.873344 -12.751526
v -0.078631 56.873344 -9.965038
v -0.078631 56.873344 -9.273339
v -0.078631 56.873344 0.004984
v 0.062700 56.873344 0.004984
v 0.062700 56.873344 -9.273339
v 0.062700 56.873344 -9.965038
v 0.062700 56.727100 -12.751526
v -0.078631 56.727106 -12.751526
v -0.078631 56.727106 -10.247427
v -0.078631 56.727106 -9.003514
v -0.078631 56.727106 0.004984
v 0.062700 56.727100 0.004984
v 0.062700 56.727100 -9.003514
v 0.062700 56.727100 -10.247427
v 0.062700 56.261166 -12.751526
v -0.078631 56.261166 -12.751526
v -0.078631 56.261166 -10.552752
v -0.078631 56.261166 -8.698190
v -0.078631 56.261166 0.004984
v 0.062700 56.261166 0.004984
v 0.062700 56.261166 -8.698190
v 0.062700 56.261166 -10.552752
v 0.062700 55.614911 -12.751526
v -0.078631 55.614911 -12.751526
v -0.078631 55.614911 -10.643217
v -0.078631 55.614911 -8.607723
v -0.078631 55.614911 0.004984
v 0.062700 55.614911 0.004984
v 0.062700 55.614911 -8.607723
v 0.062700 55.614911 -10.643217
vt 0.796277 0.204436
vt 0.763361 0.204436
vt 0.763361 0.128156
vt 0.796277 0.128156
vt 0.755191 0.204436
vt 0.645590 0.204436
vt 0.645590 0.128156
vt 0.755191 0.128156
vt 0.645590 0.125287
vt 0.752003 0.125287
vt 0.766697 0.125287
vt 0.796277 0.125287
vt 0.645590 0.116145
vt 0.748397 0.116145
vt 0.770304 0.116145
vt 0.796277 0.116145
vt 0.645590 0.103467
vt 0.747328 0.103467
vt 0.771372 0.103467
vt 0.796277 0.103467
vt 0.645590 0.053749
vt 0.747328 0.053749
vt 0.771372 0.053749
vt 0.796277 0.053749
vt 0.646805 0.288110
vt 0.679190 0.288110
vt 0.679190 0.363160
vt 0.646805 0.363160
vt 0.687229 0.363160
vt 0.687229 0.288110
vt 0.795062 0.288110
vt 0.795062 0.363160
vt 0.646805 0.285287
vt 0.675908 0.285287
vt 0.690364 0.285287
vt 0.795062 0.285287
vt 0.646805 0.276293
vt 0.672359 0.276293
vt 0.693913 0.276293
vt 0.795062 0.276293
vt 0.646805 0.263818
vt 0.671308 0.263818
vt 0.694964 0.263818
vt 0.795062 0.263818
vt 0.646805 0.214902
vt 0.671308 0.214902
vt 0.694964 0.214902
vt 0.795062 0.214902
vt 0.792480 0.383023
vt 0.759476 0.383023
vt 0.759600 0.375118
vt 0.792475 0.375118
vt 0.751836 0.375118
vt 0.750745 0.383023
vt 0.639566 0.383023
vt 0.640693 0.375118
vt 0.721044 0.370426
vt 0.697411 0.370426
vt 0.697411 0.366817
vt 0.721044 0.366817
vt 0.691384 0.366817
vt 0.691384 0.370426
vt 0.687039 0.366817
vt 0.687039 0.370426
vt 0.685675 0.366817
vt 0.685675 0.370426
vt 0.676868 0.366817
vt 0.681213 0.366817
vt 0.681213 0.370426
vt 0.676868 0.370426
vt 0.682577 0.366817
vt 0.682577 0.370426
vt 0.670841 0.366817
vt 0.670841 0.370426
vt 0.647208 0.370426
vt 0.647208 0.366817
vn -1.000000 0.000000 0.000000
vn -1.000000 0.000000 0.000000
vn -1.000000 0.000000 0.000000
vn -1.000000 0.000000 0.000000
vn 0.000000 1.000000 0.000000
vn 0.000000 1.000000 0.000000
vn 0.000000 1.000000 0.000000
vn 0.000000 1.000000 0.000000
vn 1.000000 0.000000 -0.000000
vn 1.000000 0.000000 -0.000000
vn 1.000000 0.000000 -0.000000
vn 1.000000 0.000000 -0.000000
vn 0.000000 -1.000000 0.000000
vn 0.000000 -1.000000 0.000000
vn 0.000000 -1.000000 0.000000
vn 0.000000 -1.000000 0.000000
vn 0.000000 0.000000 1.000000
vn 0.000000 0.000000 1.000000
vn 0.000000 0.000000 1.000000
vn 0.000000 0.000000 1.000000
vn -0.000000 0.000000 -1.000000
vn -0.000000 0.000000 -1.000000
vn -0.000000 0.000000 -1.000000
vn -0.000000 0.000000 -1.000000
vn 1.000000 0.000000 -0.000000
vn 1.000000 0.000000 -0.000000
vn 1.000000 0.000000 -0.000000
vn 1.000000 0.000000 -0.000000
vn 0.000000 -1.000000 0.000000
vn 0.000000 -1.000000 0.000000
vn 0.000000 -1.000000 0.000000
vn 0.000000 -1.000000 0.000000
vn -1.000000 0.000000 0.000000
vn -1.000000 0.000000 0.000000
vn -1.000000 0.000000 0.000000
vn -1.000000 0.000000 0.000000
vn 0.000000 1.000000 0.000000
vn 0.000000 1.000000 0.000000
vn 0.000000 1.000000 0.000000
vn 0.000000 1.000000 0.000000
vn -0.000000 0.000000 -1.000000
vn -0.000000 0.000000 -1.000000
vn -1.000000 0.000000 0.000000
vn -1.000000 0.000000 0.000000
vn -1.000000 0.000000 0.000000
vn -1.000000 0.000000 0.000000
vn 0.000000 0.000001 1.000000
vn 0.000000 0.000001 1.000000
vn 1.000000 0.000000 -0.000000
vn 1.000000 0.000000 -0.000000
vn 1.000000 0.000000 -0.000000
vn 1.000000 0.000000 -0.000000
vn -0.000000 0.000000 -1.000000
vn -0.000000 0.000000 -1.000000
vn -1.000000 0.000000 0.000000
vn -1.000000 0.000000 0.000000
vn -1.000000 0.000000 0.000000
vn -1.000000 0.000000 0.000000
vn 0.000000 0.000000 1.000000
vn 0.000000 0.000000 1.000000
vn 1.000000 0.000000 -0.000000
vn 1.000000 0.000000 -0.000000
vn 1.000000 0.000000 -0.000000
vn 1.000000 0.000000 -0.000000
vn -0.000000 0.000000 -1.000000
vn -0.000000 0.000000 -1.000000
vn -1.000000 0.000000 0.000000
vn -1.000000 0.000000 0.000000
vn -1.000000 0.000000 0.000000
vn -1.000000 0.000000 0.000000
vn 0.000000 0.000000 1.000000
vn 0.000000 0.000000 1.000000
vn 1.000000 0.000000 -0.000000
vn 1.000000 0.000000 -0.000000
vn 1.000000 0.000000 -0.000000
vn 1.000000 0.000000 -0.000000
vn -0.000000 0.000000 -1.000000
vn -0.000000 0.000000 -1.000000
vn -1.000000 0.000000 0.000000
vn -1.000000 0.000000 0.000000
vn -1.000000 0.000000 0.000000
vn -1.000000 0.000000 0.000000
vn 0.000000 0.000000 1.000000
vn 0.000000 0.000000 1.000000
vn 1.000000 0.000000 -0.000000
vn 1.000000 0.000000 -0.000000
vn 1.000000 0.000000 -0.000000
vn 1.000000 0.000000 -0.000000
vn -0.000000 0.000000 -1.000000
vn -0.000000 0.000000 -1.000000
vn -0.000000 0.000000 -1.000000
vn -0.000000 0.000000 -1.000000
vn -0.000000 -0.138634 -0.990344
vn -0.000000 -0.138634 -0.990344
vn -0.000000 -0.138634 -0.990344
vn -0.000000 -0.138634 -0.990344
vn -0.000014 -0.548095 -0.836416
vn -0.000014 -0.548095 -0.836416
vn -0.000014 -0.548095 -0.836416
vn -0.000014 -0.548095 -0.836416
vn -0.000019 -0.879174 -0.476500
vn -0.000019 -0.879174 -0.476500
vn -0.000019 -0.879174 -0.476500
vn -0.000019 -0.879174 -0.476500
vn 0.000000 -1.000000 0.000000
vn 0.000000 -1.000000 0.000000
vn 0.000000 -1.000000 0.000000
vn 0.000000 -1.000000 0.000000
vn -0.000018 -0.887989 0.459865
vn -0.000018 -0.887989 0.459865
vn -0.000018 -0.887989 0.459865
vn -0.000018 -0.887989 0.459865
vn -0.000011 -0.548096 0.836416
vn -0.000011 -0.548096 0.836416
vn -0.000011 -0.548096 0.836416
vn -0.000011 -0.548096 0.836416
vn 0.000000 -0.138632 0.990344
vn 0.000000 -0.138632 0.990344
vn 0.000000 -0.138632 0.990344
vn 0.000000 -0.138632 0.990344
vn 0.000000 0.000000 1.000000
vn 0.000000 0.000000 1.000000
vn 0.000000 0.000000 1.000000
vn 0.000000 0.000000 1.000000
s 1
g wall1 wall_02
usemtl initialShadingGroup
f 18/25/1 19/26/2 14/27/3 3/28/4
s 2
f 3/49/5 14/50/6 13/51/7 5/52/8
s 3
f 5/1/9 13/2/10 24/3/11 17/4/12
s off
f 7//13 15//14 16//15 1//16
s 4
f 21//17 22//18 6//19 4//20
s 5
f 17//21 18//22 3//23 5//24
s 3
f 9/5/25 6/6/26 22/7/27 23/8/28
s off
f 11//29 10//30 8//31 2//32
s 1
f 12/29/33 20/30/34 21/31/35 4/32/36
s 2
f 9/53/37 12/54/38 4/55/39 6/56/40
s 3
f 13/2/10 9/5/25 23/8/28 24/3/11
s 1
f 14/27/3 19/26/2 20/30/34 12/29/33
s 2
f 13/51/7 14/50/6 12/54/38 9/53/37
s 5
f 25//41 26//42 18//22 17//21
s 1
f 26/33/43 27/34/44 19/26/2 18/25/1
f 21/31/35 20/30/34 28/35/45 29/36/46
s 4
f 29//47 30//48 22//18 21//17
s 3
f 23/8/28 22/7/27 30/9/49 31/10/50
f 17/4/12 24/3/11 32/11/51 25/12/52
s 5
f 33//53 34//54 26//42 25//41
s 1
f 34/37/55 35/38/56 27/34/44 26/33/43
f 29/36/46 28/35/45 36/39/57 37/40/58
s 4
f 37//59 38//60 30//48 29//47
s 3
f 31/10/50 30/9/49 38/13/61 39/14/62
f 25/12/52 32/11/51 40/15/63 33/16/64
s 5
f 41//65 42//66 34//54 33//53
s 1
f 42/41/67 43/42/68 35/38/56 34/37/55
f 37/40/58 36/39/57 44/43/69 45/44/70
s 4
f 45//71 46//72 38//60 37//59
s 3
f 39/14/62 38/13/61 46/17/73 47/18/74
f 33/16/64 40/15/63 48/19/75 41/20/76
s 5
f 7//77 1//78 42//66 41//65
s 1
f 1/45/79 16/46/80 43/42/68 42/41/67
f 45/44/70 44/43/69 11/47/81 2/48/82
s 4
f 2//83 8//84 46//72 45//71
s 3
f 47/18/74 46/17/73 8/21/85 10/22/86
f 41/20/76 48/19/75 15/23/87 7/24/88
s off
f 11/57/89 44/58/90 47/59/91 10/60/92
f 39/61/93 47/59/94 44/58/95 36/62/96
f 31/63/97 39/61/98 36/62/99 28/64/100
f 23/65/101 31/63/102 28/64/103 20/66/104
f 20/66/105 19/72/106 24/71/107 23/65/108
f 32/68/109 24/71/110 19/72/111 27/69/112
f 40/67/113 32/68/114 27/69/115 35/70/116
f 48/73/117 40/67/118 35/70/119 43/74/120
f 43/74/121 16/75/122 15/76/123 48/73/124
g default
v -12.729169 53.080754 0.089132
v -0.020476 53.080754 0.089132
v -12.729169 62.081071 0.089132
v -0.020476 62.081071 0.089132
v -12.729169 62.081071 -0.052198
v -0.020476 62.081071 -0.052198
v -12.729169 53.080754 -0.052198
v -0.020476 53.080754 -0.052198
vt 0.383083 0.058504
vt 0.426055 0.058504
vt 0.383083 0.101476
vt 0.426055 0.101476
vt 0.383083 0.144448
vt 0.426055 0.144448
vt 0.383083 0.187421
vt 0.426055 0.187421
vt 0.383083 0.230393
vt 0.426055 0.230393
vt 0.469028 0.058504
vt 0.469028 0.101476
vt 0.340110 0.058504
vt 0.340110 0.101476
vn 0.000000 0.000000 1.000000
vn 0.000000 0.000000 1.000000
vn 0.000000 0.000000 1.000000
vn 0.000000 0.000000 1.000000
vn 0.000000 1.000000 0.000000
vn 0.000000 1.000000 0.000000
vn 0.000000 1.000000 0.000000
vn 0.000000 1.000000 0.000000
vn 0.000000 0.000000 -1.000000
vn 0.000000 0.000000 -1.000000
vn 0.000000 0.000000 -1.000000
vn 0.000000 0.000000 -1.000000
vn 0.000000 -1.000000 0.000000
vn 0.000000 -1.000000 0.000000
vn 0.000000 -1.000000 0.000000
vn 0.000000 -1.000000 0.000000
vn 1.000000 0.000000 0.000000
vn 1.000000 0.000000 0.000000
vn 1.000000 0.000000 0.000000
vn 1.000000 0.000000 0.000000
vn -1.000000 0.000000 0.000000
vn -1.000000 0.000000 0.000000
vn -1.000000 0.000000 0.000000
vn -1.000000 0.000000 0.000000
s off
g wall_02 wall3
usemtl initialShadingGroup
f 49/77/125 50/78/126 52/80/127 51/79/128
f 51/79/129 52/80/130 54/82/131 53/81/132
f 53/81/133 54/82/134 56/84/135 55/83/136
f 55/83/137 56/84/138 50/86/139 49/85/140
f 50/78/141 56/87/142 54/88/143 52/80/144
f 55/89/145 49/77/146 51/79/147 53/90/148
g default
v 0.951057 53.078088 -0.309017
v 0.809018 53.078088 -0.587786
v 0.587786 53.078088 -0.809017
v 0.309017 53.078088 -0.951057
v 0.000000 53.078088 -1.000000
v -0.309017 53.078088 -0.951057
v -0.587785 53.078088 -0.809017
v -0.809017 53.078088 -0.587785
v -0.951057 53.078088 -0.309017
v -1.000000 53.078088 0.000000
v -0.951057 53.078088 0.309017
v -0.809017 53.078088 0.587785
v -0.587785 53.078088 0.809017
v -0.309017 53.078088 0.951057
v -0.000000 53.078088 1.000000
v 0.309017 53.078088 0.951057
v 0.587785 53.078088 0.809017
v 0.809017 53.078088 0.587785
v 0.951057 53.078088 0.309017
v 1.000000 53.078088 0.000000
v 0.951057 62.078198 -0.309017
v 0.809018 62.078198 -0.587786
v 0.587786 62.078198 -0.809017
v 0.309017 62.078198 -0.951057
v 0.000000 62.078198 -1.000000
v -0.309017 62.078198 -0.951057
v -0.587785 62.078198 -0.809017
v -0.809017 62.078198 -0.587785
v -0.951057 62.078198 -0.309017
v -1.000000 62.078198 0.000000
v -0.951057 62.078198 0.309017
v -0.809017 62.078198 0.587785
v -0.587785 62.078198 0.809017
v -0.309017 62.078198 0.951057
v -0.000000 62.078198 1.000000
v 0.309017 62.078198 0.951057
v 0.587785 62.078198 0.809017
v 0.809017 62.078198 0.587785
v 0.951057 62.078198 0.309017
v 1.000000 62.078198 0.000000
v 0.000000 53.078088 0.000000
v 0.000000 62.078198 0.000000
vt 0.203881 0.045309
vt 0.207739 0.045309
vt 0.211597 0.045309
vt 0.215455 0.045309
vt 0.219313 0.045309
vt 0.223171 0.045309
vt 0.227029 0.045309
vt 0.230887 0.045309
vt 0.234745 0.045309
vt 0.238603 0.045309
vt 0.242461 0.045309
vt 0.246319 0.045309
vt 0.250177 0.045309
vt 0.254035 0.045309
vt 0.257893 0.045309
vt 0.261751 0.045309
vt 0.265609 0.045309
vt 0.269467 0.045309
vt 0.273325 0.045309
vt 0.277183 0.045309
vt 0.281041 0.045309
vt 0.203881 0.161339
vt 0.207739 0.161339
vt 0.211597 0.161339
vt 0.215455 0.161339
vt 0.219313 0.161339
vt 0.223171 0.161339
vt 0.227029 0.161339
vt 0.230887 0.161339
vt 0.234745 0.161339
vt 0.238603 0.161339
vt 0.242461 0.161339
vt 0.246319 0.161339
vt 0.250177 0.161339
vt 0.254035 0.161339
vt 0.257893 0.161339
vt 0.261751 0.161339
vt 0.265609 0.161339
vt 0.269467 0.161339
vt 0.273325 0.161339
vt 0.277183 0.161339
vt 0.281041 0.161339
vt 0.288326 0.194372
vt 0.281476 0.180928
vt 0.270807 0.170260
vt 0.257364 0.163410
vt 0.242461 0.161049
vt 0.227559 0.163410
vt 0.214115 0.170260
vt 0.203446 0.180929
vt 0.196596 0.194372
vt 0.194236 0.209275
vt 0.196596 0.224177
vt 0.203446 0.237621
vt 0.214115 0.248290
vt 0.227559 0.255140
vt 0.242461 0.257500
vt 0.257364 0.255140
vt 0.270807 0.248290
vt 0.281476 0.237621
vt 0.288326 0.224177
vt 0.290686 0.209275
vt 0.242461 0.207346
vn 0.951057 0.000000 -0.309016
vn 0.809017 0.000000 -0.587785
vn 0.809017 0.000000 -0.587785
vn 0.951057 0.000000 -0.309016
vn 0.587785 0.000000 -0.809017
vn 0.587785 0.000000 -0.809017
vn 0.309017 0.000000 -0.951057
vn 0.309017 0.000000 -0.951057
vn 0.000000 0.000000 -1.000000
vn 0.000000 0.000000 -1.000000
vn -0.309017 0.000000 -0.951057
vn -0.309017 0.000000 -0.951057
vn -0.587786 0.000000 -0.809017
vn -0.587786 0.000000 -0.809017
vn -0.809017 0.000000 -0.587785
vn -0.809017 0.000000 -0.587785
vn -0.951057 0.000000 -0.309017
vn -0.951057 0.000000 -0.309017
vn -1.000000 0.000000 0.000000
vn -1.000000 0.000000 0.000000
vn -0.951057 0.000000 0.309017
vn -0.951057 0.000000 0.309017
vn -0.809017 0.000000 0.587785
vn -0.809017 0.000000 0.587785
vn -0.587785 0.000000 0.809017
vn -0.587785 0.000000 0.809017
vn -0.309017 0.000000 0.951057
vn -0.309017 0.000000 0.951057
vn 0.000000 0.000000 1.000000
vn 0.000000 0.000000 1.000000
vn 0.309017 0.000000 0.951057
vn 0.309017 0.000000 0.951057
vn 0.587785 0.000000 0.809017
vn 0.587785 0.000000 0.809017
vn 0.809017 0.000000 0.587785
vn 0.809017 0.000000 0.587785
vn 0.951057 0.000000 0.309017
vn 0.951057 0.000000 0.309017
vn 1.000000 0.000000 0.000001
vn 1.000000 0.000000 0.000001
vn 0.000000 -1.000000 0.000000
vn 0.000000 -1.000000 0.000000
vn 0.000000 -1.000000 0.000000
vn 0.000000 -1.000000 0.000000
vn 0.000000 -1.000000 0.000000
vn 0.000000 -1.000000 0.000000
vn 0.000000 -1.000000 0.000000
vn 0.000000 -1.000000 0.000000
vn 0.000000 -1.000000 0.000000
vn 0.000000 -1.000000 0.000000
vn 0.000000 -1.000000 0.000000
vn 0.000000 -1.000000 0.000000
vn 0.000000 -1.000000 0.000000
vn 0.000000 -1.000000 0.000000
vn 0.000000 -1.000000 0.000000
vn 0.000000 -1.000000 0.000000
vn 0.000000 -1.000000 0.000000
vn 0.000000 -1.000000 0.000000
vn 0.000000 -1.000000 0.000000
vn 0.000000 -1.000000 0.000000
vn 0.000000 -1.000000 0.000000
vn 0.000000 1.000000 0.000000
vn 0.000000 1.000000 0.000000
vn 0.000000 1.000000 -0.000000
vn 0.000000 1.000000 0.000000
vn 0.000000 1.000000 0.000000
vn 0.000000 1.000000 0.000000
vn 0.000000 1.000000 0.000001
vn 0.000000 1.000000 0.000001
vn 0.000000 1.000000 0.000000
vn 0.000000 1.000000 0.000000
vn 0.000000 1.000000 0.000000
vn 0.000000 1.000000 0.000000
vn 0.000000 1.000000 0.000000
vn 0.000000 1.000000 0.000000
vn 0.000000 1.000000 0.000000
vn 0.000000 1.000000 -0.000000
vn 0.000000 1.000000 -0.000001
vn 0.000000 1.000000 -0.000001
vn 0.000000 1.000000 0.000000
vn 0.000000 1.000000 0.000000
vn 0.000000 1.000000 0.000000
s 1
g wall_02 wall2
usemtl initialShadingGroup
f 57/91/149 58/92/150 78/113/151 77/112/152
f 58/92/150 59/93/153 79/114/154 78/113/151
f 59/93/153 60/94/155 80/115/156 79/114/154
f 60/94/155 61/95/157 81/116/158 80/115/156
f 61/95/157 62/96/159 82/117/160 81/116/158
f 62/96/159 63/97/161 83/118/162 82/117/160
f 63/97/161 64/98/163 84/119/164 83/118/162
f 64/98/163 65/99/165 85/120/166 84/119/164
f 65/99/165 66/100/167 86/121/168 85/120/166
f 66/100/167 67/101/169 87/122/170 86/121/168
f 67/101/169 68/102/171 88/123/172 87/122/170
f 68/102/171 69/103/173 89/124/174 88/123/172
f 69/103/173 70/104/175 90/125/176 89/124/174
f 70/104/175 71/105/177 91/126/178 90/125/176
f 71/105/177 72/106/179 92/127/180 91/126/178
f 72/106/179 73/107/181 93/128/182 92/127/180
f 73/107/181 74/108/183 94/129/184 93/128/182
f 74/108/183 75/109/185 95/130/186 94/129/184
f 75/109/185 76/110/187 96/131/188 95/130/186
f 76/110/187 57/111/149 77/132/152 96/131/188
s 2
f 58//189 57//190 97//191
f 59//192 58//189 97//191
f 60//193 59//192 97//191
f 61//194 60//193 97//191
f 62//195 61//194 97//191
f 63//196 62//195 97//191
f 64//197 63//196 97//191
f 65//198 64//197 97//191
f 66//199 65//198 97//191
f 67//200 66//199 97//191
f 68//201 67//200 97//191
f 69//202 68//201 97//191
f 70//203 69//202 97//191
f 71//204 70//203 97//191
f 72//205 71//204 97//191
f 73//206 72//205 97//191
f 74//207 73//206 97//191
f 75//208 74//207 97//191
f 76//209 75//208 97//191
f 57//190 76//209 97//191
s 3
f 77/151/210 78/150/211 98/153/212
f 78/150/211 79/149/213 98/153/212
f 79/149/213 80/148/214 98/153/212
f 80/148/214 81/147/215 98/153/212
f 81/147/215 82/146/216 98/153/212
f 82/146/216 83/145/217 98/153/212
f 83/145/217 84/144/218 98/153/212
f 84/144/218 85/143/219 98/153/212
f 85/143/219 86/142/220 98/153/212
f 86/142/220 87/141/221 98/153/212
f 87/141/221 88/140/222 98/153/212
f 88/140/222 89/139/223 98/153/212
f 89/139/223 90/138/224 98/153/212
f 90/138/224 91/137/225 98/153/212
f 91/137/225 92/136/226 98/153/212
f 92/136/226 93/135/227 98/153/212
f 93/135/227 94/134/228 98/153/212
f 94/134/228 95/133/229 98/153/212
f 95/133/229 96/152/230 98/153/212
f 96/152/230 77/151/210 98/153/212
